G04 #@! TF.GenerationSoftware,KiCad,Pcbnew,(5.0.0)*
G04 #@! TF.CreationDate,2019-10-03T22:01:28+02:00*
G04 #@! TF.ProjectId,6502ino,36353032696E6F2E6B696361645F7063,rev?*
G04 #@! TF.SameCoordinates,Original*
G04 #@! TF.FileFunction,Copper,L2,Bot,Signal*
G04 #@! TF.FilePolarity,Positive*
%FSLAX46Y46*%
G04 Gerber Fmt 4.6, Leading zero omitted, Abs format (unit mm)*
G04 Created by KiCad (PCBNEW (5.0.0)) date 10/03/19 22:01:28*
%MOMM*%
%LPD*%
G01*
G04 APERTURE LIST*
G04 #@! TA.AperFunction,ComponentPad*
%ADD10R,1.600000X1.600000*%
G04 #@! TD*
G04 #@! TA.AperFunction,ComponentPad*
%ADD11O,1.600000X1.600000*%
G04 #@! TD*
G04 #@! TA.AperFunction,ComponentPad*
%ADD12R,1.700000X1.700000*%
G04 #@! TD*
G04 #@! TA.AperFunction,ComponentPad*
%ADD13O,1.700000X1.700000*%
G04 #@! TD*
G04 #@! TA.AperFunction,ComponentPad*
%ADD14C,1.600000*%
G04 #@! TD*
G04 #@! TA.AperFunction,ViaPad*
%ADD15C,0.800000*%
G04 #@! TD*
G04 #@! TA.AperFunction,Conductor*
%ADD16C,0.800000*%
G04 #@! TD*
G04 #@! TA.AperFunction,Conductor*
%ADD17C,0.250000*%
G04 #@! TD*
G04 APERTURE END LIST*
D10*
G04 #@! TO.P,U3,1*
G04 #@! TO.N,/RWB*
X184150000Y-76200000D03*
D11*
G04 #@! TO.P,U3,8*
G04 #@! TO.N,Net-(U2-Pad27)*
X176530000Y-60960000D03*
G04 #@! TO.P,U3,2*
G04 #@! TO.N,/RWB*
X184150000Y-73660000D03*
G04 #@! TO.P,U3,9*
G04 #@! TO.N,Net-(U3-Pad3)*
X176530000Y-63500000D03*
G04 #@! TO.P,U3,3*
X184150000Y-71120000D03*
G04 #@! TO.P,U3,10*
G04 #@! TO.N,/PHI2*
X176530000Y-66040000D03*
G04 #@! TO.P,U3,4*
X184150000Y-68580000D03*
G04 #@! TO.P,U3,11*
G04 #@! TO.N,Net-(R12-Pad2)*
X176530000Y-68580000D03*
G04 #@! TO.P,U3,5*
G04 #@! TO.N,/PHI2*
X184150000Y-66040000D03*
G04 #@! TO.P,U3,12*
G04 #@! TO.N,/IOBUSY*
X176530000Y-71120000D03*
G04 #@! TO.P,U3,6*
G04 #@! TO.N,Net-(U2-Pad22)*
X184150000Y-63500000D03*
G04 #@! TO.P,U3,13*
G04 #@! TO.N,/IOSELECT*
X176530000Y-73660000D03*
G04 #@! TO.P,U3,7*
G04 #@! TO.N,GND*
X184150000Y-60960000D03*
G04 #@! TO.P,U3,14*
G04 #@! TO.N,+5V*
X176530000Y-76200000D03*
G04 #@! TD*
D10*
G04 #@! TO.P,U1,1*
G04 #@! TO.N,Net-(U1-Pad1)*
X172720000Y-106680000D03*
D11*
G04 #@! TO.P,U1,21*
G04 #@! TO.N,GND*
X157480000Y-58420000D03*
G04 #@! TO.P,U1,2*
G04 #@! TO.N,Net-(R12-Pad1)*
X172720000Y-104140000D03*
G04 #@! TO.P,U1,22*
G04 #@! TO.N,/A12*
X157480000Y-60960000D03*
G04 #@! TO.P,U1,3*
G04 #@! TO.N,Net-(U1-Pad3)*
X172720000Y-101600000D03*
G04 #@! TO.P,U1,23*
G04 #@! TO.N,/A13*
X157480000Y-63500000D03*
G04 #@! TO.P,U1,4*
G04 #@! TO.N,+5V*
X172720000Y-99060000D03*
G04 #@! TO.P,U1,24*
G04 #@! TO.N,/A14*
X157480000Y-66040000D03*
G04 #@! TO.P,U1,5*
G04 #@! TO.N,Net-(U1-Pad5)*
X172720000Y-96520000D03*
G04 #@! TO.P,U1,25*
G04 #@! TO.N,/IOSELECT*
X157480000Y-68580000D03*
G04 #@! TO.P,U1,6*
G04 #@! TO.N,+5V*
X172720000Y-93980000D03*
G04 #@! TO.P,U1,26*
G04 #@! TO.N,/D7*
X157480000Y-71120000D03*
G04 #@! TO.P,U1,7*
G04 #@! TO.N,Net-(U1-Pad7)*
X172720000Y-91440000D03*
G04 #@! TO.P,U1,27*
G04 #@! TO.N,/D6*
X157480000Y-73660000D03*
G04 #@! TO.P,U1,8*
G04 #@! TO.N,+5V*
X172720000Y-88900000D03*
G04 #@! TO.P,U1,28*
G04 #@! TO.N,/D5*
X157480000Y-76200000D03*
G04 #@! TO.P,U1,9*
G04 #@! TO.N,/A0*
X172720000Y-86360000D03*
G04 #@! TO.P,U1,29*
G04 #@! TO.N,/D4*
X157480000Y-78740000D03*
G04 #@! TO.P,U1,10*
G04 #@! TO.N,/A1*
X172720000Y-83820000D03*
G04 #@! TO.P,U1,30*
G04 #@! TO.N,/D3*
X157480000Y-81280000D03*
G04 #@! TO.P,U1,11*
G04 #@! TO.N,/A2*
X172720000Y-81280000D03*
G04 #@! TO.P,U1,31*
G04 #@! TO.N,/D2*
X157480000Y-83820000D03*
G04 #@! TO.P,U1,12*
G04 #@! TO.N,/A3*
X172720000Y-78740000D03*
G04 #@! TO.P,U1,32*
G04 #@! TO.N,/D1*
X157480000Y-86360000D03*
G04 #@! TO.P,U1,13*
G04 #@! TO.N,/A4*
X172720000Y-76200000D03*
G04 #@! TO.P,U1,33*
G04 #@! TO.N,/D0*
X157480000Y-88900000D03*
G04 #@! TO.P,U1,14*
G04 #@! TO.N,/A5*
X172720000Y-73660000D03*
G04 #@! TO.P,U1,34*
G04 #@! TO.N,/RWB*
X157480000Y-91440000D03*
G04 #@! TO.P,U1,15*
G04 #@! TO.N,/A6*
X172720000Y-71120000D03*
G04 #@! TO.P,U1,35*
G04 #@! TO.N,Net-(U1-Pad35)*
X157480000Y-93980000D03*
G04 #@! TO.P,U1,16*
G04 #@! TO.N,/A7*
X172720000Y-68580000D03*
G04 #@! TO.P,U1,36*
G04 #@! TO.N,+5V*
X157480000Y-96520000D03*
G04 #@! TO.P,U1,17*
G04 #@! TO.N,/A8*
X172720000Y-66040000D03*
G04 #@! TO.P,U1,37*
G04 #@! TO.N,/PHI2*
X157480000Y-99060000D03*
G04 #@! TO.P,U1,18*
G04 #@! TO.N,/A9*
X172720000Y-63500000D03*
G04 #@! TO.P,U1,38*
G04 #@! TO.N,GND*
X157480000Y-101600000D03*
G04 #@! TO.P,U1,19*
G04 #@! TO.N,/A10*
X172720000Y-60960000D03*
G04 #@! TO.P,U1,39*
G04 #@! TO.N,Net-(U1-Pad39)*
X157480000Y-104140000D03*
G04 #@! TO.P,U1,20*
G04 #@! TO.N,/A11*
X172720000Y-58420000D03*
G04 #@! TO.P,U1,40*
G04 #@! TO.N,/_RESET*
X157480000Y-106680000D03*
G04 #@! TD*
D10*
G04 #@! TO.P,U2,1*
G04 #@! TO.N,/A11*
X144780000Y-58420000D03*
D11*
G04 #@! TO.P,U2,15*
G04 #@! TO.N,/D0*
X152400000Y-91440000D03*
G04 #@! TO.P,U2,2*
G04 #@! TO.N,/A12*
X144780000Y-60960000D03*
G04 #@! TO.P,U2,16*
G04 #@! TO.N,/D1*
X152400000Y-88900000D03*
G04 #@! TO.P,U2,3*
G04 #@! TO.N,/A13*
X144780000Y-63500000D03*
G04 #@! TO.P,U2,17*
G04 #@! TO.N,/D3*
X152400000Y-86360000D03*
G04 #@! TO.P,U2,4*
G04 #@! TO.N,/A14*
X144780000Y-66040000D03*
G04 #@! TO.P,U2,18*
G04 #@! TO.N,/D5*
X152400000Y-83820000D03*
G04 #@! TO.P,U2,5*
G04 #@! TO.N,/A7*
X144780000Y-68580000D03*
G04 #@! TO.P,U2,19*
G04 #@! TO.N,/D7*
X152400000Y-81280000D03*
G04 #@! TO.P,U2,6*
G04 #@! TO.N,/A5*
X144780000Y-71120000D03*
G04 #@! TO.P,U2,20*
G04 #@! TO.N,/IOSELECT*
X152400000Y-78740000D03*
G04 #@! TO.P,U2,7*
G04 #@! TO.N,/A4*
X144780000Y-73660000D03*
G04 #@! TO.P,U2,21*
G04 #@! TO.N,/A3*
X152400000Y-76200000D03*
G04 #@! TO.P,U2,8*
G04 #@! TO.N,/A2*
X144780000Y-76200000D03*
G04 #@! TO.P,U2,22*
G04 #@! TO.N,Net-(U2-Pad22)*
X152400000Y-73660000D03*
G04 #@! TO.P,U2,9*
G04 #@! TO.N,/A1*
X144780000Y-78740000D03*
G04 #@! TO.P,U2,23*
G04 #@! TO.N,/A6*
X152400000Y-71120000D03*
G04 #@! TO.P,U2,10*
G04 #@! TO.N,/A0*
X144780000Y-81280000D03*
G04 #@! TO.P,U2,24*
G04 #@! TO.N,/A8*
X152400000Y-68580000D03*
G04 #@! TO.P,U2,11*
G04 #@! TO.N,/D6*
X144780000Y-83820000D03*
G04 #@! TO.P,U2,25*
G04 #@! TO.N,/A9*
X152400000Y-66040000D03*
G04 #@! TO.P,U2,12*
G04 #@! TO.N,/D4*
X144780000Y-86360000D03*
G04 #@! TO.P,U2,26*
G04 #@! TO.N,/A10*
X152400000Y-63500000D03*
G04 #@! TO.P,U2,13*
G04 #@! TO.N,/D2*
X144780000Y-88900000D03*
G04 #@! TO.P,U2,27*
G04 #@! TO.N,Net-(U2-Pad27)*
X152400000Y-60960000D03*
G04 #@! TO.P,U2,14*
G04 #@! TO.N,GND*
X144780000Y-91440000D03*
G04 #@! TO.P,U2,28*
G04 #@! TO.N,+5V*
X152400000Y-58420000D03*
G04 #@! TD*
D12*
G04 #@! TO.P,JANALOG1,1*
G04 #@! TO.N,Net-(JANALOG1-Pad1)*
X139700000Y-93980000D03*
D13*
G04 #@! TO.P,JANALOG1,2*
G04 #@! TO.N,Net-(JANALOG1-Pad2)*
X139700000Y-96520000D03*
G04 #@! TO.P,JANALOG1,3*
G04 #@! TO.N,Net-(JANALOG1-Pad3)*
X139700000Y-99060000D03*
G04 #@! TO.P,JANALOG1,4*
G04 #@! TO.N,Net-(JANALOG1-Pad4)*
X139700000Y-101600000D03*
G04 #@! TO.P,JANALOG1,5*
G04 #@! TO.N,Net-(JANALOG1-Pad5)*
X139700000Y-104140000D03*
G04 #@! TO.P,JANALOG1,6*
G04 #@! TO.N,Net-(JANALOG1-Pad6)*
X139700000Y-106680000D03*
G04 #@! TD*
G04 #@! TO.P,JDIGITAL1,8*
G04 #@! TO.N,/IOBUSY*
X187960000Y-88900000D03*
G04 #@! TO.P,JDIGITAL1,7*
G04 #@! TO.N,Net-(JDIGITAL1-Pad7)*
X187960000Y-91440000D03*
G04 #@! TO.P,JDIGITAL1,6*
G04 #@! TO.N,Net-(JDIGITAL1-Pad6)*
X187960000Y-93980000D03*
G04 #@! TO.P,JDIGITAL1,5*
G04 #@! TO.N,Net-(JDIGITAL1-Pad5)*
X187960000Y-96520000D03*
G04 #@! TO.P,JDIGITAL1,4*
G04 #@! TO.N,Net-(JDIGITAL1-Pad4)*
X187960000Y-99060000D03*
G04 #@! TO.P,JDIGITAL1,3*
G04 #@! TO.N,Net-(JDIGITAL1-Pad3)*
X187960000Y-101600000D03*
G04 #@! TO.P,JDIGITAL1,2*
G04 #@! TO.N,Net-(JDIGITAL1-Pad2)*
X187960000Y-104140000D03*
D12*
G04 #@! TO.P,JDIGITAL1,1*
G04 #@! TO.N,Net-(JDIGITAL1-Pad1)*
X187960000Y-106680000D03*
G04 #@! TD*
G04 #@! TO.P,JDIGITAL2,1*
G04 #@! TO.N,/PHI2*
X187960000Y-84836000D03*
D13*
G04 #@! TO.P,JDIGITAL2,2*
G04 #@! TO.N,Net-(JDIGITAL2-Pad2)*
X187960000Y-82296000D03*
G04 #@! TO.P,JDIGITAL2,3*
G04 #@! TO.N,Net-(JDIGITAL2-Pad3)*
X187960000Y-79756000D03*
G04 #@! TO.P,JDIGITAL2,4*
G04 #@! TO.N,Net-(JDIGITAL2-Pad4)*
X187960000Y-77216000D03*
G04 #@! TO.P,JDIGITAL2,5*
G04 #@! TO.N,Net-(JDIGITAL2-Pad5)*
X187960000Y-74676000D03*
G04 #@! TO.P,JDIGITAL2,6*
G04 #@! TO.N,Net-(JDIGITAL2-Pad6)*
X187960000Y-72136000D03*
G04 #@! TO.P,JDIGITAL2,7*
G04 #@! TO.N,GND*
X187960000Y-69596000D03*
G04 #@! TO.P,JDIGITAL2,8*
G04 #@! TO.N,Net-(JDIGITAL2-Pad8)*
X187960000Y-67056000D03*
G04 #@! TO.P,JDIGITAL2,9*
G04 #@! TO.N,Net-(JDIGITAL2-Pad9)*
X187960000Y-64516000D03*
G04 #@! TO.P,JDIGITAL2,10*
G04 #@! TO.N,Net-(JDIGITAL2-Pad10)*
X187960000Y-61976000D03*
G04 #@! TD*
D12*
G04 #@! TO.P,JPOWER1,1*
G04 #@! TO.N,Net-(JPOWER1-Pad1)*
X139700000Y-71120000D03*
D13*
G04 #@! TO.P,JPOWER1,2*
G04 #@! TO.N,Net-(JPOWER1-Pad2)*
X139700000Y-73660000D03*
G04 #@! TO.P,JPOWER1,3*
G04 #@! TO.N,/_RESET*
X139700000Y-76200000D03*
G04 #@! TO.P,JPOWER1,4*
G04 #@! TO.N,Net-(JPOWER1-Pad4)*
X139700000Y-78740000D03*
G04 #@! TO.P,JPOWER1,5*
G04 #@! TO.N,+5V*
X139700000Y-81280000D03*
G04 #@! TO.P,JPOWER1,6*
G04 #@! TO.N,GND*
X139700000Y-83820000D03*
G04 #@! TO.P,JPOWER1,7*
X139700000Y-86360000D03*
G04 #@! TO.P,JPOWER1,8*
G04 #@! TO.N,Net-(JPOWER1-Pad8)*
X139700000Y-88900000D03*
G04 #@! TD*
D14*
G04 #@! TO.P,C1,2*
G04 #@! TO.N,GND*
X179030000Y-85090000D03*
G04 #@! TO.P,C1,1*
G04 #@! TO.N,+5V*
X176530000Y-85090000D03*
G04 #@! TD*
G04 #@! TO.P,C2,1*
G04 #@! TO.N,+5V*
X139700000Y-58420000D03*
G04 #@! TO.P,C2,2*
G04 #@! TO.N,GND*
X139700000Y-60920000D03*
G04 #@! TD*
G04 #@! TO.P,C3,2*
G04 #@! TO.N,GND*
X179030000Y-80010000D03*
G04 #@! TO.P,C3,1*
G04 #@! TO.N,+5V*
X176530000Y-80010000D03*
G04 #@! TD*
D11*
G04 #@! TO.P,R1,2*
G04 #@! TO.N,Net-(JANALOG1-Pad1)*
X143510000Y-93980000D03*
D14*
G04 #@! TO.P,R1,1*
G04 #@! TO.N,/D0*
X151130000Y-93980000D03*
G04 #@! TD*
G04 #@! TO.P,R2,1*
G04 #@! TO.N,/D1*
X151130000Y-96520000D03*
D11*
G04 #@! TO.P,R2,2*
G04 #@! TO.N,Net-(JANALOG1-Pad2)*
X143510000Y-96520000D03*
G04 #@! TD*
D14*
G04 #@! TO.P,R11,1*
G04 #@! TO.N,+5V*
X176530000Y-88900000D03*
D11*
G04 #@! TO.P,R11,2*
G04 #@! TO.N,/IOBUSY*
X184150000Y-88900000D03*
G04 #@! TD*
D14*
G04 #@! TO.P,R3,1*
G04 #@! TO.N,/D2*
X151130000Y-99060000D03*
D11*
G04 #@! TO.P,R3,2*
G04 #@! TO.N,Net-(JANALOG1-Pad3)*
X143510000Y-99060000D03*
G04 #@! TD*
G04 #@! TO.P,R4,2*
G04 #@! TO.N,Net-(JANALOG1-Pad4)*
X143510000Y-101600000D03*
D14*
G04 #@! TO.P,R4,1*
G04 #@! TO.N,/D3*
X151130000Y-101600000D03*
G04 #@! TD*
G04 #@! TO.P,R5,1*
G04 #@! TO.N,/D4*
X151130000Y-104140000D03*
D11*
G04 #@! TO.P,R5,2*
G04 #@! TO.N,Net-(JANALOG1-Pad5)*
X143510000Y-104140000D03*
G04 #@! TD*
G04 #@! TO.P,R6,2*
G04 #@! TO.N,Net-(JANALOG1-Pad6)*
X143510000Y-106680000D03*
D14*
G04 #@! TO.P,R6,1*
G04 #@! TO.N,/D5*
X151130000Y-106680000D03*
G04 #@! TD*
D11*
G04 #@! TO.P,R7,2*
G04 #@! TO.N,Net-(JDIGITAL1-Pad7)*
X184150000Y-91440000D03*
D14*
G04 #@! TO.P,R7,1*
G04 #@! TO.N,/RWB*
X176530000Y-91440000D03*
G04 #@! TD*
G04 #@! TO.P,R8,1*
G04 #@! TO.N,/IOSELECT*
X176530000Y-93980000D03*
D11*
G04 #@! TO.P,R8,2*
G04 #@! TO.N,Net-(JDIGITAL1-Pad6)*
X184150000Y-93980000D03*
G04 #@! TD*
D14*
G04 #@! TO.P,R9,1*
G04 #@! TO.N,/D7*
X176530000Y-96520000D03*
D11*
G04 #@! TO.P,R9,2*
G04 #@! TO.N,Net-(JDIGITAL1-Pad5)*
X184150000Y-96520000D03*
G04 #@! TD*
G04 #@! TO.P,R10,2*
G04 #@! TO.N,Net-(JDIGITAL1-Pad4)*
X184150000Y-99060000D03*
D14*
G04 #@! TO.P,R10,1*
G04 #@! TO.N,/D6*
X176530000Y-99060000D03*
G04 #@! TD*
G04 #@! TO.P,R12,1*
G04 #@! TO.N,Net-(R12-Pad1)*
X176530000Y-104140000D03*
D11*
G04 #@! TO.P,R12,2*
G04 #@! TO.N,Net-(R12-Pad2)*
X184150000Y-104140000D03*
G04 #@! TD*
D14*
G04 #@! TO.P,C4,1*
G04 #@! TO.N,+5V*
X139700000Y-63500000D03*
G04 #@! TO.P,C4,2*
G04 #@! TO.N,GND*
X139700000Y-68500000D03*
G04 #@! TD*
D15*
G04 #@! TO.N,/D1*
X155443347Y-87888653D03*
G04 #@! TO.N,/D2*
X154427347Y-86872653D03*
X146558000Y-87630000D03*
X149606000Y-87630000D03*
G04 #@! TO.N,/D4*
X150622006Y-85344000D03*
X146557998Y-85344000D03*
X148008011Y-85314772D03*
G04 #@! TO.N,/D5*
X149860000Y-84582000D03*
G04 #@! TO.N,/D6*
X149098000Y-83820000D03*
G04 #@! TO.N,/RWB*
X180340000Y-83312000D03*
X170179998Y-92710000D03*
G04 #@! TO.N,/PHI2*
X184150000Y-81280000D03*
X184150000Y-83312000D03*
G04 #@! TO.N,/IOBUSY*
X180340000Y-71628000D03*
X178816000Y-71628000D03*
X183134000Y-81280000D03*
X184131868Y-85278544D03*
G04 #@! TO.N,/_RESET*
X142240000Y-80264000D03*
G04 #@! TO.N,/IOSELECT*
X181102000Y-81280000D03*
X181356000Y-83312000D03*
G04 #@! TO.N,Net-(U2-Pad27)*
X155189347Y-60955347D03*
X159765994Y-63500000D03*
G04 #@! TO.N,Net-(U2-Pad22)*
X159512000Y-66294000D03*
G04 #@! TO.N,Net-(R12-Pad2)*
X182118000Y-81280000D03*
X183134000Y-85344000D03*
G04 #@! TO.N,Net-(U3-Pad3)*
X182880000Y-67310000D03*
X182118000Y-63754000D03*
G04 #@! TD*
D16*
G04 #@! TO.N,+5V*
X175514000Y-86106000D02*
X172720000Y-88900000D01*
X175514000Y-86106000D02*
X176530000Y-85090000D01*
D17*
G04 #@! TO.N,/D1*
X156972000Y-86360000D02*
X157480000Y-86360000D01*
X155443347Y-87888653D02*
X156972000Y-86360000D01*
G04 #@! TO.N,/D2*
X154432000Y-86868000D02*
X154427347Y-86872653D01*
X154427347Y-86872653D02*
X157480000Y-83820000D01*
X146558000Y-87630000D02*
X149606000Y-87630000D01*
G04 #@! TO.N,/D3*
X157480000Y-81534000D02*
X157480000Y-81280000D01*
X152400000Y-86360000D02*
X152654000Y-86360000D01*
X152654000Y-86360000D02*
X157480000Y-81534000D01*
G04 #@! TO.N,/D4*
X146587226Y-85314772D02*
X146557998Y-85344000D01*
X148008011Y-85314772D02*
X146587226Y-85314772D01*
X151187691Y-85344000D02*
X150622006Y-85344000D01*
X151441691Y-85090000D02*
X151187691Y-85344000D01*
X152908000Y-85090000D02*
X151441691Y-85090000D01*
X155702000Y-82296000D02*
X152908000Y-85090000D01*
X157480000Y-78740000D02*
X155702000Y-80518000D01*
X155702000Y-80518000D02*
X155702000Y-82296000D01*
G04 #@! TO.N,/D5*
X151187685Y-83820000D02*
X152400000Y-83820000D01*
X149860000Y-84582000D02*
X150425685Y-84582000D01*
X150425685Y-84582000D02*
X151187685Y-83820000D01*
X155194000Y-78486000D02*
X157480000Y-76200000D01*
X155194000Y-81788000D02*
X155194000Y-78486000D01*
X152400000Y-83820000D02*
X153162000Y-83820000D01*
X153162000Y-83820000D02*
X155194000Y-81788000D01*
G04 #@! TO.N,/D6*
X157480000Y-74168000D02*
X157480000Y-73660000D01*
X156680001Y-74459999D02*
X157480000Y-73660000D01*
X155956000Y-75184000D02*
X156680001Y-74459999D01*
X150368000Y-82550000D02*
X153416000Y-82550000D01*
X149098000Y-83820000D02*
X150368000Y-82550000D01*
X153416000Y-82550000D02*
X154686000Y-81280000D01*
X154686000Y-81280000D02*
X154686000Y-78232000D01*
X154686000Y-78232000D02*
X155956000Y-76962000D01*
X155956000Y-76962000D02*
X155956000Y-75184000D01*
G04 #@! TO.N,/D7*
X156680001Y-71919999D02*
X157480000Y-71120000D01*
X155194000Y-73406000D02*
X156680001Y-71919999D01*
X155194000Y-76708000D02*
X155194000Y-73406000D01*
X154120011Y-77781989D02*
X155194000Y-76708000D01*
X152400000Y-81280000D02*
X154120011Y-79559989D01*
X154120011Y-79559989D02*
X154120011Y-77781989D01*
G04 #@! TO.N,/RWB*
X180340000Y-82746315D02*
X180340000Y-83312000D01*
X184150000Y-76200000D02*
X180340000Y-80010000D01*
X180340000Y-80010000D02*
X180340000Y-82746315D01*
X175260000Y-92710000D02*
X170745683Y-92710000D01*
X170745683Y-92710000D02*
X170179998Y-92710000D01*
X176530000Y-91440000D02*
X175260000Y-92710000D01*
G04 #@! TO.N,/PHI2*
X184150000Y-81280000D02*
X184150000Y-83312000D01*
G04 #@! TO.N,/IOBUSY*
X180340000Y-71628000D02*
X178816000Y-71628000D01*
X183134000Y-81280000D02*
X183134000Y-84280676D01*
X183731869Y-84878545D02*
X184131868Y-85278544D01*
X183134000Y-84280676D02*
X183731869Y-84878545D01*
G04 #@! TO.N,/_RESET*
X142240000Y-79698315D02*
X142240000Y-80264000D01*
X139700000Y-76200000D02*
X142240000Y-78740000D01*
X142240000Y-78740000D02*
X142240000Y-79698315D01*
G04 #@! TO.N,/IOSELECT*
X156680001Y-69379999D02*
X157480000Y-68580000D01*
X155956000Y-70104000D02*
X156680001Y-69379999D01*
X155956000Y-71628000D02*
X155956000Y-70104000D01*
X154432000Y-73152000D02*
X155956000Y-71628000D01*
X152400000Y-78740000D02*
X154432000Y-76708000D01*
X154432000Y-76708000D02*
X154432000Y-73152000D01*
X181102000Y-83058000D02*
X181356000Y-83312000D01*
X181102000Y-81280000D02*
X181102000Y-83058000D01*
G04 #@! TO.N,Net-(U2-Pad27)*
X156464000Y-62230000D02*
X158495994Y-62230000D01*
X159365995Y-63100001D02*
X159765994Y-63500000D01*
X158495994Y-62230000D02*
X159365995Y-63100001D01*
X155189347Y-60955347D02*
X156464000Y-62230000D01*
G04 #@! TO.N,Net-(U2-Pad22)*
X152400000Y-73660000D02*
X154940000Y-71120000D01*
X154940000Y-71120000D02*
X154940000Y-68834000D01*
X154940000Y-68834000D02*
X156319001Y-67454999D01*
X156319001Y-67454999D02*
X156464000Y-67310000D01*
X156464000Y-67310000D02*
X158496000Y-67310000D01*
X158496000Y-67310000D02*
X159512000Y-66294000D01*
G04 #@! TO.N,Net-(R12-Pad2)*
X182118000Y-84328000D02*
X182734001Y-84944001D01*
X182118000Y-81280000D02*
X182118000Y-84328000D01*
X182734001Y-84944001D02*
X183134000Y-85344000D01*
G04 #@! TO.N,Net-(U3-Pad3)*
X182372000Y-64008000D02*
X182118000Y-63754000D01*
X182880000Y-67310000D02*
X182372000Y-66802000D01*
X182372000Y-66802000D02*
X182372000Y-64008000D01*
G04 #@! TD*
G04 #@! TO.N,GND*
G36*
X190050001Y-58375675D02*
X190050000Y-58375680D01*
X190050001Y-108770000D01*
X137610000Y-108770000D01*
X137610000Y-106680000D01*
X138451001Y-106680000D01*
X138546075Y-107157971D01*
X138816824Y-107563176D01*
X139222029Y-107833925D01*
X139579348Y-107905000D01*
X139820652Y-107905000D01*
X140177971Y-107833925D01*
X140583176Y-107563176D01*
X140853925Y-107157971D01*
X140948999Y-106680000D01*
X142311981Y-106680000D01*
X142403175Y-107138462D01*
X142662873Y-107527127D01*
X143051538Y-107786825D01*
X143394276Y-107855000D01*
X143625724Y-107855000D01*
X143968462Y-107786825D01*
X144357127Y-107527127D01*
X144616825Y-107138462D01*
X144708019Y-106680000D01*
X144661529Y-106446278D01*
X149955000Y-106446278D01*
X149955000Y-106913722D01*
X150133883Y-107345584D01*
X150464416Y-107676117D01*
X150896278Y-107855000D01*
X151363722Y-107855000D01*
X151795584Y-107676117D01*
X152126117Y-107345584D01*
X152305000Y-106913722D01*
X152305000Y-106680000D01*
X156281981Y-106680000D01*
X156373175Y-107138462D01*
X156632873Y-107527127D01*
X157021538Y-107786825D01*
X157364276Y-107855000D01*
X157595724Y-107855000D01*
X157938462Y-107786825D01*
X158327127Y-107527127D01*
X158586825Y-107138462D01*
X158678019Y-106680000D01*
X158586825Y-106221538D01*
X158358617Y-105880000D01*
X171537654Y-105880000D01*
X171537654Y-107480000D01*
X171566758Y-107626317D01*
X171649641Y-107750359D01*
X171773683Y-107833242D01*
X171920000Y-107862346D01*
X173520000Y-107862346D01*
X173666317Y-107833242D01*
X173790359Y-107750359D01*
X173873242Y-107626317D01*
X173902346Y-107480000D01*
X173902346Y-105880000D01*
X173892401Y-105830000D01*
X186727654Y-105830000D01*
X186727654Y-107530000D01*
X186756758Y-107676317D01*
X186839641Y-107800359D01*
X186963683Y-107883242D01*
X187110000Y-107912346D01*
X188810000Y-107912346D01*
X188956317Y-107883242D01*
X189080359Y-107800359D01*
X189163242Y-107676317D01*
X189192346Y-107530000D01*
X189192346Y-105830000D01*
X189163242Y-105683683D01*
X189080359Y-105559641D01*
X188956317Y-105476758D01*
X188810000Y-105447654D01*
X187110000Y-105447654D01*
X186963683Y-105476758D01*
X186839641Y-105559641D01*
X186756758Y-105683683D01*
X186727654Y-105830000D01*
X173892401Y-105830000D01*
X173873242Y-105733683D01*
X173790359Y-105609641D01*
X173666317Y-105526758D01*
X173520000Y-105497654D01*
X171920000Y-105497654D01*
X171773683Y-105526758D01*
X171649641Y-105609641D01*
X171566758Y-105733683D01*
X171537654Y-105880000D01*
X158358617Y-105880000D01*
X158327127Y-105832873D01*
X157938462Y-105573175D01*
X157595724Y-105505000D01*
X157364276Y-105505000D01*
X157021538Y-105573175D01*
X156632873Y-105832873D01*
X156373175Y-106221538D01*
X156281981Y-106680000D01*
X152305000Y-106680000D01*
X152305000Y-106446278D01*
X152126117Y-106014416D01*
X151795584Y-105683883D01*
X151363722Y-105505000D01*
X150896278Y-105505000D01*
X150464416Y-105683883D01*
X150133883Y-106014416D01*
X149955000Y-106446278D01*
X144661529Y-106446278D01*
X144616825Y-106221538D01*
X144357127Y-105832873D01*
X143968462Y-105573175D01*
X143625724Y-105505000D01*
X143394276Y-105505000D01*
X143051538Y-105573175D01*
X142662873Y-105832873D01*
X142403175Y-106221538D01*
X142311981Y-106680000D01*
X140948999Y-106680000D01*
X140853925Y-106202029D01*
X140583176Y-105796824D01*
X140177971Y-105526075D01*
X139820652Y-105455000D01*
X139579348Y-105455000D01*
X139222029Y-105526075D01*
X138816824Y-105796824D01*
X138546075Y-106202029D01*
X138451001Y-106680000D01*
X137610000Y-106680000D01*
X137610000Y-104140000D01*
X138451001Y-104140000D01*
X138546075Y-104617971D01*
X138816824Y-105023176D01*
X139222029Y-105293925D01*
X139579348Y-105365000D01*
X139820652Y-105365000D01*
X140177971Y-105293925D01*
X140583176Y-105023176D01*
X140853925Y-104617971D01*
X140948999Y-104140000D01*
X142311981Y-104140000D01*
X142403175Y-104598462D01*
X142662873Y-104987127D01*
X143051538Y-105246825D01*
X143394276Y-105315000D01*
X143625724Y-105315000D01*
X143968462Y-105246825D01*
X144357127Y-104987127D01*
X144616825Y-104598462D01*
X144708019Y-104140000D01*
X144661529Y-103906278D01*
X149955000Y-103906278D01*
X149955000Y-104373722D01*
X150133883Y-104805584D01*
X150464416Y-105136117D01*
X150896278Y-105315000D01*
X151363722Y-105315000D01*
X151795584Y-105136117D01*
X152126117Y-104805584D01*
X152305000Y-104373722D01*
X152305000Y-104140000D01*
X156281981Y-104140000D01*
X156373175Y-104598462D01*
X156632873Y-104987127D01*
X157021538Y-105246825D01*
X157364276Y-105315000D01*
X157595724Y-105315000D01*
X157938462Y-105246825D01*
X158327127Y-104987127D01*
X158586825Y-104598462D01*
X158678019Y-104140000D01*
X171521981Y-104140000D01*
X171613175Y-104598462D01*
X171872873Y-104987127D01*
X172261538Y-105246825D01*
X172604276Y-105315000D01*
X172835724Y-105315000D01*
X173178462Y-105246825D01*
X173567127Y-104987127D01*
X173826825Y-104598462D01*
X173918019Y-104140000D01*
X173871529Y-103906278D01*
X175355000Y-103906278D01*
X175355000Y-104373722D01*
X175533883Y-104805584D01*
X175864416Y-105136117D01*
X176296278Y-105315000D01*
X176763722Y-105315000D01*
X177195584Y-105136117D01*
X177526117Y-104805584D01*
X177705000Y-104373722D01*
X177705000Y-104140000D01*
X182951981Y-104140000D01*
X183043175Y-104598462D01*
X183302873Y-104987127D01*
X183691538Y-105246825D01*
X184034276Y-105315000D01*
X184265724Y-105315000D01*
X184608462Y-105246825D01*
X184997127Y-104987127D01*
X185256825Y-104598462D01*
X185348019Y-104140000D01*
X186711001Y-104140000D01*
X186806075Y-104617971D01*
X187076824Y-105023176D01*
X187482029Y-105293925D01*
X187839348Y-105365000D01*
X188080652Y-105365000D01*
X188437971Y-105293925D01*
X188843176Y-105023176D01*
X189113925Y-104617971D01*
X189208999Y-104140000D01*
X189113925Y-103662029D01*
X188843176Y-103256824D01*
X188437971Y-102986075D01*
X188080652Y-102915000D01*
X187839348Y-102915000D01*
X187482029Y-102986075D01*
X187076824Y-103256824D01*
X186806075Y-103662029D01*
X186711001Y-104140000D01*
X185348019Y-104140000D01*
X185256825Y-103681538D01*
X184997127Y-103292873D01*
X184608462Y-103033175D01*
X184265724Y-102965000D01*
X184034276Y-102965000D01*
X183691538Y-103033175D01*
X183302873Y-103292873D01*
X183043175Y-103681538D01*
X182951981Y-104140000D01*
X177705000Y-104140000D01*
X177705000Y-103906278D01*
X177526117Y-103474416D01*
X177195584Y-103143883D01*
X176763722Y-102965000D01*
X176296278Y-102965000D01*
X175864416Y-103143883D01*
X175533883Y-103474416D01*
X175355000Y-103906278D01*
X173871529Y-103906278D01*
X173826825Y-103681538D01*
X173567127Y-103292873D01*
X173178462Y-103033175D01*
X172835724Y-102965000D01*
X172604276Y-102965000D01*
X172261538Y-103033175D01*
X171872873Y-103292873D01*
X171613175Y-103681538D01*
X171521981Y-104140000D01*
X158678019Y-104140000D01*
X158586825Y-103681538D01*
X158327127Y-103292873D01*
X157938462Y-103033175D01*
X157595724Y-102965000D01*
X157364276Y-102965000D01*
X157021538Y-103033175D01*
X156632873Y-103292873D01*
X156373175Y-103681538D01*
X156281981Y-104140000D01*
X152305000Y-104140000D01*
X152305000Y-103906278D01*
X152126117Y-103474416D01*
X151795584Y-103143883D01*
X151363722Y-102965000D01*
X150896278Y-102965000D01*
X150464416Y-103143883D01*
X150133883Y-103474416D01*
X149955000Y-103906278D01*
X144661529Y-103906278D01*
X144616825Y-103681538D01*
X144357127Y-103292873D01*
X143968462Y-103033175D01*
X143625724Y-102965000D01*
X143394276Y-102965000D01*
X143051538Y-103033175D01*
X142662873Y-103292873D01*
X142403175Y-103681538D01*
X142311981Y-104140000D01*
X140948999Y-104140000D01*
X140853925Y-103662029D01*
X140583176Y-103256824D01*
X140177971Y-102986075D01*
X139820652Y-102915000D01*
X139579348Y-102915000D01*
X139222029Y-102986075D01*
X138816824Y-103256824D01*
X138546075Y-103662029D01*
X138451001Y-104140000D01*
X137610000Y-104140000D01*
X137610000Y-101600000D01*
X138451001Y-101600000D01*
X138546075Y-102077971D01*
X138816824Y-102483176D01*
X139222029Y-102753925D01*
X139579348Y-102825000D01*
X139820652Y-102825000D01*
X140177971Y-102753925D01*
X140583176Y-102483176D01*
X140853925Y-102077971D01*
X140948999Y-101600000D01*
X142311981Y-101600000D01*
X142403175Y-102058462D01*
X142662873Y-102447127D01*
X143051538Y-102706825D01*
X143394276Y-102775000D01*
X143625724Y-102775000D01*
X143968462Y-102706825D01*
X144357127Y-102447127D01*
X144616825Y-102058462D01*
X144708019Y-101600000D01*
X144661529Y-101366278D01*
X149955000Y-101366278D01*
X149955000Y-101833722D01*
X150133883Y-102265584D01*
X150464416Y-102596117D01*
X150896278Y-102775000D01*
X151363722Y-102775000D01*
X151795584Y-102596117D01*
X152126117Y-102265584D01*
X152305000Y-101833722D01*
X152305000Y-101600000D01*
X171521981Y-101600000D01*
X171613175Y-102058462D01*
X171872873Y-102447127D01*
X172261538Y-102706825D01*
X172604276Y-102775000D01*
X172835724Y-102775000D01*
X173178462Y-102706825D01*
X173567127Y-102447127D01*
X173826825Y-102058462D01*
X173918019Y-101600000D01*
X186711001Y-101600000D01*
X186806075Y-102077971D01*
X187076824Y-102483176D01*
X187482029Y-102753925D01*
X187839348Y-102825000D01*
X188080652Y-102825000D01*
X188437971Y-102753925D01*
X188843176Y-102483176D01*
X189113925Y-102077971D01*
X189208999Y-101600000D01*
X189113925Y-101122029D01*
X188843176Y-100716824D01*
X188437971Y-100446075D01*
X188080652Y-100375000D01*
X187839348Y-100375000D01*
X187482029Y-100446075D01*
X187076824Y-100716824D01*
X186806075Y-101122029D01*
X186711001Y-101600000D01*
X173918019Y-101600000D01*
X173826825Y-101141538D01*
X173567127Y-100752873D01*
X173178462Y-100493175D01*
X172835724Y-100425000D01*
X172604276Y-100425000D01*
X172261538Y-100493175D01*
X171872873Y-100752873D01*
X171613175Y-101141538D01*
X171521981Y-101600000D01*
X152305000Y-101600000D01*
X152305000Y-101366278D01*
X152126117Y-100934416D01*
X151795584Y-100603883D01*
X151363722Y-100425000D01*
X150896278Y-100425000D01*
X150464416Y-100603883D01*
X150133883Y-100934416D01*
X149955000Y-101366278D01*
X144661529Y-101366278D01*
X144616825Y-101141538D01*
X144357127Y-100752873D01*
X143968462Y-100493175D01*
X143625724Y-100425000D01*
X143394276Y-100425000D01*
X143051538Y-100493175D01*
X142662873Y-100752873D01*
X142403175Y-101141538D01*
X142311981Y-101600000D01*
X140948999Y-101600000D01*
X140853925Y-101122029D01*
X140583176Y-100716824D01*
X140177971Y-100446075D01*
X139820652Y-100375000D01*
X139579348Y-100375000D01*
X139222029Y-100446075D01*
X138816824Y-100716824D01*
X138546075Y-101122029D01*
X138451001Y-101600000D01*
X137610000Y-101600000D01*
X137610000Y-99060000D01*
X138451001Y-99060000D01*
X138546075Y-99537971D01*
X138816824Y-99943176D01*
X139222029Y-100213925D01*
X139579348Y-100285000D01*
X139820652Y-100285000D01*
X140177971Y-100213925D01*
X140583176Y-99943176D01*
X140853925Y-99537971D01*
X140948999Y-99060000D01*
X142311981Y-99060000D01*
X142403175Y-99518462D01*
X142662873Y-99907127D01*
X143051538Y-100166825D01*
X143394276Y-100235000D01*
X143625724Y-100235000D01*
X143968462Y-100166825D01*
X144357127Y-99907127D01*
X144616825Y-99518462D01*
X144708019Y-99060000D01*
X144661529Y-98826278D01*
X149955000Y-98826278D01*
X149955000Y-99293722D01*
X150133883Y-99725584D01*
X150464416Y-100056117D01*
X150896278Y-100235000D01*
X151363722Y-100235000D01*
X151795584Y-100056117D01*
X152126117Y-99725584D01*
X152305000Y-99293722D01*
X152305000Y-99060000D01*
X156281981Y-99060000D01*
X156373175Y-99518462D01*
X156632873Y-99907127D01*
X157021538Y-100166825D01*
X157364276Y-100235000D01*
X157595724Y-100235000D01*
X157938462Y-100166825D01*
X158327127Y-99907127D01*
X158586825Y-99518462D01*
X158678019Y-99060000D01*
X171521981Y-99060000D01*
X171613175Y-99518462D01*
X171872873Y-99907127D01*
X172261538Y-100166825D01*
X172604276Y-100235000D01*
X172835724Y-100235000D01*
X173178462Y-100166825D01*
X173567127Y-99907127D01*
X173826825Y-99518462D01*
X173918019Y-99060000D01*
X173871529Y-98826278D01*
X175355000Y-98826278D01*
X175355000Y-99293722D01*
X175533883Y-99725584D01*
X175864416Y-100056117D01*
X176296278Y-100235000D01*
X176763722Y-100235000D01*
X177195584Y-100056117D01*
X177526117Y-99725584D01*
X177705000Y-99293722D01*
X177705000Y-99060000D01*
X182951981Y-99060000D01*
X183043175Y-99518462D01*
X183302873Y-99907127D01*
X183691538Y-100166825D01*
X184034276Y-100235000D01*
X184265724Y-100235000D01*
X184608462Y-100166825D01*
X184997127Y-99907127D01*
X185256825Y-99518462D01*
X185348019Y-99060000D01*
X186711001Y-99060000D01*
X186806075Y-99537971D01*
X187076824Y-99943176D01*
X187482029Y-100213925D01*
X187839348Y-100285000D01*
X188080652Y-100285000D01*
X188437971Y-100213925D01*
X188843176Y-99943176D01*
X189113925Y-99537971D01*
X189208999Y-99060000D01*
X189113925Y-98582029D01*
X188843176Y-98176824D01*
X188437971Y-97906075D01*
X188080652Y-97835000D01*
X187839348Y-97835000D01*
X187482029Y-97906075D01*
X187076824Y-98176824D01*
X186806075Y-98582029D01*
X186711001Y-99060000D01*
X185348019Y-99060000D01*
X185256825Y-98601538D01*
X184997127Y-98212873D01*
X184608462Y-97953175D01*
X184265724Y-97885000D01*
X184034276Y-97885000D01*
X183691538Y-97953175D01*
X183302873Y-98212873D01*
X183043175Y-98601538D01*
X182951981Y-99060000D01*
X177705000Y-99060000D01*
X177705000Y-98826278D01*
X177526117Y-98394416D01*
X177195584Y-98063883D01*
X176763722Y-97885000D01*
X176296278Y-97885000D01*
X175864416Y-98063883D01*
X175533883Y-98394416D01*
X175355000Y-98826278D01*
X173871529Y-98826278D01*
X173826825Y-98601538D01*
X173567127Y-98212873D01*
X173178462Y-97953175D01*
X172835724Y-97885000D01*
X172604276Y-97885000D01*
X172261538Y-97953175D01*
X171872873Y-98212873D01*
X171613175Y-98601538D01*
X171521981Y-99060000D01*
X158678019Y-99060000D01*
X158586825Y-98601538D01*
X158327127Y-98212873D01*
X157938462Y-97953175D01*
X157595724Y-97885000D01*
X157364276Y-97885000D01*
X157021538Y-97953175D01*
X156632873Y-98212873D01*
X156373175Y-98601538D01*
X156281981Y-99060000D01*
X152305000Y-99060000D01*
X152305000Y-98826278D01*
X152126117Y-98394416D01*
X151795584Y-98063883D01*
X151363722Y-97885000D01*
X150896278Y-97885000D01*
X150464416Y-98063883D01*
X150133883Y-98394416D01*
X149955000Y-98826278D01*
X144661529Y-98826278D01*
X144616825Y-98601538D01*
X144357127Y-98212873D01*
X143968462Y-97953175D01*
X143625724Y-97885000D01*
X143394276Y-97885000D01*
X143051538Y-97953175D01*
X142662873Y-98212873D01*
X142403175Y-98601538D01*
X142311981Y-99060000D01*
X140948999Y-99060000D01*
X140853925Y-98582029D01*
X140583176Y-98176824D01*
X140177971Y-97906075D01*
X139820652Y-97835000D01*
X139579348Y-97835000D01*
X139222029Y-97906075D01*
X138816824Y-98176824D01*
X138546075Y-98582029D01*
X138451001Y-99060000D01*
X137610000Y-99060000D01*
X137610000Y-96520000D01*
X138451001Y-96520000D01*
X138546075Y-96997971D01*
X138816824Y-97403176D01*
X139222029Y-97673925D01*
X139579348Y-97745000D01*
X139820652Y-97745000D01*
X140177971Y-97673925D01*
X140583176Y-97403176D01*
X140853925Y-96997971D01*
X140948999Y-96520000D01*
X142311981Y-96520000D01*
X142403175Y-96978462D01*
X142662873Y-97367127D01*
X143051538Y-97626825D01*
X143394276Y-97695000D01*
X143625724Y-97695000D01*
X143968462Y-97626825D01*
X144357127Y-97367127D01*
X144616825Y-96978462D01*
X144708019Y-96520000D01*
X144661529Y-96286278D01*
X149955000Y-96286278D01*
X149955000Y-96753722D01*
X150133883Y-97185584D01*
X150464416Y-97516117D01*
X150896278Y-97695000D01*
X151363722Y-97695000D01*
X151795584Y-97516117D01*
X152126117Y-97185584D01*
X152305000Y-96753722D01*
X152305000Y-96520000D01*
X156281981Y-96520000D01*
X156373175Y-96978462D01*
X156632873Y-97367127D01*
X157021538Y-97626825D01*
X157364276Y-97695000D01*
X157595724Y-97695000D01*
X157938462Y-97626825D01*
X158327127Y-97367127D01*
X158586825Y-96978462D01*
X158678019Y-96520000D01*
X171521981Y-96520000D01*
X171613175Y-96978462D01*
X171872873Y-97367127D01*
X172261538Y-97626825D01*
X172604276Y-97695000D01*
X172835724Y-97695000D01*
X173178462Y-97626825D01*
X173567127Y-97367127D01*
X173826825Y-96978462D01*
X173918019Y-96520000D01*
X173871529Y-96286278D01*
X175355000Y-96286278D01*
X175355000Y-96753722D01*
X175533883Y-97185584D01*
X175864416Y-97516117D01*
X176296278Y-97695000D01*
X176763722Y-97695000D01*
X177195584Y-97516117D01*
X177526117Y-97185584D01*
X177705000Y-96753722D01*
X177705000Y-96520000D01*
X182951981Y-96520000D01*
X183043175Y-96978462D01*
X183302873Y-97367127D01*
X183691538Y-97626825D01*
X184034276Y-97695000D01*
X184265724Y-97695000D01*
X184608462Y-97626825D01*
X184997127Y-97367127D01*
X185256825Y-96978462D01*
X185348019Y-96520000D01*
X186711001Y-96520000D01*
X186806075Y-96997971D01*
X187076824Y-97403176D01*
X187482029Y-97673925D01*
X187839348Y-97745000D01*
X188080652Y-97745000D01*
X188437971Y-97673925D01*
X188843176Y-97403176D01*
X189113925Y-96997971D01*
X189208999Y-96520000D01*
X189113925Y-96042029D01*
X188843176Y-95636824D01*
X188437971Y-95366075D01*
X188080652Y-95295000D01*
X187839348Y-95295000D01*
X187482029Y-95366075D01*
X187076824Y-95636824D01*
X186806075Y-96042029D01*
X186711001Y-96520000D01*
X185348019Y-96520000D01*
X185256825Y-96061538D01*
X184997127Y-95672873D01*
X184608462Y-95413175D01*
X184265724Y-95345000D01*
X184034276Y-95345000D01*
X183691538Y-95413175D01*
X183302873Y-95672873D01*
X183043175Y-96061538D01*
X182951981Y-96520000D01*
X177705000Y-96520000D01*
X177705000Y-96286278D01*
X177526117Y-95854416D01*
X177195584Y-95523883D01*
X176763722Y-95345000D01*
X176296278Y-95345000D01*
X175864416Y-95523883D01*
X175533883Y-95854416D01*
X175355000Y-96286278D01*
X173871529Y-96286278D01*
X173826825Y-96061538D01*
X173567127Y-95672873D01*
X173178462Y-95413175D01*
X172835724Y-95345000D01*
X172604276Y-95345000D01*
X172261538Y-95413175D01*
X171872873Y-95672873D01*
X171613175Y-96061538D01*
X171521981Y-96520000D01*
X158678019Y-96520000D01*
X158586825Y-96061538D01*
X158327127Y-95672873D01*
X157938462Y-95413175D01*
X157595724Y-95345000D01*
X157364276Y-95345000D01*
X157021538Y-95413175D01*
X156632873Y-95672873D01*
X156373175Y-96061538D01*
X156281981Y-96520000D01*
X152305000Y-96520000D01*
X152305000Y-96286278D01*
X152126117Y-95854416D01*
X151795584Y-95523883D01*
X151363722Y-95345000D01*
X150896278Y-95345000D01*
X150464416Y-95523883D01*
X150133883Y-95854416D01*
X149955000Y-96286278D01*
X144661529Y-96286278D01*
X144616825Y-96061538D01*
X144357127Y-95672873D01*
X143968462Y-95413175D01*
X143625724Y-95345000D01*
X143394276Y-95345000D01*
X143051538Y-95413175D01*
X142662873Y-95672873D01*
X142403175Y-96061538D01*
X142311981Y-96520000D01*
X140948999Y-96520000D01*
X140853925Y-96042029D01*
X140583176Y-95636824D01*
X140177971Y-95366075D01*
X139820652Y-95295000D01*
X139579348Y-95295000D01*
X139222029Y-95366075D01*
X138816824Y-95636824D01*
X138546075Y-96042029D01*
X138451001Y-96520000D01*
X137610000Y-96520000D01*
X137610000Y-93130000D01*
X138467654Y-93130000D01*
X138467654Y-94830000D01*
X138496758Y-94976317D01*
X138579641Y-95100359D01*
X138703683Y-95183242D01*
X138850000Y-95212346D01*
X140550000Y-95212346D01*
X140696317Y-95183242D01*
X140820359Y-95100359D01*
X140903242Y-94976317D01*
X140932346Y-94830000D01*
X140932346Y-93980000D01*
X142311981Y-93980000D01*
X142403175Y-94438462D01*
X142662873Y-94827127D01*
X143051538Y-95086825D01*
X143394276Y-95155000D01*
X143625724Y-95155000D01*
X143968462Y-95086825D01*
X144357127Y-94827127D01*
X144616825Y-94438462D01*
X144708019Y-93980000D01*
X144661529Y-93746278D01*
X149955000Y-93746278D01*
X149955000Y-94213722D01*
X150133883Y-94645584D01*
X150464416Y-94976117D01*
X150896278Y-95155000D01*
X151363722Y-95155000D01*
X151795584Y-94976117D01*
X152126117Y-94645584D01*
X152305000Y-94213722D01*
X152305000Y-93980000D01*
X156281981Y-93980000D01*
X156373175Y-94438462D01*
X156632873Y-94827127D01*
X157021538Y-95086825D01*
X157364276Y-95155000D01*
X157595724Y-95155000D01*
X157938462Y-95086825D01*
X158327127Y-94827127D01*
X158586825Y-94438462D01*
X158678019Y-93980000D01*
X158586825Y-93521538D01*
X158327127Y-93132873D01*
X157938462Y-92873175D01*
X157595724Y-92805000D01*
X157364276Y-92805000D01*
X157021538Y-92873175D01*
X156632873Y-93132873D01*
X156373175Y-93521538D01*
X156281981Y-93980000D01*
X152305000Y-93980000D01*
X152305000Y-93746278D01*
X152126117Y-93314416D01*
X151795584Y-92983883D01*
X151363722Y-92805000D01*
X150896278Y-92805000D01*
X150464416Y-92983883D01*
X150133883Y-93314416D01*
X149955000Y-93746278D01*
X144661529Y-93746278D01*
X144616825Y-93521538D01*
X144357127Y-93132873D01*
X143968462Y-92873175D01*
X143625724Y-92805000D01*
X143394276Y-92805000D01*
X143051538Y-92873175D01*
X142662873Y-93132873D01*
X142403175Y-93521538D01*
X142311981Y-93980000D01*
X140932346Y-93980000D01*
X140932346Y-93130000D01*
X140903242Y-92983683D01*
X140820359Y-92859641D01*
X140696317Y-92776758D01*
X140550000Y-92747654D01*
X138850000Y-92747654D01*
X138703683Y-92776758D01*
X138579641Y-92859641D01*
X138496758Y-92983683D01*
X138467654Y-93130000D01*
X137610000Y-93130000D01*
X137610000Y-91440000D01*
X151201981Y-91440000D01*
X151293175Y-91898462D01*
X151552873Y-92287127D01*
X151941538Y-92546825D01*
X152284276Y-92615000D01*
X152515724Y-92615000D01*
X152858462Y-92546825D01*
X153247127Y-92287127D01*
X153506825Y-91898462D01*
X153598019Y-91440000D01*
X156281981Y-91440000D01*
X156373175Y-91898462D01*
X156632873Y-92287127D01*
X157021538Y-92546825D01*
X157364276Y-92615000D01*
X157595724Y-92615000D01*
X157893125Y-92555843D01*
X169404998Y-92555843D01*
X169404998Y-92864157D01*
X169522985Y-93149002D01*
X169740996Y-93367013D01*
X170025841Y-93485000D01*
X170334155Y-93485000D01*
X170619000Y-93367013D01*
X170776013Y-93210000D01*
X171821338Y-93210000D01*
X171613175Y-93521538D01*
X171521981Y-93980000D01*
X171613175Y-94438462D01*
X171872873Y-94827127D01*
X172261538Y-95086825D01*
X172604276Y-95155000D01*
X172835724Y-95155000D01*
X173178462Y-95086825D01*
X173567127Y-94827127D01*
X173826825Y-94438462D01*
X173918019Y-93980000D01*
X173871529Y-93746278D01*
X175355000Y-93746278D01*
X175355000Y-94213722D01*
X175533883Y-94645584D01*
X175864416Y-94976117D01*
X176296278Y-95155000D01*
X176763722Y-95155000D01*
X177195584Y-94976117D01*
X177526117Y-94645584D01*
X177705000Y-94213722D01*
X177705000Y-93980000D01*
X182951981Y-93980000D01*
X183043175Y-94438462D01*
X183302873Y-94827127D01*
X183691538Y-95086825D01*
X184034276Y-95155000D01*
X184265724Y-95155000D01*
X184608462Y-95086825D01*
X184997127Y-94827127D01*
X185256825Y-94438462D01*
X185348019Y-93980000D01*
X186711001Y-93980000D01*
X186806075Y-94457971D01*
X187076824Y-94863176D01*
X187482029Y-95133925D01*
X187839348Y-95205000D01*
X188080652Y-95205000D01*
X188437971Y-95133925D01*
X188843176Y-94863176D01*
X189113925Y-94457971D01*
X189208999Y-93980000D01*
X189113925Y-93502029D01*
X188843176Y-93096824D01*
X188437971Y-92826075D01*
X188080652Y-92755000D01*
X187839348Y-92755000D01*
X187482029Y-92826075D01*
X187076824Y-93096824D01*
X186806075Y-93502029D01*
X186711001Y-93980000D01*
X185348019Y-93980000D01*
X185256825Y-93521538D01*
X184997127Y-93132873D01*
X184608462Y-92873175D01*
X184265724Y-92805000D01*
X184034276Y-92805000D01*
X183691538Y-92873175D01*
X183302873Y-93132873D01*
X183043175Y-93521538D01*
X182951981Y-93980000D01*
X177705000Y-93980000D01*
X177705000Y-93746278D01*
X177526117Y-93314416D01*
X177195584Y-92983883D01*
X176763722Y-92805000D01*
X176296278Y-92805000D01*
X175864416Y-92983883D01*
X175533883Y-93314416D01*
X175355000Y-93746278D01*
X173871529Y-93746278D01*
X173826825Y-93521538D01*
X173618662Y-93210000D01*
X175210759Y-93210000D01*
X175260000Y-93219795D01*
X175309241Y-93210000D01*
X175309243Y-93210000D01*
X175455090Y-93180989D01*
X175620480Y-93070480D01*
X175648376Y-93028730D01*
X176130694Y-92546413D01*
X176296278Y-92615000D01*
X176763722Y-92615000D01*
X177195584Y-92436117D01*
X177526117Y-92105584D01*
X177705000Y-91673722D01*
X177705000Y-91440000D01*
X182951981Y-91440000D01*
X183043175Y-91898462D01*
X183302873Y-92287127D01*
X183691538Y-92546825D01*
X184034276Y-92615000D01*
X184265724Y-92615000D01*
X184608462Y-92546825D01*
X184997127Y-92287127D01*
X185256825Y-91898462D01*
X185348019Y-91440000D01*
X186711001Y-91440000D01*
X186806075Y-91917971D01*
X187076824Y-92323176D01*
X187482029Y-92593925D01*
X187839348Y-92665000D01*
X188080652Y-92665000D01*
X188437971Y-92593925D01*
X188843176Y-92323176D01*
X189113925Y-91917971D01*
X189208999Y-91440000D01*
X189113925Y-90962029D01*
X188843176Y-90556824D01*
X188437971Y-90286075D01*
X188080652Y-90215000D01*
X187839348Y-90215000D01*
X187482029Y-90286075D01*
X187076824Y-90556824D01*
X186806075Y-90962029D01*
X186711001Y-91440000D01*
X185348019Y-91440000D01*
X185256825Y-90981538D01*
X184997127Y-90592873D01*
X184608462Y-90333175D01*
X184265724Y-90265000D01*
X184034276Y-90265000D01*
X183691538Y-90333175D01*
X183302873Y-90592873D01*
X183043175Y-90981538D01*
X182951981Y-91440000D01*
X177705000Y-91440000D01*
X177705000Y-91206278D01*
X177526117Y-90774416D01*
X177195584Y-90443883D01*
X176763722Y-90265000D01*
X176296278Y-90265000D01*
X175864416Y-90443883D01*
X175533883Y-90774416D01*
X175355000Y-91206278D01*
X175355000Y-91673722D01*
X175423587Y-91839306D01*
X175052894Y-92210000D01*
X173618662Y-92210000D01*
X173826825Y-91898462D01*
X173918019Y-91440000D01*
X173826825Y-90981538D01*
X173567127Y-90592873D01*
X173178462Y-90333175D01*
X172835724Y-90265000D01*
X172604276Y-90265000D01*
X172261538Y-90333175D01*
X171872873Y-90592873D01*
X171613175Y-90981538D01*
X171521981Y-91440000D01*
X171613175Y-91898462D01*
X171821338Y-92210000D01*
X170776013Y-92210000D01*
X170619000Y-92052987D01*
X170334155Y-91935000D01*
X170025841Y-91935000D01*
X169740996Y-92052987D01*
X169522985Y-92270998D01*
X169404998Y-92555843D01*
X157893125Y-92555843D01*
X157938462Y-92546825D01*
X158327127Y-92287127D01*
X158586825Y-91898462D01*
X158678019Y-91440000D01*
X158586825Y-90981538D01*
X158327127Y-90592873D01*
X157938462Y-90333175D01*
X157595724Y-90265000D01*
X157364276Y-90265000D01*
X157021538Y-90333175D01*
X156632873Y-90592873D01*
X156373175Y-90981538D01*
X156281981Y-91440000D01*
X153598019Y-91440000D01*
X153506825Y-90981538D01*
X153247127Y-90592873D01*
X152858462Y-90333175D01*
X152515724Y-90265000D01*
X152284276Y-90265000D01*
X151941538Y-90333175D01*
X151552873Y-90592873D01*
X151293175Y-90981538D01*
X151201981Y-91440000D01*
X137610000Y-91440000D01*
X137610000Y-88900000D01*
X138451001Y-88900000D01*
X138546075Y-89377971D01*
X138816824Y-89783176D01*
X139222029Y-90053925D01*
X139579348Y-90125000D01*
X139820652Y-90125000D01*
X140177971Y-90053925D01*
X140583176Y-89783176D01*
X140853925Y-89377971D01*
X140948999Y-88900000D01*
X143581981Y-88900000D01*
X143673175Y-89358462D01*
X143932873Y-89747127D01*
X144321538Y-90006825D01*
X144664276Y-90075000D01*
X144895724Y-90075000D01*
X145238462Y-90006825D01*
X145627127Y-89747127D01*
X145886825Y-89358462D01*
X145978019Y-88900000D01*
X151201981Y-88900000D01*
X151293175Y-89358462D01*
X151552873Y-89747127D01*
X151941538Y-90006825D01*
X152284276Y-90075000D01*
X152515724Y-90075000D01*
X152858462Y-90006825D01*
X153247127Y-89747127D01*
X153506825Y-89358462D01*
X153598019Y-88900000D01*
X156281981Y-88900000D01*
X156373175Y-89358462D01*
X156632873Y-89747127D01*
X157021538Y-90006825D01*
X157364276Y-90075000D01*
X157595724Y-90075000D01*
X157938462Y-90006825D01*
X158327127Y-89747127D01*
X158586825Y-89358462D01*
X158678019Y-88900000D01*
X158586825Y-88441538D01*
X158327127Y-88052873D01*
X157938462Y-87793175D01*
X157595724Y-87725000D01*
X157364276Y-87725000D01*
X157021538Y-87793175D01*
X156632873Y-88052873D01*
X156373175Y-88441538D01*
X156281981Y-88900000D01*
X153598019Y-88900000D01*
X153506825Y-88441538D01*
X153247127Y-88052873D01*
X152858462Y-87793175D01*
X152515724Y-87725000D01*
X152284276Y-87725000D01*
X151941538Y-87793175D01*
X151552873Y-88052873D01*
X151293175Y-88441538D01*
X151201981Y-88900000D01*
X145978019Y-88900000D01*
X145886825Y-88441538D01*
X145627127Y-88052873D01*
X145238462Y-87793175D01*
X144895724Y-87725000D01*
X144664276Y-87725000D01*
X144321538Y-87793175D01*
X143932873Y-88052873D01*
X143673175Y-88441538D01*
X143581981Y-88900000D01*
X140948999Y-88900000D01*
X140853925Y-88422029D01*
X140583176Y-88016824D01*
X140177971Y-87746075D01*
X139820652Y-87675000D01*
X139579348Y-87675000D01*
X139222029Y-87746075D01*
X138816824Y-88016824D01*
X138546075Y-88422029D01*
X138451001Y-88900000D01*
X137610000Y-88900000D01*
X137610000Y-86360000D01*
X143581981Y-86360000D01*
X143673175Y-86818462D01*
X143932873Y-87207127D01*
X144321538Y-87466825D01*
X144664276Y-87535000D01*
X144895724Y-87535000D01*
X145193125Y-87475843D01*
X145783000Y-87475843D01*
X145783000Y-87784157D01*
X145900987Y-88069002D01*
X146118998Y-88287013D01*
X146403843Y-88405000D01*
X146712157Y-88405000D01*
X146997002Y-88287013D01*
X147154015Y-88130000D01*
X149009985Y-88130000D01*
X149166998Y-88287013D01*
X149451843Y-88405000D01*
X149760157Y-88405000D01*
X150045002Y-88287013D01*
X150263013Y-88069002D01*
X150381000Y-87784157D01*
X150381000Y-87475843D01*
X150263013Y-87190998D01*
X150045002Y-86972987D01*
X149760157Y-86855000D01*
X149451843Y-86855000D01*
X149166998Y-86972987D01*
X149009985Y-87130000D01*
X147154015Y-87130000D01*
X146997002Y-86972987D01*
X146712157Y-86855000D01*
X146403843Y-86855000D01*
X146118998Y-86972987D01*
X145900987Y-87190998D01*
X145783000Y-87475843D01*
X145193125Y-87475843D01*
X145238462Y-87466825D01*
X145627127Y-87207127D01*
X145886825Y-86818462D01*
X145978019Y-86360000D01*
X145886825Y-85901538D01*
X145627127Y-85512873D01*
X145238462Y-85253175D01*
X144920072Y-85189843D01*
X145782998Y-85189843D01*
X145782998Y-85498157D01*
X145900985Y-85783002D01*
X146118996Y-86001013D01*
X146403841Y-86119000D01*
X146712155Y-86119000D01*
X146997000Y-86001013D01*
X147183241Y-85814772D01*
X147411996Y-85814772D01*
X147569009Y-85971785D01*
X147853854Y-86089772D01*
X148162168Y-86089772D01*
X148447013Y-85971785D01*
X148665024Y-85753774D01*
X148783011Y-85468929D01*
X148783011Y-85160615D01*
X148665024Y-84875770D01*
X148447013Y-84657759D01*
X148162168Y-84539772D01*
X147853854Y-84539772D01*
X147569009Y-84657759D01*
X147411996Y-84814772D01*
X147124785Y-84814772D01*
X146997000Y-84686987D01*
X146712155Y-84569000D01*
X146403841Y-84569000D01*
X146118996Y-84686987D01*
X145900985Y-84904998D01*
X145782998Y-85189843D01*
X144920072Y-85189843D01*
X144895724Y-85185000D01*
X144664276Y-85185000D01*
X144321538Y-85253175D01*
X143932873Y-85512873D01*
X143673175Y-85901538D01*
X143581981Y-86360000D01*
X137610000Y-86360000D01*
X137610000Y-83820000D01*
X143581981Y-83820000D01*
X143673175Y-84278462D01*
X143932873Y-84667127D01*
X144321538Y-84926825D01*
X144664276Y-84995000D01*
X144895724Y-84995000D01*
X145238462Y-84926825D01*
X145627127Y-84667127D01*
X145886825Y-84278462D01*
X145978019Y-83820000D01*
X145947356Y-83665843D01*
X148323000Y-83665843D01*
X148323000Y-83974157D01*
X148440987Y-84259002D01*
X148658998Y-84477013D01*
X148943843Y-84595000D01*
X149085000Y-84595000D01*
X149085000Y-84736157D01*
X149202987Y-85021002D01*
X149420998Y-85239013D01*
X149705843Y-85357000D01*
X149847006Y-85357000D01*
X149847006Y-85498157D01*
X149964993Y-85783002D01*
X150183004Y-86001013D01*
X150467849Y-86119000D01*
X150776163Y-86119000D01*
X151061008Y-86001013D01*
X151213325Y-85848696D01*
X151236932Y-85844000D01*
X151236934Y-85844000D01*
X151346135Y-85822278D01*
X151293175Y-85901538D01*
X151201981Y-86360000D01*
X151293175Y-86818462D01*
X151552873Y-87207127D01*
X151941538Y-87466825D01*
X152284276Y-87535000D01*
X152515724Y-87535000D01*
X152858462Y-87466825D01*
X153247127Y-87207127D01*
X153506825Y-86818462D01*
X153598019Y-86360000D01*
X153558713Y-86162394D01*
X156400574Y-83320533D01*
X156373175Y-83361538D01*
X156281981Y-83820000D01*
X156363429Y-84229464D01*
X154495241Y-86097653D01*
X154273190Y-86097653D01*
X153988345Y-86215640D01*
X153770334Y-86433651D01*
X153652347Y-86718496D01*
X153652347Y-87026810D01*
X153770334Y-87311655D01*
X153988345Y-87529666D01*
X154273190Y-87647653D01*
X154581504Y-87647653D01*
X154729755Y-87586245D01*
X154668347Y-87734496D01*
X154668347Y-88042810D01*
X154786334Y-88327655D01*
X155004345Y-88545666D01*
X155289190Y-88663653D01*
X155597504Y-88663653D01*
X155882349Y-88545666D01*
X156100360Y-88327655D01*
X156218347Y-88042810D01*
X156218347Y-87820759D01*
X156752229Y-87286878D01*
X157021538Y-87466825D01*
X157364276Y-87535000D01*
X157595724Y-87535000D01*
X157938462Y-87466825D01*
X158327127Y-87207127D01*
X158586825Y-86818462D01*
X158678019Y-86360000D01*
X171521981Y-86360000D01*
X171613175Y-86818462D01*
X171872873Y-87207127D01*
X172261538Y-87466825D01*
X172604276Y-87535000D01*
X172835724Y-87535000D01*
X173027040Y-87496945D01*
X172798985Y-87725000D01*
X172604276Y-87725000D01*
X172261538Y-87793175D01*
X171872873Y-88052873D01*
X171613175Y-88441538D01*
X171521981Y-88900000D01*
X171613175Y-89358462D01*
X171872873Y-89747127D01*
X172261538Y-90006825D01*
X172604276Y-90075000D01*
X172835724Y-90075000D01*
X173178462Y-90006825D01*
X173567127Y-89747127D01*
X173826825Y-89358462D01*
X173918019Y-88900000D01*
X173901095Y-88814920D01*
X174049737Y-88666278D01*
X175355000Y-88666278D01*
X175355000Y-89133722D01*
X175533883Y-89565584D01*
X175864416Y-89896117D01*
X176296278Y-90075000D01*
X176763722Y-90075000D01*
X177195584Y-89896117D01*
X177526117Y-89565584D01*
X177705000Y-89133722D01*
X177705000Y-88900000D01*
X182951981Y-88900000D01*
X183043175Y-89358462D01*
X183302873Y-89747127D01*
X183691538Y-90006825D01*
X184034276Y-90075000D01*
X184265724Y-90075000D01*
X184608462Y-90006825D01*
X184997127Y-89747127D01*
X185256825Y-89358462D01*
X185348019Y-88900000D01*
X186711001Y-88900000D01*
X186806075Y-89377971D01*
X187076824Y-89783176D01*
X187482029Y-90053925D01*
X187839348Y-90125000D01*
X188080652Y-90125000D01*
X188437971Y-90053925D01*
X188843176Y-89783176D01*
X189113925Y-89377971D01*
X189208999Y-88900000D01*
X189113925Y-88422029D01*
X188843176Y-88016824D01*
X188437971Y-87746075D01*
X188080652Y-87675000D01*
X187839348Y-87675000D01*
X187482029Y-87746075D01*
X187076824Y-88016824D01*
X186806075Y-88422029D01*
X186711001Y-88900000D01*
X185348019Y-88900000D01*
X185256825Y-88441538D01*
X184997127Y-88052873D01*
X184608462Y-87793175D01*
X184265724Y-87725000D01*
X184034276Y-87725000D01*
X183691538Y-87793175D01*
X183302873Y-88052873D01*
X183043175Y-88441538D01*
X182951981Y-88900000D01*
X177705000Y-88900000D01*
X177705000Y-88666278D01*
X177526117Y-88234416D01*
X177195584Y-87903883D01*
X176763722Y-87725000D01*
X176296278Y-87725000D01*
X175864416Y-87903883D01*
X175533883Y-88234416D01*
X175355000Y-88666278D01*
X174049737Y-88666278D01*
X176115981Y-86600035D01*
X176115983Y-86600032D01*
X176451015Y-86265000D01*
X176763722Y-86265000D01*
X177195584Y-86086117D01*
X177526117Y-85755584D01*
X177705000Y-85323722D01*
X177705000Y-84856278D01*
X177526117Y-84424416D01*
X177195584Y-84093883D01*
X176763722Y-83915000D01*
X176296278Y-83915000D01*
X175864416Y-84093883D01*
X175533883Y-84424416D01*
X175355000Y-84856278D01*
X175355000Y-85168985D01*
X175019968Y-85504017D01*
X175019965Y-85504019D01*
X173856945Y-86667040D01*
X173918019Y-86360000D01*
X173826825Y-85901538D01*
X173567127Y-85512873D01*
X173178462Y-85253175D01*
X172835724Y-85185000D01*
X172604276Y-85185000D01*
X172261538Y-85253175D01*
X171872873Y-85512873D01*
X171613175Y-85901538D01*
X171521981Y-86360000D01*
X158678019Y-86360000D01*
X158586825Y-85901538D01*
X158327127Y-85512873D01*
X157938462Y-85253175D01*
X157595724Y-85185000D01*
X157364276Y-85185000D01*
X157021538Y-85253175D01*
X156632873Y-85512873D01*
X156373175Y-85901538D01*
X156286224Y-86338669D01*
X155511241Y-87113653D01*
X155289190Y-87113653D01*
X155140939Y-87175061D01*
X155202347Y-87026810D01*
X155202347Y-86804759D01*
X157070536Y-84936571D01*
X157364276Y-84995000D01*
X157595724Y-84995000D01*
X157938462Y-84926825D01*
X158327127Y-84667127D01*
X158586825Y-84278462D01*
X158678019Y-83820000D01*
X171521981Y-83820000D01*
X171613175Y-84278462D01*
X171872873Y-84667127D01*
X172261538Y-84926825D01*
X172604276Y-84995000D01*
X172835724Y-84995000D01*
X173178462Y-84926825D01*
X173567127Y-84667127D01*
X173826825Y-84278462D01*
X173918019Y-83820000D01*
X173826825Y-83361538D01*
X173690721Y-83157843D01*
X179565000Y-83157843D01*
X179565000Y-83466157D01*
X179682987Y-83751002D01*
X179900998Y-83969013D01*
X180185843Y-84087000D01*
X180494157Y-84087000D01*
X180779002Y-83969013D01*
X180848000Y-83900015D01*
X180916998Y-83969013D01*
X181201843Y-84087000D01*
X181510157Y-84087000D01*
X181618001Y-84042329D01*
X181618001Y-84278754D01*
X181608205Y-84328000D01*
X181640036Y-84488019D01*
X181647012Y-84523090D01*
X181757521Y-84688480D01*
X181799268Y-84716374D01*
X182359000Y-85276107D01*
X182359000Y-85498157D01*
X182476987Y-85783002D01*
X182694998Y-86001013D01*
X182979843Y-86119000D01*
X183288157Y-86119000D01*
X183573002Y-86001013D01*
X183665662Y-85908353D01*
X183692866Y-85935557D01*
X183977711Y-86053544D01*
X184286025Y-86053544D01*
X184570870Y-85935557D01*
X184788881Y-85717546D01*
X184906868Y-85432701D01*
X184906868Y-85124387D01*
X184788881Y-84839542D01*
X184570870Y-84621531D01*
X184286025Y-84503544D01*
X184063975Y-84503544D01*
X183634000Y-84073570D01*
X183634000Y-83892015D01*
X183710998Y-83969013D01*
X183995843Y-84087000D01*
X184304157Y-84087000D01*
X184547991Y-83986000D01*
X186727654Y-83986000D01*
X186727654Y-85686000D01*
X186756758Y-85832317D01*
X186839641Y-85956359D01*
X186963683Y-86039242D01*
X187110000Y-86068346D01*
X188810000Y-86068346D01*
X188956317Y-86039242D01*
X189080359Y-85956359D01*
X189163242Y-85832317D01*
X189192346Y-85686000D01*
X189192346Y-83986000D01*
X189163242Y-83839683D01*
X189080359Y-83715641D01*
X188956317Y-83632758D01*
X188810000Y-83603654D01*
X187110000Y-83603654D01*
X186963683Y-83632758D01*
X186839641Y-83715641D01*
X186756758Y-83839683D01*
X186727654Y-83986000D01*
X184547991Y-83986000D01*
X184589002Y-83969013D01*
X184807013Y-83751002D01*
X184925000Y-83466157D01*
X184925000Y-83157843D01*
X184807013Y-82872998D01*
X184650000Y-82715985D01*
X184650000Y-82296000D01*
X186711001Y-82296000D01*
X186806075Y-82773971D01*
X187076824Y-83179176D01*
X187482029Y-83449925D01*
X187839348Y-83521000D01*
X188080652Y-83521000D01*
X188437971Y-83449925D01*
X188843176Y-83179176D01*
X189113925Y-82773971D01*
X189208999Y-82296000D01*
X189113925Y-81818029D01*
X188843176Y-81412824D01*
X188437971Y-81142075D01*
X188080652Y-81071000D01*
X187839348Y-81071000D01*
X187482029Y-81142075D01*
X187076824Y-81412824D01*
X186806075Y-81818029D01*
X186711001Y-82296000D01*
X184650000Y-82296000D01*
X184650000Y-81876015D01*
X184807013Y-81719002D01*
X184925000Y-81434157D01*
X184925000Y-81125843D01*
X184807013Y-80840998D01*
X184589002Y-80622987D01*
X184304157Y-80505000D01*
X183995843Y-80505000D01*
X183710998Y-80622987D01*
X183642000Y-80691985D01*
X183573002Y-80622987D01*
X183288157Y-80505000D01*
X182979843Y-80505000D01*
X182694998Y-80622987D01*
X182626000Y-80691985D01*
X182557002Y-80622987D01*
X182272157Y-80505000D01*
X181963843Y-80505000D01*
X181678998Y-80622987D01*
X181610000Y-80691985D01*
X181541002Y-80622987D01*
X181256157Y-80505000D01*
X180947843Y-80505000D01*
X180840000Y-80549670D01*
X180840000Y-80217106D01*
X181301106Y-79756000D01*
X186711001Y-79756000D01*
X186806075Y-80233971D01*
X187076824Y-80639176D01*
X187482029Y-80909925D01*
X187839348Y-80981000D01*
X188080652Y-80981000D01*
X188437971Y-80909925D01*
X188843176Y-80639176D01*
X189113925Y-80233971D01*
X189208999Y-79756000D01*
X189113925Y-79278029D01*
X188843176Y-78872824D01*
X188437971Y-78602075D01*
X188080652Y-78531000D01*
X187839348Y-78531000D01*
X187482029Y-78602075D01*
X187076824Y-78872824D01*
X186806075Y-79278029D01*
X186711001Y-79756000D01*
X181301106Y-79756000D01*
X183674761Y-77382346D01*
X184950000Y-77382346D01*
X185096317Y-77353242D01*
X185220359Y-77270359D01*
X185256680Y-77216000D01*
X186711001Y-77216000D01*
X186806075Y-77693971D01*
X187076824Y-78099176D01*
X187482029Y-78369925D01*
X187839348Y-78441000D01*
X188080652Y-78441000D01*
X188437971Y-78369925D01*
X188843176Y-78099176D01*
X189113925Y-77693971D01*
X189208999Y-77216000D01*
X189113925Y-76738029D01*
X188843176Y-76332824D01*
X188437971Y-76062075D01*
X188080652Y-75991000D01*
X187839348Y-75991000D01*
X187482029Y-76062075D01*
X187076824Y-76332824D01*
X186806075Y-76738029D01*
X186711001Y-77216000D01*
X185256680Y-77216000D01*
X185303242Y-77146317D01*
X185332346Y-77000000D01*
X185332346Y-75400000D01*
X185303242Y-75253683D01*
X185220359Y-75129641D01*
X185096317Y-75046758D01*
X184950000Y-75017654D01*
X183350000Y-75017654D01*
X183203683Y-75046758D01*
X183079641Y-75129641D01*
X182996758Y-75253683D01*
X182967654Y-75400000D01*
X182967654Y-76675239D01*
X180021271Y-79621623D01*
X179979520Y-79649520D01*
X179869011Y-79814911D01*
X179853294Y-79893925D01*
X179830205Y-80010000D01*
X179840000Y-80059241D01*
X179840001Y-82697068D01*
X179840000Y-82697073D01*
X179840000Y-82715985D01*
X179682987Y-82872998D01*
X179565000Y-83157843D01*
X173690721Y-83157843D01*
X173567127Y-82972873D01*
X173178462Y-82713175D01*
X172835724Y-82645000D01*
X172604276Y-82645000D01*
X172261538Y-82713175D01*
X171872873Y-82972873D01*
X171613175Y-83361538D01*
X171521981Y-83820000D01*
X158678019Y-83820000D01*
X158586825Y-83361538D01*
X158327127Y-82972873D01*
X157938462Y-82713175D01*
X157595724Y-82645000D01*
X157364276Y-82645000D01*
X157021538Y-82713175D01*
X156980533Y-82740573D01*
X157282394Y-82438713D01*
X157364276Y-82455000D01*
X157595724Y-82455000D01*
X157938462Y-82386825D01*
X158327127Y-82127127D01*
X158586825Y-81738462D01*
X158678019Y-81280000D01*
X171521981Y-81280000D01*
X171613175Y-81738462D01*
X171872873Y-82127127D01*
X172261538Y-82386825D01*
X172604276Y-82455000D01*
X172835724Y-82455000D01*
X173178462Y-82386825D01*
X173567127Y-82127127D01*
X173826825Y-81738462D01*
X173918019Y-81280000D01*
X173826825Y-80821538D01*
X173567127Y-80432873D01*
X173178462Y-80173175D01*
X172835724Y-80105000D01*
X172604276Y-80105000D01*
X172261538Y-80173175D01*
X171872873Y-80432873D01*
X171613175Y-80821538D01*
X171521981Y-81280000D01*
X158678019Y-81280000D01*
X158586825Y-80821538D01*
X158327127Y-80432873D01*
X157938462Y-80173175D01*
X157595724Y-80105000D01*
X157364276Y-80105000D01*
X157021538Y-80173175D01*
X156632873Y-80432873D01*
X156373175Y-80821538D01*
X156281981Y-81280000D01*
X156373175Y-81738462D01*
X156451384Y-81855509D01*
X156202000Y-82104893D01*
X156202000Y-80725106D01*
X157070535Y-79856571D01*
X157364276Y-79915000D01*
X157595724Y-79915000D01*
X157938462Y-79846825D01*
X158327127Y-79587127D01*
X158586825Y-79198462D01*
X158678019Y-78740000D01*
X171521981Y-78740000D01*
X171613175Y-79198462D01*
X171872873Y-79587127D01*
X172261538Y-79846825D01*
X172604276Y-79915000D01*
X172835724Y-79915000D01*
X173178462Y-79846825D01*
X173284042Y-79776278D01*
X175355000Y-79776278D01*
X175355000Y-80243722D01*
X175533883Y-80675584D01*
X175864416Y-81006117D01*
X176296278Y-81185000D01*
X176763722Y-81185000D01*
X177195584Y-81006117D01*
X177526117Y-80675584D01*
X177705000Y-80243722D01*
X177705000Y-79776278D01*
X177526117Y-79344416D01*
X177195584Y-79013883D01*
X176763722Y-78835000D01*
X176296278Y-78835000D01*
X175864416Y-79013883D01*
X175533883Y-79344416D01*
X175355000Y-79776278D01*
X173284042Y-79776278D01*
X173567127Y-79587127D01*
X173826825Y-79198462D01*
X173918019Y-78740000D01*
X173826825Y-78281538D01*
X173567127Y-77892873D01*
X173178462Y-77633175D01*
X172835724Y-77565000D01*
X172604276Y-77565000D01*
X172261538Y-77633175D01*
X171872873Y-77892873D01*
X171613175Y-78281538D01*
X171521981Y-78740000D01*
X158678019Y-78740000D01*
X158586825Y-78281538D01*
X158327127Y-77892873D01*
X157938462Y-77633175D01*
X157595724Y-77565000D01*
X157364276Y-77565000D01*
X157021538Y-77633175D01*
X156632873Y-77892873D01*
X156373175Y-78281538D01*
X156281981Y-78740000D01*
X156363429Y-79149465D01*
X155694000Y-79818894D01*
X155694000Y-78693106D01*
X157070535Y-77316571D01*
X157364276Y-77375000D01*
X157595724Y-77375000D01*
X157938462Y-77306825D01*
X158327127Y-77047127D01*
X158586825Y-76658462D01*
X158678019Y-76200000D01*
X171521981Y-76200000D01*
X171613175Y-76658462D01*
X171872873Y-77047127D01*
X172261538Y-77306825D01*
X172604276Y-77375000D01*
X172835724Y-77375000D01*
X173178462Y-77306825D01*
X173567127Y-77047127D01*
X173826825Y-76658462D01*
X173918019Y-76200000D01*
X175331981Y-76200000D01*
X175423175Y-76658462D01*
X175682873Y-77047127D01*
X176071538Y-77306825D01*
X176414276Y-77375000D01*
X176645724Y-77375000D01*
X176988462Y-77306825D01*
X177377127Y-77047127D01*
X177636825Y-76658462D01*
X177728019Y-76200000D01*
X177636825Y-75741538D01*
X177377127Y-75352873D01*
X176988462Y-75093175D01*
X176645724Y-75025000D01*
X176414276Y-75025000D01*
X176071538Y-75093175D01*
X175682873Y-75352873D01*
X175423175Y-75741538D01*
X175331981Y-76200000D01*
X173918019Y-76200000D01*
X173826825Y-75741538D01*
X173567127Y-75352873D01*
X173178462Y-75093175D01*
X172835724Y-75025000D01*
X172604276Y-75025000D01*
X172261538Y-75093175D01*
X171872873Y-75352873D01*
X171613175Y-75741538D01*
X171521981Y-76200000D01*
X158678019Y-76200000D01*
X158586825Y-75741538D01*
X158327127Y-75352873D01*
X157938462Y-75093175D01*
X157595724Y-75025000D01*
X157364276Y-75025000D01*
X157021538Y-75093175D01*
X156632873Y-75352873D01*
X156456000Y-75617582D01*
X156456000Y-75391106D01*
X157068374Y-74778733D01*
X157068376Y-74778730D01*
X157070535Y-74776571D01*
X157364276Y-74835000D01*
X157595724Y-74835000D01*
X157938462Y-74766825D01*
X158327127Y-74507127D01*
X158586825Y-74118462D01*
X158678019Y-73660000D01*
X171521981Y-73660000D01*
X171613175Y-74118462D01*
X171872873Y-74507127D01*
X172261538Y-74766825D01*
X172604276Y-74835000D01*
X172835724Y-74835000D01*
X173178462Y-74766825D01*
X173567127Y-74507127D01*
X173826825Y-74118462D01*
X173918019Y-73660000D01*
X175331981Y-73660000D01*
X175423175Y-74118462D01*
X175682873Y-74507127D01*
X176071538Y-74766825D01*
X176414276Y-74835000D01*
X176645724Y-74835000D01*
X176988462Y-74766825D01*
X177377127Y-74507127D01*
X177636825Y-74118462D01*
X177728019Y-73660000D01*
X182951981Y-73660000D01*
X183043175Y-74118462D01*
X183302873Y-74507127D01*
X183691538Y-74766825D01*
X184034276Y-74835000D01*
X184265724Y-74835000D01*
X184608462Y-74766825D01*
X184744391Y-74676000D01*
X186711001Y-74676000D01*
X186806075Y-75153971D01*
X187076824Y-75559176D01*
X187482029Y-75829925D01*
X187839348Y-75901000D01*
X188080652Y-75901000D01*
X188437971Y-75829925D01*
X188843176Y-75559176D01*
X189113925Y-75153971D01*
X189208999Y-74676000D01*
X189113925Y-74198029D01*
X188843176Y-73792824D01*
X188437971Y-73522075D01*
X188080652Y-73451000D01*
X187839348Y-73451000D01*
X187482029Y-73522075D01*
X187076824Y-73792824D01*
X186806075Y-74198029D01*
X186711001Y-74676000D01*
X184744391Y-74676000D01*
X184997127Y-74507127D01*
X185256825Y-74118462D01*
X185348019Y-73660000D01*
X185256825Y-73201538D01*
X184997127Y-72812873D01*
X184608462Y-72553175D01*
X184265724Y-72485000D01*
X184034276Y-72485000D01*
X183691538Y-72553175D01*
X183302873Y-72812873D01*
X183043175Y-73201538D01*
X182951981Y-73660000D01*
X177728019Y-73660000D01*
X177636825Y-73201538D01*
X177377127Y-72812873D01*
X176988462Y-72553175D01*
X176645724Y-72485000D01*
X176414276Y-72485000D01*
X176071538Y-72553175D01*
X175682873Y-72812873D01*
X175423175Y-73201538D01*
X175331981Y-73660000D01*
X173918019Y-73660000D01*
X173826825Y-73201538D01*
X173567127Y-72812873D01*
X173178462Y-72553175D01*
X172835724Y-72485000D01*
X172604276Y-72485000D01*
X172261538Y-72553175D01*
X171872873Y-72812873D01*
X171613175Y-73201538D01*
X171521981Y-73660000D01*
X158678019Y-73660000D01*
X158586825Y-73201538D01*
X158327127Y-72812873D01*
X157938462Y-72553175D01*
X157595724Y-72485000D01*
X157364276Y-72485000D01*
X157021538Y-72553175D01*
X156632873Y-72812873D01*
X156373175Y-73201538D01*
X156281981Y-73660000D01*
X156363429Y-74069465D01*
X156361270Y-74071624D01*
X156361267Y-74071626D01*
X155694000Y-74738894D01*
X155694000Y-73613106D01*
X157068374Y-72238733D01*
X157068376Y-72238730D01*
X157070535Y-72236571D01*
X157364276Y-72295000D01*
X157595724Y-72295000D01*
X157938462Y-72226825D01*
X158327127Y-71967127D01*
X158586825Y-71578462D01*
X158678019Y-71120000D01*
X171521981Y-71120000D01*
X171613175Y-71578462D01*
X171872873Y-71967127D01*
X172261538Y-72226825D01*
X172604276Y-72295000D01*
X172835724Y-72295000D01*
X173178462Y-72226825D01*
X173567127Y-71967127D01*
X173826825Y-71578462D01*
X173918019Y-71120000D01*
X175331981Y-71120000D01*
X175423175Y-71578462D01*
X175682873Y-71967127D01*
X176071538Y-72226825D01*
X176414276Y-72295000D01*
X176645724Y-72295000D01*
X176988462Y-72226825D01*
X177377127Y-71967127D01*
X177636825Y-71578462D01*
X177657635Y-71473843D01*
X178041000Y-71473843D01*
X178041000Y-71782157D01*
X178158987Y-72067002D01*
X178376998Y-72285013D01*
X178661843Y-72403000D01*
X178970157Y-72403000D01*
X179255002Y-72285013D01*
X179412015Y-72128000D01*
X179743985Y-72128000D01*
X179900998Y-72285013D01*
X180185843Y-72403000D01*
X180494157Y-72403000D01*
X180779002Y-72285013D01*
X180997013Y-72067002D01*
X181115000Y-71782157D01*
X181115000Y-71473843D01*
X180997013Y-71188998D01*
X180928015Y-71120000D01*
X182951981Y-71120000D01*
X183043175Y-71578462D01*
X183302873Y-71967127D01*
X183691538Y-72226825D01*
X184034276Y-72295000D01*
X184265724Y-72295000D01*
X184608462Y-72226825D01*
X184744391Y-72136000D01*
X186711001Y-72136000D01*
X186806075Y-72613971D01*
X187076824Y-73019176D01*
X187482029Y-73289925D01*
X187839348Y-73361000D01*
X188080652Y-73361000D01*
X188437971Y-73289925D01*
X188843176Y-73019176D01*
X189113925Y-72613971D01*
X189208999Y-72136000D01*
X189113925Y-71658029D01*
X188843176Y-71252824D01*
X188437971Y-70982075D01*
X188080652Y-70911000D01*
X187839348Y-70911000D01*
X187482029Y-70982075D01*
X187076824Y-71252824D01*
X186806075Y-71658029D01*
X186711001Y-72136000D01*
X184744391Y-72136000D01*
X184997127Y-71967127D01*
X185256825Y-71578462D01*
X185348019Y-71120000D01*
X185256825Y-70661538D01*
X184997127Y-70272873D01*
X184608462Y-70013175D01*
X184265724Y-69945000D01*
X184034276Y-69945000D01*
X183691538Y-70013175D01*
X183302873Y-70272873D01*
X183043175Y-70661538D01*
X182951981Y-71120000D01*
X180928015Y-71120000D01*
X180779002Y-70970987D01*
X180494157Y-70853000D01*
X180185843Y-70853000D01*
X179900998Y-70970987D01*
X179743985Y-71128000D01*
X179412015Y-71128000D01*
X179255002Y-70970987D01*
X178970157Y-70853000D01*
X178661843Y-70853000D01*
X178376998Y-70970987D01*
X178158987Y-71188998D01*
X178041000Y-71473843D01*
X177657635Y-71473843D01*
X177728019Y-71120000D01*
X177636825Y-70661538D01*
X177377127Y-70272873D01*
X176988462Y-70013175D01*
X176645724Y-69945000D01*
X176414276Y-69945000D01*
X176071538Y-70013175D01*
X175682873Y-70272873D01*
X175423175Y-70661538D01*
X175331981Y-71120000D01*
X173918019Y-71120000D01*
X173826825Y-70661538D01*
X173567127Y-70272873D01*
X173178462Y-70013175D01*
X172835724Y-69945000D01*
X172604276Y-69945000D01*
X172261538Y-70013175D01*
X171872873Y-70272873D01*
X171613175Y-70661538D01*
X171521981Y-71120000D01*
X158678019Y-71120000D01*
X158586825Y-70661538D01*
X158327127Y-70272873D01*
X157938462Y-70013175D01*
X157595724Y-69945000D01*
X157364276Y-69945000D01*
X157021538Y-70013175D01*
X156632873Y-70272873D01*
X156456000Y-70537582D01*
X156456000Y-70311106D01*
X157068374Y-69698733D01*
X157068376Y-69698730D01*
X157070535Y-69696571D01*
X157364276Y-69755000D01*
X157595724Y-69755000D01*
X157938462Y-69686825D01*
X158327127Y-69427127D01*
X158586825Y-69038462D01*
X158678019Y-68580000D01*
X171521981Y-68580000D01*
X171613175Y-69038462D01*
X171872873Y-69427127D01*
X172261538Y-69686825D01*
X172604276Y-69755000D01*
X172835724Y-69755000D01*
X173178462Y-69686825D01*
X173567127Y-69427127D01*
X173826825Y-69038462D01*
X173918019Y-68580000D01*
X175331981Y-68580000D01*
X175423175Y-69038462D01*
X175682873Y-69427127D01*
X176071538Y-69686825D01*
X176414276Y-69755000D01*
X176645724Y-69755000D01*
X176988462Y-69686825D01*
X177377127Y-69427127D01*
X177636825Y-69038462D01*
X177728019Y-68580000D01*
X177636825Y-68121538D01*
X177377127Y-67732873D01*
X176988462Y-67473175D01*
X176645724Y-67405000D01*
X176414276Y-67405000D01*
X176071538Y-67473175D01*
X175682873Y-67732873D01*
X175423175Y-68121538D01*
X175331981Y-68580000D01*
X173918019Y-68580000D01*
X173826825Y-68121538D01*
X173567127Y-67732873D01*
X173178462Y-67473175D01*
X172835724Y-67405000D01*
X172604276Y-67405000D01*
X172261538Y-67473175D01*
X171872873Y-67732873D01*
X171613175Y-68121538D01*
X171521981Y-68580000D01*
X158678019Y-68580000D01*
X158586825Y-68121538D01*
X158378662Y-67810000D01*
X158446759Y-67810000D01*
X158496000Y-67819795D01*
X158545241Y-67810000D01*
X158545243Y-67810000D01*
X158691090Y-67780989D01*
X158856480Y-67670480D01*
X158884376Y-67628730D01*
X159444107Y-67069000D01*
X159666157Y-67069000D01*
X159951002Y-66951013D01*
X160169013Y-66733002D01*
X160287000Y-66448157D01*
X160287000Y-66139843D01*
X160245644Y-66040000D01*
X171521981Y-66040000D01*
X171613175Y-66498462D01*
X171872873Y-66887127D01*
X172261538Y-67146825D01*
X172604276Y-67215000D01*
X172835724Y-67215000D01*
X173178462Y-67146825D01*
X173567127Y-66887127D01*
X173826825Y-66498462D01*
X173918019Y-66040000D01*
X175331981Y-66040000D01*
X175423175Y-66498462D01*
X175682873Y-66887127D01*
X176071538Y-67146825D01*
X176414276Y-67215000D01*
X176645724Y-67215000D01*
X176988462Y-67146825D01*
X177377127Y-66887127D01*
X177636825Y-66498462D01*
X177728019Y-66040000D01*
X177636825Y-65581538D01*
X177377127Y-65192873D01*
X176988462Y-64933175D01*
X176645724Y-64865000D01*
X176414276Y-64865000D01*
X176071538Y-64933175D01*
X175682873Y-65192873D01*
X175423175Y-65581538D01*
X175331981Y-66040000D01*
X173918019Y-66040000D01*
X173826825Y-65581538D01*
X173567127Y-65192873D01*
X173178462Y-64933175D01*
X172835724Y-64865000D01*
X172604276Y-64865000D01*
X172261538Y-64933175D01*
X171872873Y-65192873D01*
X171613175Y-65581538D01*
X171521981Y-66040000D01*
X160245644Y-66040000D01*
X160169013Y-65854998D01*
X159951002Y-65636987D01*
X159666157Y-65519000D01*
X159357843Y-65519000D01*
X159072998Y-65636987D01*
X158854987Y-65854998D01*
X158737000Y-66139843D01*
X158737000Y-66361893D01*
X158559426Y-66539468D01*
X158586825Y-66498462D01*
X158678019Y-66040000D01*
X158586825Y-65581538D01*
X158327127Y-65192873D01*
X157938462Y-64933175D01*
X157595724Y-64865000D01*
X157364276Y-64865000D01*
X157021538Y-64933175D01*
X156632873Y-65192873D01*
X156373175Y-65581538D01*
X156281981Y-66040000D01*
X156373175Y-66498462D01*
X156581338Y-66810000D01*
X156513246Y-66810000D01*
X156464000Y-66800204D01*
X156304834Y-66831865D01*
X156268910Y-66839011D01*
X156103520Y-66949520D01*
X156075623Y-66991271D01*
X156000270Y-67066624D01*
X156000267Y-67066626D01*
X154621268Y-68445626D01*
X154579521Y-68473520D01*
X154551627Y-68515267D01*
X154469012Y-68638910D01*
X154430205Y-68834000D01*
X154440001Y-68883246D01*
X154440000Y-70912893D01*
X152809465Y-72543429D01*
X152515724Y-72485000D01*
X152284276Y-72485000D01*
X151941538Y-72553175D01*
X151552873Y-72812873D01*
X151293175Y-73201538D01*
X151201981Y-73660000D01*
X151293175Y-74118462D01*
X151552873Y-74507127D01*
X151941538Y-74766825D01*
X152284276Y-74835000D01*
X152515724Y-74835000D01*
X152858462Y-74766825D01*
X153247127Y-74507127D01*
X153506825Y-74118462D01*
X153598019Y-73660000D01*
X153516571Y-73250535D01*
X155258733Y-71508374D01*
X155300480Y-71480480D01*
X155410989Y-71315090D01*
X155440000Y-71169243D01*
X155440000Y-71169242D01*
X155449795Y-71120001D01*
X155440000Y-71070760D01*
X155440000Y-69041106D01*
X156400574Y-68080533D01*
X156373175Y-68121538D01*
X156281981Y-68580000D01*
X156363429Y-68989465D01*
X156361270Y-68991624D01*
X156361267Y-68991626D01*
X155637268Y-69715626D01*
X155595521Y-69743520D01*
X155567627Y-69785267D01*
X155485012Y-69908910D01*
X155446205Y-70104000D01*
X155456001Y-70153246D01*
X155456000Y-71420893D01*
X154113268Y-72763626D01*
X154071521Y-72791520D01*
X154043627Y-72833267D01*
X153961012Y-72956910D01*
X153922205Y-73152000D01*
X153932001Y-73201246D01*
X153932000Y-76500893D01*
X152809465Y-77623429D01*
X152515724Y-77565000D01*
X152284276Y-77565000D01*
X151941538Y-77633175D01*
X151552873Y-77892873D01*
X151293175Y-78281538D01*
X151201981Y-78740000D01*
X151293175Y-79198462D01*
X151552873Y-79587127D01*
X151941538Y-79846825D01*
X152284276Y-79915000D01*
X152515724Y-79915000D01*
X152858462Y-79846825D01*
X153247127Y-79587127D01*
X153506825Y-79198462D01*
X153598019Y-78740000D01*
X153516571Y-78330535D01*
X153620012Y-78227095D01*
X153620011Y-79352882D01*
X152809465Y-80163429D01*
X152515724Y-80105000D01*
X152284276Y-80105000D01*
X151941538Y-80173175D01*
X151552873Y-80432873D01*
X151293175Y-80821538D01*
X151201981Y-81280000D01*
X151293175Y-81738462D01*
X151501338Y-82050000D01*
X150417240Y-82050000D01*
X150367999Y-82040205D01*
X150318758Y-82050000D01*
X150318757Y-82050000D01*
X150172910Y-82079011D01*
X150007520Y-82189520D01*
X149979626Y-82231267D01*
X149165894Y-83045000D01*
X148943843Y-83045000D01*
X148658998Y-83162987D01*
X148440987Y-83380998D01*
X148323000Y-83665843D01*
X145947356Y-83665843D01*
X145886825Y-83361538D01*
X145627127Y-82972873D01*
X145238462Y-82713175D01*
X144895724Y-82645000D01*
X144664276Y-82645000D01*
X144321538Y-82713175D01*
X143932873Y-82972873D01*
X143673175Y-83361538D01*
X143581981Y-83820000D01*
X137610000Y-83820000D01*
X137610000Y-81280000D01*
X138451001Y-81280000D01*
X138546075Y-81757971D01*
X138816824Y-82163176D01*
X139222029Y-82433925D01*
X139579348Y-82505000D01*
X139820652Y-82505000D01*
X140177971Y-82433925D01*
X140583176Y-82163176D01*
X140853925Y-81757971D01*
X140948999Y-81280000D01*
X143581981Y-81280000D01*
X143673175Y-81738462D01*
X143932873Y-82127127D01*
X144321538Y-82386825D01*
X144664276Y-82455000D01*
X144895724Y-82455000D01*
X145238462Y-82386825D01*
X145627127Y-82127127D01*
X145886825Y-81738462D01*
X145978019Y-81280000D01*
X145886825Y-80821538D01*
X145627127Y-80432873D01*
X145238462Y-80173175D01*
X144895724Y-80105000D01*
X144664276Y-80105000D01*
X144321538Y-80173175D01*
X143932873Y-80432873D01*
X143673175Y-80821538D01*
X143581981Y-81280000D01*
X140948999Y-81280000D01*
X140853925Y-80802029D01*
X140583176Y-80396824D01*
X140177971Y-80126075D01*
X139820652Y-80055000D01*
X139579348Y-80055000D01*
X139222029Y-80126075D01*
X138816824Y-80396824D01*
X138546075Y-80802029D01*
X138451001Y-81280000D01*
X137610000Y-81280000D01*
X137610000Y-78740000D01*
X138451001Y-78740000D01*
X138546075Y-79217971D01*
X138816824Y-79623176D01*
X139222029Y-79893925D01*
X139579348Y-79965000D01*
X139820652Y-79965000D01*
X140177971Y-79893925D01*
X140583176Y-79623176D01*
X140853925Y-79217971D01*
X140948999Y-78740000D01*
X140853925Y-78262029D01*
X140583176Y-77856824D01*
X140177971Y-77586075D01*
X139820652Y-77515000D01*
X139579348Y-77515000D01*
X139222029Y-77586075D01*
X138816824Y-77856824D01*
X138546075Y-78262029D01*
X138451001Y-78740000D01*
X137610000Y-78740000D01*
X137610000Y-76200000D01*
X138451001Y-76200000D01*
X138546075Y-76677971D01*
X138816824Y-77083176D01*
X139222029Y-77353925D01*
X139579348Y-77425000D01*
X139820652Y-77425000D01*
X140151987Y-77359093D01*
X141740000Y-78947107D01*
X141740001Y-79649068D01*
X141740000Y-79649073D01*
X141740000Y-79667985D01*
X141582987Y-79824998D01*
X141465000Y-80109843D01*
X141465000Y-80418157D01*
X141582987Y-80703002D01*
X141800998Y-80921013D01*
X142085843Y-81039000D01*
X142394157Y-81039000D01*
X142679002Y-80921013D01*
X142897013Y-80703002D01*
X143015000Y-80418157D01*
X143015000Y-80109843D01*
X142897013Y-79824998D01*
X142740000Y-79667985D01*
X142740000Y-78789240D01*
X142749794Y-78740000D01*
X143581981Y-78740000D01*
X143673175Y-79198462D01*
X143932873Y-79587127D01*
X144321538Y-79846825D01*
X144664276Y-79915000D01*
X144895724Y-79915000D01*
X145238462Y-79846825D01*
X145627127Y-79587127D01*
X145886825Y-79198462D01*
X145978019Y-78740000D01*
X145886825Y-78281538D01*
X145627127Y-77892873D01*
X145238462Y-77633175D01*
X144895724Y-77565000D01*
X144664276Y-77565000D01*
X144321538Y-77633175D01*
X143932873Y-77892873D01*
X143673175Y-78281538D01*
X143581981Y-78740000D01*
X142749794Y-78740000D01*
X142749795Y-78739999D01*
X142738077Y-78681090D01*
X142710989Y-78544910D01*
X142600480Y-78379520D01*
X142558733Y-78351626D01*
X140859093Y-76651987D01*
X140948999Y-76200000D01*
X143581981Y-76200000D01*
X143673175Y-76658462D01*
X143932873Y-77047127D01*
X144321538Y-77306825D01*
X144664276Y-77375000D01*
X144895724Y-77375000D01*
X145238462Y-77306825D01*
X145627127Y-77047127D01*
X145886825Y-76658462D01*
X145978019Y-76200000D01*
X151201981Y-76200000D01*
X151293175Y-76658462D01*
X151552873Y-77047127D01*
X151941538Y-77306825D01*
X152284276Y-77375000D01*
X152515724Y-77375000D01*
X152858462Y-77306825D01*
X153247127Y-77047127D01*
X153506825Y-76658462D01*
X153598019Y-76200000D01*
X153506825Y-75741538D01*
X153247127Y-75352873D01*
X152858462Y-75093175D01*
X152515724Y-75025000D01*
X152284276Y-75025000D01*
X151941538Y-75093175D01*
X151552873Y-75352873D01*
X151293175Y-75741538D01*
X151201981Y-76200000D01*
X145978019Y-76200000D01*
X145886825Y-75741538D01*
X145627127Y-75352873D01*
X145238462Y-75093175D01*
X144895724Y-75025000D01*
X144664276Y-75025000D01*
X144321538Y-75093175D01*
X143932873Y-75352873D01*
X143673175Y-75741538D01*
X143581981Y-76200000D01*
X140948999Y-76200000D01*
X140853925Y-75722029D01*
X140583176Y-75316824D01*
X140177971Y-75046075D01*
X139820652Y-74975000D01*
X139579348Y-74975000D01*
X139222029Y-75046075D01*
X138816824Y-75316824D01*
X138546075Y-75722029D01*
X138451001Y-76200000D01*
X137610000Y-76200000D01*
X137610000Y-73660000D01*
X138451001Y-73660000D01*
X138546075Y-74137971D01*
X138816824Y-74543176D01*
X139222029Y-74813925D01*
X139579348Y-74885000D01*
X139820652Y-74885000D01*
X140177971Y-74813925D01*
X140583176Y-74543176D01*
X140853925Y-74137971D01*
X140948999Y-73660000D01*
X143581981Y-73660000D01*
X143673175Y-74118462D01*
X143932873Y-74507127D01*
X144321538Y-74766825D01*
X144664276Y-74835000D01*
X144895724Y-74835000D01*
X145238462Y-74766825D01*
X145627127Y-74507127D01*
X145886825Y-74118462D01*
X145978019Y-73660000D01*
X145886825Y-73201538D01*
X145627127Y-72812873D01*
X145238462Y-72553175D01*
X144895724Y-72485000D01*
X144664276Y-72485000D01*
X144321538Y-72553175D01*
X143932873Y-72812873D01*
X143673175Y-73201538D01*
X143581981Y-73660000D01*
X140948999Y-73660000D01*
X140853925Y-73182029D01*
X140583176Y-72776824D01*
X140177971Y-72506075D01*
X139820652Y-72435000D01*
X139579348Y-72435000D01*
X139222029Y-72506075D01*
X138816824Y-72776824D01*
X138546075Y-73182029D01*
X138451001Y-73660000D01*
X137610000Y-73660000D01*
X137610000Y-70270000D01*
X138467654Y-70270000D01*
X138467654Y-71970000D01*
X138496758Y-72116317D01*
X138579641Y-72240359D01*
X138703683Y-72323242D01*
X138850000Y-72352346D01*
X140550000Y-72352346D01*
X140696317Y-72323242D01*
X140820359Y-72240359D01*
X140903242Y-72116317D01*
X140932346Y-71970000D01*
X140932346Y-71120000D01*
X143581981Y-71120000D01*
X143673175Y-71578462D01*
X143932873Y-71967127D01*
X144321538Y-72226825D01*
X144664276Y-72295000D01*
X144895724Y-72295000D01*
X145238462Y-72226825D01*
X145627127Y-71967127D01*
X145886825Y-71578462D01*
X145978019Y-71120000D01*
X151201981Y-71120000D01*
X151293175Y-71578462D01*
X151552873Y-71967127D01*
X151941538Y-72226825D01*
X152284276Y-72295000D01*
X152515724Y-72295000D01*
X152858462Y-72226825D01*
X153247127Y-71967127D01*
X153506825Y-71578462D01*
X153598019Y-71120000D01*
X153506825Y-70661538D01*
X153247127Y-70272873D01*
X152858462Y-70013175D01*
X152515724Y-69945000D01*
X152284276Y-69945000D01*
X151941538Y-70013175D01*
X151552873Y-70272873D01*
X151293175Y-70661538D01*
X151201981Y-71120000D01*
X145978019Y-71120000D01*
X145886825Y-70661538D01*
X145627127Y-70272873D01*
X145238462Y-70013175D01*
X144895724Y-69945000D01*
X144664276Y-69945000D01*
X144321538Y-70013175D01*
X143932873Y-70272873D01*
X143673175Y-70661538D01*
X143581981Y-71120000D01*
X140932346Y-71120000D01*
X140932346Y-70270000D01*
X140903242Y-70123683D01*
X140820359Y-69999641D01*
X140696317Y-69916758D01*
X140550000Y-69887654D01*
X138850000Y-69887654D01*
X138703683Y-69916758D01*
X138579641Y-69999641D01*
X138496758Y-70123683D01*
X138467654Y-70270000D01*
X137610000Y-70270000D01*
X137610000Y-68580000D01*
X143581981Y-68580000D01*
X143673175Y-69038462D01*
X143932873Y-69427127D01*
X144321538Y-69686825D01*
X144664276Y-69755000D01*
X144895724Y-69755000D01*
X145238462Y-69686825D01*
X145627127Y-69427127D01*
X145886825Y-69038462D01*
X145978019Y-68580000D01*
X151201981Y-68580000D01*
X151293175Y-69038462D01*
X151552873Y-69427127D01*
X151941538Y-69686825D01*
X152284276Y-69755000D01*
X152515724Y-69755000D01*
X152858462Y-69686825D01*
X153247127Y-69427127D01*
X153506825Y-69038462D01*
X153598019Y-68580000D01*
X153506825Y-68121538D01*
X153247127Y-67732873D01*
X152858462Y-67473175D01*
X152515724Y-67405000D01*
X152284276Y-67405000D01*
X151941538Y-67473175D01*
X151552873Y-67732873D01*
X151293175Y-68121538D01*
X151201981Y-68580000D01*
X145978019Y-68580000D01*
X145886825Y-68121538D01*
X145627127Y-67732873D01*
X145238462Y-67473175D01*
X144895724Y-67405000D01*
X144664276Y-67405000D01*
X144321538Y-67473175D01*
X143932873Y-67732873D01*
X143673175Y-68121538D01*
X143581981Y-68580000D01*
X137610000Y-68580000D01*
X137610000Y-66040000D01*
X143581981Y-66040000D01*
X143673175Y-66498462D01*
X143932873Y-66887127D01*
X144321538Y-67146825D01*
X144664276Y-67215000D01*
X144895724Y-67215000D01*
X145238462Y-67146825D01*
X145627127Y-66887127D01*
X145886825Y-66498462D01*
X145978019Y-66040000D01*
X151201981Y-66040000D01*
X151293175Y-66498462D01*
X151552873Y-66887127D01*
X151941538Y-67146825D01*
X152284276Y-67215000D01*
X152515724Y-67215000D01*
X152858462Y-67146825D01*
X153247127Y-66887127D01*
X153506825Y-66498462D01*
X153598019Y-66040000D01*
X153506825Y-65581538D01*
X153247127Y-65192873D01*
X152858462Y-64933175D01*
X152515724Y-64865000D01*
X152284276Y-64865000D01*
X151941538Y-64933175D01*
X151552873Y-65192873D01*
X151293175Y-65581538D01*
X151201981Y-66040000D01*
X145978019Y-66040000D01*
X145886825Y-65581538D01*
X145627127Y-65192873D01*
X145238462Y-64933175D01*
X144895724Y-64865000D01*
X144664276Y-64865000D01*
X144321538Y-64933175D01*
X143932873Y-65192873D01*
X143673175Y-65581538D01*
X143581981Y-66040000D01*
X137610000Y-66040000D01*
X137610000Y-63266278D01*
X138525000Y-63266278D01*
X138525000Y-63733722D01*
X138703883Y-64165584D01*
X139034416Y-64496117D01*
X139466278Y-64675000D01*
X139933722Y-64675000D01*
X140365584Y-64496117D01*
X140696117Y-64165584D01*
X140875000Y-63733722D01*
X140875000Y-63500000D01*
X143581981Y-63500000D01*
X143673175Y-63958462D01*
X143932873Y-64347127D01*
X144321538Y-64606825D01*
X144664276Y-64675000D01*
X144895724Y-64675000D01*
X145238462Y-64606825D01*
X145627127Y-64347127D01*
X145886825Y-63958462D01*
X145978019Y-63500000D01*
X151201981Y-63500000D01*
X151293175Y-63958462D01*
X151552873Y-64347127D01*
X151941538Y-64606825D01*
X152284276Y-64675000D01*
X152515724Y-64675000D01*
X152858462Y-64606825D01*
X153247127Y-64347127D01*
X153506825Y-63958462D01*
X153598019Y-63500000D01*
X153506825Y-63041538D01*
X153247127Y-62652873D01*
X152858462Y-62393175D01*
X152515724Y-62325000D01*
X152284276Y-62325000D01*
X151941538Y-62393175D01*
X151552873Y-62652873D01*
X151293175Y-63041538D01*
X151201981Y-63500000D01*
X145978019Y-63500000D01*
X145886825Y-63041538D01*
X145627127Y-62652873D01*
X145238462Y-62393175D01*
X144895724Y-62325000D01*
X144664276Y-62325000D01*
X144321538Y-62393175D01*
X143932873Y-62652873D01*
X143673175Y-63041538D01*
X143581981Y-63500000D01*
X140875000Y-63500000D01*
X140875000Y-63266278D01*
X140696117Y-62834416D01*
X140365584Y-62503883D01*
X139933722Y-62325000D01*
X139466278Y-62325000D01*
X139034416Y-62503883D01*
X138703883Y-62834416D01*
X138525000Y-63266278D01*
X137610000Y-63266278D01*
X137610000Y-60960000D01*
X143581981Y-60960000D01*
X143673175Y-61418462D01*
X143932873Y-61807127D01*
X144321538Y-62066825D01*
X144664276Y-62135000D01*
X144895724Y-62135000D01*
X145238462Y-62066825D01*
X145627127Y-61807127D01*
X145886825Y-61418462D01*
X145978019Y-60960000D01*
X151201981Y-60960000D01*
X151293175Y-61418462D01*
X151552873Y-61807127D01*
X151941538Y-62066825D01*
X152284276Y-62135000D01*
X152515724Y-62135000D01*
X152858462Y-62066825D01*
X153247127Y-61807127D01*
X153506825Y-61418462D01*
X153598019Y-60960000D01*
X153566430Y-60801190D01*
X154414347Y-60801190D01*
X154414347Y-61109504D01*
X154532334Y-61394349D01*
X154750345Y-61612360D01*
X155035190Y-61730347D01*
X155257241Y-61730347D01*
X156075625Y-62548732D01*
X156103520Y-62590480D01*
X156196899Y-62652873D01*
X156268910Y-62700989D01*
X156464000Y-62739796D01*
X156513246Y-62730000D01*
X156581338Y-62730000D01*
X156373175Y-63041538D01*
X156281981Y-63500000D01*
X156373175Y-63958462D01*
X156632873Y-64347127D01*
X157021538Y-64606825D01*
X157364276Y-64675000D01*
X157595724Y-64675000D01*
X157938462Y-64606825D01*
X158327127Y-64347127D01*
X158586825Y-63958462D01*
X158678019Y-63500000D01*
X158586825Y-63041538D01*
X158559438Y-63000550D01*
X158990994Y-63432107D01*
X158990994Y-63654157D01*
X159108981Y-63939002D01*
X159326992Y-64157013D01*
X159611837Y-64275000D01*
X159920151Y-64275000D01*
X160204996Y-64157013D01*
X160423007Y-63939002D01*
X160540994Y-63654157D01*
X160540994Y-63500000D01*
X171521981Y-63500000D01*
X171613175Y-63958462D01*
X171872873Y-64347127D01*
X172261538Y-64606825D01*
X172604276Y-64675000D01*
X172835724Y-64675000D01*
X173178462Y-64606825D01*
X173567127Y-64347127D01*
X173826825Y-63958462D01*
X173918019Y-63500000D01*
X175331981Y-63500000D01*
X175423175Y-63958462D01*
X175682873Y-64347127D01*
X176071538Y-64606825D01*
X176414276Y-64675000D01*
X176645724Y-64675000D01*
X176988462Y-64606825D01*
X177377127Y-64347127D01*
X177636825Y-63958462D01*
X177708158Y-63599843D01*
X181343000Y-63599843D01*
X181343000Y-63908157D01*
X181460987Y-64193002D01*
X181678998Y-64411013D01*
X181872001Y-64490958D01*
X181872000Y-66752759D01*
X181862205Y-66802000D01*
X181872000Y-66851241D01*
X181872000Y-66851242D01*
X181901011Y-66997089D01*
X182011520Y-67162480D01*
X182053270Y-67190376D01*
X182105000Y-67242106D01*
X182105000Y-67464157D01*
X182222987Y-67749002D01*
X182440998Y-67967013D01*
X182725843Y-68085000D01*
X183034157Y-68085000D01*
X183080383Y-68065853D01*
X183043175Y-68121538D01*
X182951981Y-68580000D01*
X183043175Y-69038462D01*
X183302873Y-69427127D01*
X183691538Y-69686825D01*
X184034276Y-69755000D01*
X184265724Y-69755000D01*
X184608462Y-69686825D01*
X184997127Y-69427127D01*
X185256825Y-69038462D01*
X185348019Y-68580000D01*
X185256825Y-68121538D01*
X184997127Y-67732873D01*
X184608462Y-67473175D01*
X184265724Y-67405000D01*
X184034276Y-67405000D01*
X183691538Y-67473175D01*
X183635853Y-67510383D01*
X183655000Y-67464157D01*
X183655000Y-67155843D01*
X183635853Y-67109617D01*
X183691538Y-67146825D01*
X184034276Y-67215000D01*
X184265724Y-67215000D01*
X184608462Y-67146825D01*
X184744391Y-67056000D01*
X186711001Y-67056000D01*
X186806075Y-67533971D01*
X187076824Y-67939176D01*
X187482029Y-68209925D01*
X187839348Y-68281000D01*
X188080652Y-68281000D01*
X188437971Y-68209925D01*
X188843176Y-67939176D01*
X189113925Y-67533971D01*
X189208999Y-67056000D01*
X189113925Y-66578029D01*
X188843176Y-66172824D01*
X188437971Y-65902075D01*
X188080652Y-65831000D01*
X187839348Y-65831000D01*
X187482029Y-65902075D01*
X187076824Y-66172824D01*
X186806075Y-66578029D01*
X186711001Y-67056000D01*
X184744391Y-67056000D01*
X184997127Y-66887127D01*
X185256825Y-66498462D01*
X185348019Y-66040000D01*
X185256825Y-65581538D01*
X184997127Y-65192873D01*
X184608462Y-64933175D01*
X184265724Y-64865000D01*
X184034276Y-64865000D01*
X183691538Y-64933175D01*
X183302873Y-65192873D01*
X183043175Y-65581538D01*
X182951981Y-66040000D01*
X183043175Y-66498462D01*
X183080383Y-66554147D01*
X183034157Y-66535000D01*
X182872000Y-66535000D01*
X182872000Y-64057240D01*
X182881795Y-64007999D01*
X182872013Y-63958824D01*
X182893000Y-63908157D01*
X182893000Y-63599843D01*
X182851644Y-63500000D01*
X182951981Y-63500000D01*
X183043175Y-63958462D01*
X183302873Y-64347127D01*
X183691538Y-64606825D01*
X184034276Y-64675000D01*
X184265724Y-64675000D01*
X184608462Y-64606825D01*
X184744391Y-64516000D01*
X186711001Y-64516000D01*
X186806075Y-64993971D01*
X187076824Y-65399176D01*
X187482029Y-65669925D01*
X187839348Y-65741000D01*
X188080652Y-65741000D01*
X188437971Y-65669925D01*
X188843176Y-65399176D01*
X189113925Y-64993971D01*
X189208999Y-64516000D01*
X189113925Y-64038029D01*
X188843176Y-63632824D01*
X188437971Y-63362075D01*
X188080652Y-63291000D01*
X187839348Y-63291000D01*
X187482029Y-63362075D01*
X187076824Y-63632824D01*
X186806075Y-64038029D01*
X186711001Y-64516000D01*
X184744391Y-64516000D01*
X184997127Y-64347127D01*
X185256825Y-63958462D01*
X185348019Y-63500000D01*
X185256825Y-63041538D01*
X184997127Y-62652873D01*
X184608462Y-62393175D01*
X184265724Y-62325000D01*
X184034276Y-62325000D01*
X183691538Y-62393175D01*
X183302873Y-62652873D01*
X183043175Y-63041538D01*
X182951981Y-63500000D01*
X182851644Y-63500000D01*
X182775013Y-63314998D01*
X182557002Y-63096987D01*
X182272157Y-62979000D01*
X181963843Y-62979000D01*
X181678998Y-63096987D01*
X181460987Y-63314998D01*
X181343000Y-63599843D01*
X177708158Y-63599843D01*
X177728019Y-63500000D01*
X177636825Y-63041538D01*
X177377127Y-62652873D01*
X176988462Y-62393175D01*
X176645724Y-62325000D01*
X176414276Y-62325000D01*
X176071538Y-62393175D01*
X175682873Y-62652873D01*
X175423175Y-63041538D01*
X175331981Y-63500000D01*
X173918019Y-63500000D01*
X173826825Y-63041538D01*
X173567127Y-62652873D01*
X173178462Y-62393175D01*
X172835724Y-62325000D01*
X172604276Y-62325000D01*
X172261538Y-62393175D01*
X171872873Y-62652873D01*
X171613175Y-63041538D01*
X171521981Y-63500000D01*
X160540994Y-63500000D01*
X160540994Y-63345843D01*
X160423007Y-63060998D01*
X160204996Y-62842987D01*
X159920151Y-62725000D01*
X159698101Y-62725000D01*
X158884370Y-61911270D01*
X158856474Y-61869520D01*
X158691084Y-61759011D01*
X158545237Y-61730000D01*
X158545235Y-61730000D01*
X158495994Y-61720205D01*
X158446753Y-61730000D01*
X158378662Y-61730000D01*
X158586825Y-61418462D01*
X158678019Y-60960000D01*
X171521981Y-60960000D01*
X171613175Y-61418462D01*
X171872873Y-61807127D01*
X172261538Y-62066825D01*
X172604276Y-62135000D01*
X172835724Y-62135000D01*
X173178462Y-62066825D01*
X173567127Y-61807127D01*
X173826825Y-61418462D01*
X173918019Y-60960000D01*
X175331981Y-60960000D01*
X175423175Y-61418462D01*
X175682873Y-61807127D01*
X176071538Y-62066825D01*
X176414276Y-62135000D01*
X176645724Y-62135000D01*
X176988462Y-62066825D01*
X177124391Y-61976000D01*
X186711001Y-61976000D01*
X186806075Y-62453971D01*
X187076824Y-62859176D01*
X187482029Y-63129925D01*
X187839348Y-63201000D01*
X188080652Y-63201000D01*
X188437971Y-63129925D01*
X188843176Y-62859176D01*
X189113925Y-62453971D01*
X189208999Y-61976000D01*
X189113925Y-61498029D01*
X188843176Y-61092824D01*
X188437971Y-60822075D01*
X188080652Y-60751000D01*
X187839348Y-60751000D01*
X187482029Y-60822075D01*
X187076824Y-61092824D01*
X186806075Y-61498029D01*
X186711001Y-61976000D01*
X177124391Y-61976000D01*
X177377127Y-61807127D01*
X177636825Y-61418462D01*
X177728019Y-60960000D01*
X177636825Y-60501538D01*
X177377127Y-60112873D01*
X176988462Y-59853175D01*
X176645724Y-59785000D01*
X176414276Y-59785000D01*
X176071538Y-59853175D01*
X175682873Y-60112873D01*
X175423175Y-60501538D01*
X175331981Y-60960000D01*
X173918019Y-60960000D01*
X173826825Y-60501538D01*
X173567127Y-60112873D01*
X173178462Y-59853175D01*
X172835724Y-59785000D01*
X172604276Y-59785000D01*
X172261538Y-59853175D01*
X171872873Y-60112873D01*
X171613175Y-60501538D01*
X171521981Y-60960000D01*
X158678019Y-60960000D01*
X158586825Y-60501538D01*
X158327127Y-60112873D01*
X157938462Y-59853175D01*
X157595724Y-59785000D01*
X157364276Y-59785000D01*
X157021538Y-59853175D01*
X156632873Y-60112873D01*
X156373175Y-60501538D01*
X156281981Y-60960000D01*
X156373175Y-61418462D01*
X156400574Y-61459467D01*
X155964347Y-61023241D01*
X155964347Y-60801190D01*
X155846360Y-60516345D01*
X155628349Y-60298334D01*
X155343504Y-60180347D01*
X155035190Y-60180347D01*
X154750345Y-60298334D01*
X154532334Y-60516345D01*
X154414347Y-60801190D01*
X153566430Y-60801190D01*
X153506825Y-60501538D01*
X153247127Y-60112873D01*
X152858462Y-59853175D01*
X152515724Y-59785000D01*
X152284276Y-59785000D01*
X151941538Y-59853175D01*
X151552873Y-60112873D01*
X151293175Y-60501538D01*
X151201981Y-60960000D01*
X145978019Y-60960000D01*
X145886825Y-60501538D01*
X145627127Y-60112873D01*
X145238462Y-59853175D01*
X144895724Y-59785000D01*
X144664276Y-59785000D01*
X144321538Y-59853175D01*
X143932873Y-60112873D01*
X143673175Y-60501538D01*
X143581981Y-60960000D01*
X137610000Y-60960000D01*
X137610000Y-58186278D01*
X138525000Y-58186278D01*
X138525000Y-58653722D01*
X138703883Y-59085584D01*
X139034416Y-59416117D01*
X139466278Y-59595000D01*
X139933722Y-59595000D01*
X140365584Y-59416117D01*
X140696117Y-59085584D01*
X140875000Y-58653722D01*
X140875000Y-58186278D01*
X140696117Y-57754416D01*
X140561701Y-57620000D01*
X143597654Y-57620000D01*
X143597654Y-59220000D01*
X143626758Y-59366317D01*
X143709641Y-59490359D01*
X143833683Y-59573242D01*
X143980000Y-59602346D01*
X145580000Y-59602346D01*
X145726317Y-59573242D01*
X145850359Y-59490359D01*
X145933242Y-59366317D01*
X145962346Y-59220000D01*
X145962346Y-58420000D01*
X151201981Y-58420000D01*
X151293175Y-58878462D01*
X151552873Y-59267127D01*
X151941538Y-59526825D01*
X152284276Y-59595000D01*
X152515724Y-59595000D01*
X152858462Y-59526825D01*
X153247127Y-59267127D01*
X153506825Y-58878462D01*
X153598019Y-58420000D01*
X171521981Y-58420000D01*
X171613175Y-58878462D01*
X171872873Y-59267127D01*
X172261538Y-59526825D01*
X172604276Y-59595000D01*
X172835724Y-59595000D01*
X173178462Y-59526825D01*
X173567127Y-59267127D01*
X173826825Y-58878462D01*
X173918019Y-58420000D01*
X173826825Y-57961538D01*
X173567127Y-57572873D01*
X173178462Y-57313175D01*
X172835724Y-57245000D01*
X172604276Y-57245000D01*
X172261538Y-57313175D01*
X171872873Y-57572873D01*
X171613175Y-57961538D01*
X171521981Y-58420000D01*
X153598019Y-58420000D01*
X153506825Y-57961538D01*
X153247127Y-57572873D01*
X152858462Y-57313175D01*
X152515724Y-57245000D01*
X152284276Y-57245000D01*
X151941538Y-57313175D01*
X151552873Y-57572873D01*
X151293175Y-57961538D01*
X151201981Y-58420000D01*
X145962346Y-58420000D01*
X145962346Y-57620000D01*
X145933242Y-57473683D01*
X145850359Y-57349641D01*
X145726317Y-57266758D01*
X145580000Y-57237654D01*
X143980000Y-57237654D01*
X143833683Y-57266758D01*
X143709641Y-57349641D01*
X143626758Y-57473683D01*
X143597654Y-57620000D01*
X140561701Y-57620000D01*
X140365584Y-57423883D01*
X139933722Y-57245000D01*
X139466278Y-57245000D01*
X139034416Y-57423883D01*
X138703883Y-57754416D01*
X138525000Y-58186278D01*
X137610000Y-58186278D01*
X137610000Y-56330000D01*
X190050000Y-56330000D01*
X190050001Y-58375675D01*
X190050001Y-58375675D01*
G37*
X190050001Y-58375675D02*
X190050000Y-58375680D01*
X190050001Y-108770000D01*
X137610000Y-108770000D01*
X137610000Y-106680000D01*
X138451001Y-106680000D01*
X138546075Y-107157971D01*
X138816824Y-107563176D01*
X139222029Y-107833925D01*
X139579348Y-107905000D01*
X139820652Y-107905000D01*
X140177971Y-107833925D01*
X140583176Y-107563176D01*
X140853925Y-107157971D01*
X140948999Y-106680000D01*
X142311981Y-106680000D01*
X142403175Y-107138462D01*
X142662873Y-107527127D01*
X143051538Y-107786825D01*
X143394276Y-107855000D01*
X143625724Y-107855000D01*
X143968462Y-107786825D01*
X144357127Y-107527127D01*
X144616825Y-107138462D01*
X144708019Y-106680000D01*
X144661529Y-106446278D01*
X149955000Y-106446278D01*
X149955000Y-106913722D01*
X150133883Y-107345584D01*
X150464416Y-107676117D01*
X150896278Y-107855000D01*
X151363722Y-107855000D01*
X151795584Y-107676117D01*
X152126117Y-107345584D01*
X152305000Y-106913722D01*
X152305000Y-106680000D01*
X156281981Y-106680000D01*
X156373175Y-107138462D01*
X156632873Y-107527127D01*
X157021538Y-107786825D01*
X157364276Y-107855000D01*
X157595724Y-107855000D01*
X157938462Y-107786825D01*
X158327127Y-107527127D01*
X158586825Y-107138462D01*
X158678019Y-106680000D01*
X158586825Y-106221538D01*
X158358617Y-105880000D01*
X171537654Y-105880000D01*
X171537654Y-107480000D01*
X171566758Y-107626317D01*
X171649641Y-107750359D01*
X171773683Y-107833242D01*
X171920000Y-107862346D01*
X173520000Y-107862346D01*
X173666317Y-107833242D01*
X173790359Y-107750359D01*
X173873242Y-107626317D01*
X173902346Y-107480000D01*
X173902346Y-105880000D01*
X173892401Y-105830000D01*
X186727654Y-105830000D01*
X186727654Y-107530000D01*
X186756758Y-107676317D01*
X186839641Y-107800359D01*
X186963683Y-107883242D01*
X187110000Y-107912346D01*
X188810000Y-107912346D01*
X188956317Y-107883242D01*
X189080359Y-107800359D01*
X189163242Y-107676317D01*
X189192346Y-107530000D01*
X189192346Y-105830000D01*
X189163242Y-105683683D01*
X189080359Y-105559641D01*
X188956317Y-105476758D01*
X188810000Y-105447654D01*
X187110000Y-105447654D01*
X186963683Y-105476758D01*
X186839641Y-105559641D01*
X186756758Y-105683683D01*
X186727654Y-105830000D01*
X173892401Y-105830000D01*
X173873242Y-105733683D01*
X173790359Y-105609641D01*
X173666317Y-105526758D01*
X173520000Y-105497654D01*
X171920000Y-105497654D01*
X171773683Y-105526758D01*
X171649641Y-105609641D01*
X171566758Y-105733683D01*
X171537654Y-105880000D01*
X158358617Y-105880000D01*
X158327127Y-105832873D01*
X157938462Y-105573175D01*
X157595724Y-105505000D01*
X157364276Y-105505000D01*
X157021538Y-105573175D01*
X156632873Y-105832873D01*
X156373175Y-106221538D01*
X156281981Y-106680000D01*
X152305000Y-106680000D01*
X152305000Y-106446278D01*
X152126117Y-106014416D01*
X151795584Y-105683883D01*
X151363722Y-105505000D01*
X150896278Y-105505000D01*
X150464416Y-105683883D01*
X150133883Y-106014416D01*
X149955000Y-106446278D01*
X144661529Y-106446278D01*
X144616825Y-106221538D01*
X144357127Y-105832873D01*
X143968462Y-105573175D01*
X143625724Y-105505000D01*
X143394276Y-105505000D01*
X143051538Y-105573175D01*
X142662873Y-105832873D01*
X142403175Y-106221538D01*
X142311981Y-106680000D01*
X140948999Y-106680000D01*
X140853925Y-106202029D01*
X140583176Y-105796824D01*
X140177971Y-105526075D01*
X139820652Y-105455000D01*
X139579348Y-105455000D01*
X139222029Y-105526075D01*
X138816824Y-105796824D01*
X138546075Y-106202029D01*
X138451001Y-106680000D01*
X137610000Y-106680000D01*
X137610000Y-104140000D01*
X138451001Y-104140000D01*
X138546075Y-104617971D01*
X138816824Y-105023176D01*
X139222029Y-105293925D01*
X139579348Y-105365000D01*
X139820652Y-105365000D01*
X140177971Y-105293925D01*
X140583176Y-105023176D01*
X140853925Y-104617971D01*
X140948999Y-104140000D01*
X142311981Y-104140000D01*
X142403175Y-104598462D01*
X142662873Y-104987127D01*
X143051538Y-105246825D01*
X143394276Y-105315000D01*
X143625724Y-105315000D01*
X143968462Y-105246825D01*
X144357127Y-104987127D01*
X144616825Y-104598462D01*
X144708019Y-104140000D01*
X144661529Y-103906278D01*
X149955000Y-103906278D01*
X149955000Y-104373722D01*
X150133883Y-104805584D01*
X150464416Y-105136117D01*
X150896278Y-105315000D01*
X151363722Y-105315000D01*
X151795584Y-105136117D01*
X152126117Y-104805584D01*
X152305000Y-104373722D01*
X152305000Y-104140000D01*
X156281981Y-104140000D01*
X156373175Y-104598462D01*
X156632873Y-104987127D01*
X157021538Y-105246825D01*
X157364276Y-105315000D01*
X157595724Y-105315000D01*
X157938462Y-105246825D01*
X158327127Y-104987127D01*
X158586825Y-104598462D01*
X158678019Y-104140000D01*
X171521981Y-104140000D01*
X171613175Y-104598462D01*
X171872873Y-104987127D01*
X172261538Y-105246825D01*
X172604276Y-105315000D01*
X172835724Y-105315000D01*
X173178462Y-105246825D01*
X173567127Y-104987127D01*
X173826825Y-104598462D01*
X173918019Y-104140000D01*
X173871529Y-103906278D01*
X175355000Y-103906278D01*
X175355000Y-104373722D01*
X175533883Y-104805584D01*
X175864416Y-105136117D01*
X176296278Y-105315000D01*
X176763722Y-105315000D01*
X177195584Y-105136117D01*
X177526117Y-104805584D01*
X177705000Y-104373722D01*
X177705000Y-104140000D01*
X182951981Y-104140000D01*
X183043175Y-104598462D01*
X183302873Y-104987127D01*
X183691538Y-105246825D01*
X184034276Y-105315000D01*
X184265724Y-105315000D01*
X184608462Y-105246825D01*
X184997127Y-104987127D01*
X185256825Y-104598462D01*
X185348019Y-104140000D01*
X186711001Y-104140000D01*
X186806075Y-104617971D01*
X187076824Y-105023176D01*
X187482029Y-105293925D01*
X187839348Y-105365000D01*
X188080652Y-105365000D01*
X188437971Y-105293925D01*
X188843176Y-105023176D01*
X189113925Y-104617971D01*
X189208999Y-104140000D01*
X189113925Y-103662029D01*
X188843176Y-103256824D01*
X188437971Y-102986075D01*
X188080652Y-102915000D01*
X187839348Y-102915000D01*
X187482029Y-102986075D01*
X187076824Y-103256824D01*
X186806075Y-103662029D01*
X186711001Y-104140000D01*
X185348019Y-104140000D01*
X185256825Y-103681538D01*
X184997127Y-103292873D01*
X184608462Y-103033175D01*
X184265724Y-102965000D01*
X184034276Y-102965000D01*
X183691538Y-103033175D01*
X183302873Y-103292873D01*
X183043175Y-103681538D01*
X182951981Y-104140000D01*
X177705000Y-104140000D01*
X177705000Y-103906278D01*
X177526117Y-103474416D01*
X177195584Y-103143883D01*
X176763722Y-102965000D01*
X176296278Y-102965000D01*
X175864416Y-103143883D01*
X175533883Y-103474416D01*
X175355000Y-103906278D01*
X173871529Y-103906278D01*
X173826825Y-103681538D01*
X173567127Y-103292873D01*
X173178462Y-103033175D01*
X172835724Y-102965000D01*
X172604276Y-102965000D01*
X172261538Y-103033175D01*
X171872873Y-103292873D01*
X171613175Y-103681538D01*
X171521981Y-104140000D01*
X158678019Y-104140000D01*
X158586825Y-103681538D01*
X158327127Y-103292873D01*
X157938462Y-103033175D01*
X157595724Y-102965000D01*
X157364276Y-102965000D01*
X157021538Y-103033175D01*
X156632873Y-103292873D01*
X156373175Y-103681538D01*
X156281981Y-104140000D01*
X152305000Y-104140000D01*
X152305000Y-103906278D01*
X152126117Y-103474416D01*
X151795584Y-103143883D01*
X151363722Y-102965000D01*
X150896278Y-102965000D01*
X150464416Y-103143883D01*
X150133883Y-103474416D01*
X149955000Y-103906278D01*
X144661529Y-103906278D01*
X144616825Y-103681538D01*
X144357127Y-103292873D01*
X143968462Y-103033175D01*
X143625724Y-102965000D01*
X143394276Y-102965000D01*
X143051538Y-103033175D01*
X142662873Y-103292873D01*
X142403175Y-103681538D01*
X142311981Y-104140000D01*
X140948999Y-104140000D01*
X140853925Y-103662029D01*
X140583176Y-103256824D01*
X140177971Y-102986075D01*
X139820652Y-102915000D01*
X139579348Y-102915000D01*
X139222029Y-102986075D01*
X138816824Y-103256824D01*
X138546075Y-103662029D01*
X138451001Y-104140000D01*
X137610000Y-104140000D01*
X137610000Y-101600000D01*
X138451001Y-101600000D01*
X138546075Y-102077971D01*
X138816824Y-102483176D01*
X139222029Y-102753925D01*
X139579348Y-102825000D01*
X139820652Y-102825000D01*
X140177971Y-102753925D01*
X140583176Y-102483176D01*
X140853925Y-102077971D01*
X140948999Y-101600000D01*
X142311981Y-101600000D01*
X142403175Y-102058462D01*
X142662873Y-102447127D01*
X143051538Y-102706825D01*
X143394276Y-102775000D01*
X143625724Y-102775000D01*
X143968462Y-102706825D01*
X144357127Y-102447127D01*
X144616825Y-102058462D01*
X144708019Y-101600000D01*
X144661529Y-101366278D01*
X149955000Y-101366278D01*
X149955000Y-101833722D01*
X150133883Y-102265584D01*
X150464416Y-102596117D01*
X150896278Y-102775000D01*
X151363722Y-102775000D01*
X151795584Y-102596117D01*
X152126117Y-102265584D01*
X152305000Y-101833722D01*
X152305000Y-101600000D01*
X171521981Y-101600000D01*
X171613175Y-102058462D01*
X171872873Y-102447127D01*
X172261538Y-102706825D01*
X172604276Y-102775000D01*
X172835724Y-102775000D01*
X173178462Y-102706825D01*
X173567127Y-102447127D01*
X173826825Y-102058462D01*
X173918019Y-101600000D01*
X186711001Y-101600000D01*
X186806075Y-102077971D01*
X187076824Y-102483176D01*
X187482029Y-102753925D01*
X187839348Y-102825000D01*
X188080652Y-102825000D01*
X188437971Y-102753925D01*
X188843176Y-102483176D01*
X189113925Y-102077971D01*
X189208999Y-101600000D01*
X189113925Y-101122029D01*
X188843176Y-100716824D01*
X188437971Y-100446075D01*
X188080652Y-100375000D01*
X187839348Y-100375000D01*
X187482029Y-100446075D01*
X187076824Y-100716824D01*
X186806075Y-101122029D01*
X186711001Y-101600000D01*
X173918019Y-101600000D01*
X173826825Y-101141538D01*
X173567127Y-100752873D01*
X173178462Y-100493175D01*
X172835724Y-100425000D01*
X172604276Y-100425000D01*
X172261538Y-100493175D01*
X171872873Y-100752873D01*
X171613175Y-101141538D01*
X171521981Y-101600000D01*
X152305000Y-101600000D01*
X152305000Y-101366278D01*
X152126117Y-100934416D01*
X151795584Y-100603883D01*
X151363722Y-100425000D01*
X150896278Y-100425000D01*
X150464416Y-100603883D01*
X150133883Y-100934416D01*
X149955000Y-101366278D01*
X144661529Y-101366278D01*
X144616825Y-101141538D01*
X144357127Y-100752873D01*
X143968462Y-100493175D01*
X143625724Y-100425000D01*
X143394276Y-100425000D01*
X143051538Y-100493175D01*
X142662873Y-100752873D01*
X142403175Y-101141538D01*
X142311981Y-101600000D01*
X140948999Y-101600000D01*
X140853925Y-101122029D01*
X140583176Y-100716824D01*
X140177971Y-100446075D01*
X139820652Y-100375000D01*
X139579348Y-100375000D01*
X139222029Y-100446075D01*
X138816824Y-100716824D01*
X138546075Y-101122029D01*
X138451001Y-101600000D01*
X137610000Y-101600000D01*
X137610000Y-99060000D01*
X138451001Y-99060000D01*
X138546075Y-99537971D01*
X138816824Y-99943176D01*
X139222029Y-100213925D01*
X139579348Y-100285000D01*
X139820652Y-100285000D01*
X140177971Y-100213925D01*
X140583176Y-99943176D01*
X140853925Y-99537971D01*
X140948999Y-99060000D01*
X142311981Y-99060000D01*
X142403175Y-99518462D01*
X142662873Y-99907127D01*
X143051538Y-100166825D01*
X143394276Y-100235000D01*
X143625724Y-100235000D01*
X143968462Y-100166825D01*
X144357127Y-99907127D01*
X144616825Y-99518462D01*
X144708019Y-99060000D01*
X144661529Y-98826278D01*
X149955000Y-98826278D01*
X149955000Y-99293722D01*
X150133883Y-99725584D01*
X150464416Y-100056117D01*
X150896278Y-100235000D01*
X151363722Y-100235000D01*
X151795584Y-100056117D01*
X152126117Y-99725584D01*
X152305000Y-99293722D01*
X152305000Y-99060000D01*
X156281981Y-99060000D01*
X156373175Y-99518462D01*
X156632873Y-99907127D01*
X157021538Y-100166825D01*
X157364276Y-100235000D01*
X157595724Y-100235000D01*
X157938462Y-100166825D01*
X158327127Y-99907127D01*
X158586825Y-99518462D01*
X158678019Y-99060000D01*
X171521981Y-99060000D01*
X171613175Y-99518462D01*
X171872873Y-99907127D01*
X172261538Y-100166825D01*
X172604276Y-100235000D01*
X172835724Y-100235000D01*
X173178462Y-100166825D01*
X173567127Y-99907127D01*
X173826825Y-99518462D01*
X173918019Y-99060000D01*
X173871529Y-98826278D01*
X175355000Y-98826278D01*
X175355000Y-99293722D01*
X175533883Y-99725584D01*
X175864416Y-100056117D01*
X176296278Y-100235000D01*
X176763722Y-100235000D01*
X177195584Y-100056117D01*
X177526117Y-99725584D01*
X177705000Y-99293722D01*
X177705000Y-99060000D01*
X182951981Y-99060000D01*
X183043175Y-99518462D01*
X183302873Y-99907127D01*
X183691538Y-100166825D01*
X184034276Y-100235000D01*
X184265724Y-100235000D01*
X184608462Y-100166825D01*
X184997127Y-99907127D01*
X185256825Y-99518462D01*
X185348019Y-99060000D01*
X186711001Y-99060000D01*
X186806075Y-99537971D01*
X187076824Y-99943176D01*
X187482029Y-100213925D01*
X187839348Y-100285000D01*
X188080652Y-100285000D01*
X188437971Y-100213925D01*
X188843176Y-99943176D01*
X189113925Y-99537971D01*
X189208999Y-99060000D01*
X189113925Y-98582029D01*
X188843176Y-98176824D01*
X188437971Y-97906075D01*
X188080652Y-97835000D01*
X187839348Y-97835000D01*
X187482029Y-97906075D01*
X187076824Y-98176824D01*
X186806075Y-98582029D01*
X186711001Y-99060000D01*
X185348019Y-99060000D01*
X185256825Y-98601538D01*
X184997127Y-98212873D01*
X184608462Y-97953175D01*
X184265724Y-97885000D01*
X184034276Y-97885000D01*
X183691538Y-97953175D01*
X183302873Y-98212873D01*
X183043175Y-98601538D01*
X182951981Y-99060000D01*
X177705000Y-99060000D01*
X177705000Y-98826278D01*
X177526117Y-98394416D01*
X177195584Y-98063883D01*
X176763722Y-97885000D01*
X176296278Y-97885000D01*
X175864416Y-98063883D01*
X175533883Y-98394416D01*
X175355000Y-98826278D01*
X173871529Y-98826278D01*
X173826825Y-98601538D01*
X173567127Y-98212873D01*
X173178462Y-97953175D01*
X172835724Y-97885000D01*
X172604276Y-97885000D01*
X172261538Y-97953175D01*
X171872873Y-98212873D01*
X171613175Y-98601538D01*
X171521981Y-99060000D01*
X158678019Y-99060000D01*
X158586825Y-98601538D01*
X158327127Y-98212873D01*
X157938462Y-97953175D01*
X157595724Y-97885000D01*
X157364276Y-97885000D01*
X157021538Y-97953175D01*
X156632873Y-98212873D01*
X156373175Y-98601538D01*
X156281981Y-99060000D01*
X152305000Y-99060000D01*
X152305000Y-98826278D01*
X152126117Y-98394416D01*
X151795584Y-98063883D01*
X151363722Y-97885000D01*
X150896278Y-97885000D01*
X150464416Y-98063883D01*
X150133883Y-98394416D01*
X149955000Y-98826278D01*
X144661529Y-98826278D01*
X144616825Y-98601538D01*
X144357127Y-98212873D01*
X143968462Y-97953175D01*
X143625724Y-97885000D01*
X143394276Y-97885000D01*
X143051538Y-97953175D01*
X142662873Y-98212873D01*
X142403175Y-98601538D01*
X142311981Y-99060000D01*
X140948999Y-99060000D01*
X140853925Y-98582029D01*
X140583176Y-98176824D01*
X140177971Y-97906075D01*
X139820652Y-97835000D01*
X139579348Y-97835000D01*
X139222029Y-97906075D01*
X138816824Y-98176824D01*
X138546075Y-98582029D01*
X138451001Y-99060000D01*
X137610000Y-99060000D01*
X137610000Y-96520000D01*
X138451001Y-96520000D01*
X138546075Y-96997971D01*
X138816824Y-97403176D01*
X139222029Y-97673925D01*
X139579348Y-97745000D01*
X139820652Y-97745000D01*
X140177971Y-97673925D01*
X140583176Y-97403176D01*
X140853925Y-96997971D01*
X140948999Y-96520000D01*
X142311981Y-96520000D01*
X142403175Y-96978462D01*
X142662873Y-97367127D01*
X143051538Y-97626825D01*
X143394276Y-97695000D01*
X143625724Y-97695000D01*
X143968462Y-97626825D01*
X144357127Y-97367127D01*
X144616825Y-96978462D01*
X144708019Y-96520000D01*
X144661529Y-96286278D01*
X149955000Y-96286278D01*
X149955000Y-96753722D01*
X150133883Y-97185584D01*
X150464416Y-97516117D01*
X150896278Y-97695000D01*
X151363722Y-97695000D01*
X151795584Y-97516117D01*
X152126117Y-97185584D01*
X152305000Y-96753722D01*
X152305000Y-96520000D01*
X156281981Y-96520000D01*
X156373175Y-96978462D01*
X156632873Y-97367127D01*
X157021538Y-97626825D01*
X157364276Y-97695000D01*
X157595724Y-97695000D01*
X157938462Y-97626825D01*
X158327127Y-97367127D01*
X158586825Y-96978462D01*
X158678019Y-96520000D01*
X171521981Y-96520000D01*
X171613175Y-96978462D01*
X171872873Y-97367127D01*
X172261538Y-97626825D01*
X172604276Y-97695000D01*
X172835724Y-97695000D01*
X173178462Y-97626825D01*
X173567127Y-97367127D01*
X173826825Y-96978462D01*
X173918019Y-96520000D01*
X173871529Y-96286278D01*
X175355000Y-96286278D01*
X175355000Y-96753722D01*
X175533883Y-97185584D01*
X175864416Y-97516117D01*
X176296278Y-97695000D01*
X176763722Y-97695000D01*
X177195584Y-97516117D01*
X177526117Y-97185584D01*
X177705000Y-96753722D01*
X177705000Y-96520000D01*
X182951981Y-96520000D01*
X183043175Y-96978462D01*
X183302873Y-97367127D01*
X183691538Y-97626825D01*
X184034276Y-97695000D01*
X184265724Y-97695000D01*
X184608462Y-97626825D01*
X184997127Y-97367127D01*
X185256825Y-96978462D01*
X185348019Y-96520000D01*
X186711001Y-96520000D01*
X186806075Y-96997971D01*
X187076824Y-97403176D01*
X187482029Y-97673925D01*
X187839348Y-97745000D01*
X188080652Y-97745000D01*
X188437971Y-97673925D01*
X188843176Y-97403176D01*
X189113925Y-96997971D01*
X189208999Y-96520000D01*
X189113925Y-96042029D01*
X188843176Y-95636824D01*
X188437971Y-95366075D01*
X188080652Y-95295000D01*
X187839348Y-95295000D01*
X187482029Y-95366075D01*
X187076824Y-95636824D01*
X186806075Y-96042029D01*
X186711001Y-96520000D01*
X185348019Y-96520000D01*
X185256825Y-96061538D01*
X184997127Y-95672873D01*
X184608462Y-95413175D01*
X184265724Y-95345000D01*
X184034276Y-95345000D01*
X183691538Y-95413175D01*
X183302873Y-95672873D01*
X183043175Y-96061538D01*
X182951981Y-96520000D01*
X177705000Y-96520000D01*
X177705000Y-96286278D01*
X177526117Y-95854416D01*
X177195584Y-95523883D01*
X176763722Y-95345000D01*
X176296278Y-95345000D01*
X175864416Y-95523883D01*
X175533883Y-95854416D01*
X175355000Y-96286278D01*
X173871529Y-96286278D01*
X173826825Y-96061538D01*
X173567127Y-95672873D01*
X173178462Y-95413175D01*
X172835724Y-95345000D01*
X172604276Y-95345000D01*
X172261538Y-95413175D01*
X171872873Y-95672873D01*
X171613175Y-96061538D01*
X171521981Y-96520000D01*
X158678019Y-96520000D01*
X158586825Y-96061538D01*
X158327127Y-95672873D01*
X157938462Y-95413175D01*
X157595724Y-95345000D01*
X157364276Y-95345000D01*
X157021538Y-95413175D01*
X156632873Y-95672873D01*
X156373175Y-96061538D01*
X156281981Y-96520000D01*
X152305000Y-96520000D01*
X152305000Y-96286278D01*
X152126117Y-95854416D01*
X151795584Y-95523883D01*
X151363722Y-95345000D01*
X150896278Y-95345000D01*
X150464416Y-95523883D01*
X150133883Y-95854416D01*
X149955000Y-96286278D01*
X144661529Y-96286278D01*
X144616825Y-96061538D01*
X144357127Y-95672873D01*
X143968462Y-95413175D01*
X143625724Y-95345000D01*
X143394276Y-95345000D01*
X143051538Y-95413175D01*
X142662873Y-95672873D01*
X142403175Y-96061538D01*
X142311981Y-96520000D01*
X140948999Y-96520000D01*
X140853925Y-96042029D01*
X140583176Y-95636824D01*
X140177971Y-95366075D01*
X139820652Y-95295000D01*
X139579348Y-95295000D01*
X139222029Y-95366075D01*
X138816824Y-95636824D01*
X138546075Y-96042029D01*
X138451001Y-96520000D01*
X137610000Y-96520000D01*
X137610000Y-93130000D01*
X138467654Y-93130000D01*
X138467654Y-94830000D01*
X138496758Y-94976317D01*
X138579641Y-95100359D01*
X138703683Y-95183242D01*
X138850000Y-95212346D01*
X140550000Y-95212346D01*
X140696317Y-95183242D01*
X140820359Y-95100359D01*
X140903242Y-94976317D01*
X140932346Y-94830000D01*
X140932346Y-93980000D01*
X142311981Y-93980000D01*
X142403175Y-94438462D01*
X142662873Y-94827127D01*
X143051538Y-95086825D01*
X143394276Y-95155000D01*
X143625724Y-95155000D01*
X143968462Y-95086825D01*
X144357127Y-94827127D01*
X144616825Y-94438462D01*
X144708019Y-93980000D01*
X144661529Y-93746278D01*
X149955000Y-93746278D01*
X149955000Y-94213722D01*
X150133883Y-94645584D01*
X150464416Y-94976117D01*
X150896278Y-95155000D01*
X151363722Y-95155000D01*
X151795584Y-94976117D01*
X152126117Y-94645584D01*
X152305000Y-94213722D01*
X152305000Y-93980000D01*
X156281981Y-93980000D01*
X156373175Y-94438462D01*
X156632873Y-94827127D01*
X157021538Y-95086825D01*
X157364276Y-95155000D01*
X157595724Y-95155000D01*
X157938462Y-95086825D01*
X158327127Y-94827127D01*
X158586825Y-94438462D01*
X158678019Y-93980000D01*
X158586825Y-93521538D01*
X158327127Y-93132873D01*
X157938462Y-92873175D01*
X157595724Y-92805000D01*
X157364276Y-92805000D01*
X157021538Y-92873175D01*
X156632873Y-93132873D01*
X156373175Y-93521538D01*
X156281981Y-93980000D01*
X152305000Y-93980000D01*
X152305000Y-93746278D01*
X152126117Y-93314416D01*
X151795584Y-92983883D01*
X151363722Y-92805000D01*
X150896278Y-92805000D01*
X150464416Y-92983883D01*
X150133883Y-93314416D01*
X149955000Y-93746278D01*
X144661529Y-93746278D01*
X144616825Y-93521538D01*
X144357127Y-93132873D01*
X143968462Y-92873175D01*
X143625724Y-92805000D01*
X143394276Y-92805000D01*
X143051538Y-92873175D01*
X142662873Y-93132873D01*
X142403175Y-93521538D01*
X142311981Y-93980000D01*
X140932346Y-93980000D01*
X140932346Y-93130000D01*
X140903242Y-92983683D01*
X140820359Y-92859641D01*
X140696317Y-92776758D01*
X140550000Y-92747654D01*
X138850000Y-92747654D01*
X138703683Y-92776758D01*
X138579641Y-92859641D01*
X138496758Y-92983683D01*
X138467654Y-93130000D01*
X137610000Y-93130000D01*
X137610000Y-91440000D01*
X151201981Y-91440000D01*
X151293175Y-91898462D01*
X151552873Y-92287127D01*
X151941538Y-92546825D01*
X152284276Y-92615000D01*
X152515724Y-92615000D01*
X152858462Y-92546825D01*
X153247127Y-92287127D01*
X153506825Y-91898462D01*
X153598019Y-91440000D01*
X156281981Y-91440000D01*
X156373175Y-91898462D01*
X156632873Y-92287127D01*
X157021538Y-92546825D01*
X157364276Y-92615000D01*
X157595724Y-92615000D01*
X157893125Y-92555843D01*
X169404998Y-92555843D01*
X169404998Y-92864157D01*
X169522985Y-93149002D01*
X169740996Y-93367013D01*
X170025841Y-93485000D01*
X170334155Y-93485000D01*
X170619000Y-93367013D01*
X170776013Y-93210000D01*
X171821338Y-93210000D01*
X171613175Y-93521538D01*
X171521981Y-93980000D01*
X171613175Y-94438462D01*
X171872873Y-94827127D01*
X172261538Y-95086825D01*
X172604276Y-95155000D01*
X172835724Y-95155000D01*
X173178462Y-95086825D01*
X173567127Y-94827127D01*
X173826825Y-94438462D01*
X173918019Y-93980000D01*
X173871529Y-93746278D01*
X175355000Y-93746278D01*
X175355000Y-94213722D01*
X175533883Y-94645584D01*
X175864416Y-94976117D01*
X176296278Y-95155000D01*
X176763722Y-95155000D01*
X177195584Y-94976117D01*
X177526117Y-94645584D01*
X177705000Y-94213722D01*
X177705000Y-93980000D01*
X182951981Y-93980000D01*
X183043175Y-94438462D01*
X183302873Y-94827127D01*
X183691538Y-95086825D01*
X184034276Y-95155000D01*
X184265724Y-95155000D01*
X184608462Y-95086825D01*
X184997127Y-94827127D01*
X185256825Y-94438462D01*
X185348019Y-93980000D01*
X186711001Y-93980000D01*
X186806075Y-94457971D01*
X187076824Y-94863176D01*
X187482029Y-95133925D01*
X187839348Y-95205000D01*
X188080652Y-95205000D01*
X188437971Y-95133925D01*
X188843176Y-94863176D01*
X189113925Y-94457971D01*
X189208999Y-93980000D01*
X189113925Y-93502029D01*
X188843176Y-93096824D01*
X188437971Y-92826075D01*
X188080652Y-92755000D01*
X187839348Y-92755000D01*
X187482029Y-92826075D01*
X187076824Y-93096824D01*
X186806075Y-93502029D01*
X186711001Y-93980000D01*
X185348019Y-93980000D01*
X185256825Y-93521538D01*
X184997127Y-93132873D01*
X184608462Y-92873175D01*
X184265724Y-92805000D01*
X184034276Y-92805000D01*
X183691538Y-92873175D01*
X183302873Y-93132873D01*
X183043175Y-93521538D01*
X182951981Y-93980000D01*
X177705000Y-93980000D01*
X177705000Y-93746278D01*
X177526117Y-93314416D01*
X177195584Y-92983883D01*
X176763722Y-92805000D01*
X176296278Y-92805000D01*
X175864416Y-92983883D01*
X175533883Y-93314416D01*
X175355000Y-93746278D01*
X173871529Y-93746278D01*
X173826825Y-93521538D01*
X173618662Y-93210000D01*
X175210759Y-93210000D01*
X175260000Y-93219795D01*
X175309241Y-93210000D01*
X175309243Y-93210000D01*
X175455090Y-93180989D01*
X175620480Y-93070480D01*
X175648376Y-93028730D01*
X176130694Y-92546413D01*
X176296278Y-92615000D01*
X176763722Y-92615000D01*
X177195584Y-92436117D01*
X177526117Y-92105584D01*
X177705000Y-91673722D01*
X177705000Y-91440000D01*
X182951981Y-91440000D01*
X183043175Y-91898462D01*
X183302873Y-92287127D01*
X183691538Y-92546825D01*
X184034276Y-92615000D01*
X184265724Y-92615000D01*
X184608462Y-92546825D01*
X184997127Y-92287127D01*
X185256825Y-91898462D01*
X185348019Y-91440000D01*
X186711001Y-91440000D01*
X186806075Y-91917971D01*
X187076824Y-92323176D01*
X187482029Y-92593925D01*
X187839348Y-92665000D01*
X188080652Y-92665000D01*
X188437971Y-92593925D01*
X188843176Y-92323176D01*
X189113925Y-91917971D01*
X189208999Y-91440000D01*
X189113925Y-90962029D01*
X188843176Y-90556824D01*
X188437971Y-90286075D01*
X188080652Y-90215000D01*
X187839348Y-90215000D01*
X187482029Y-90286075D01*
X187076824Y-90556824D01*
X186806075Y-90962029D01*
X186711001Y-91440000D01*
X185348019Y-91440000D01*
X185256825Y-90981538D01*
X184997127Y-90592873D01*
X184608462Y-90333175D01*
X184265724Y-90265000D01*
X184034276Y-90265000D01*
X183691538Y-90333175D01*
X183302873Y-90592873D01*
X183043175Y-90981538D01*
X182951981Y-91440000D01*
X177705000Y-91440000D01*
X177705000Y-91206278D01*
X177526117Y-90774416D01*
X177195584Y-90443883D01*
X176763722Y-90265000D01*
X176296278Y-90265000D01*
X175864416Y-90443883D01*
X175533883Y-90774416D01*
X175355000Y-91206278D01*
X175355000Y-91673722D01*
X175423587Y-91839306D01*
X175052894Y-92210000D01*
X173618662Y-92210000D01*
X173826825Y-91898462D01*
X173918019Y-91440000D01*
X173826825Y-90981538D01*
X173567127Y-90592873D01*
X173178462Y-90333175D01*
X172835724Y-90265000D01*
X172604276Y-90265000D01*
X172261538Y-90333175D01*
X171872873Y-90592873D01*
X171613175Y-90981538D01*
X171521981Y-91440000D01*
X171613175Y-91898462D01*
X171821338Y-92210000D01*
X170776013Y-92210000D01*
X170619000Y-92052987D01*
X170334155Y-91935000D01*
X170025841Y-91935000D01*
X169740996Y-92052987D01*
X169522985Y-92270998D01*
X169404998Y-92555843D01*
X157893125Y-92555843D01*
X157938462Y-92546825D01*
X158327127Y-92287127D01*
X158586825Y-91898462D01*
X158678019Y-91440000D01*
X158586825Y-90981538D01*
X158327127Y-90592873D01*
X157938462Y-90333175D01*
X157595724Y-90265000D01*
X157364276Y-90265000D01*
X157021538Y-90333175D01*
X156632873Y-90592873D01*
X156373175Y-90981538D01*
X156281981Y-91440000D01*
X153598019Y-91440000D01*
X153506825Y-90981538D01*
X153247127Y-90592873D01*
X152858462Y-90333175D01*
X152515724Y-90265000D01*
X152284276Y-90265000D01*
X151941538Y-90333175D01*
X151552873Y-90592873D01*
X151293175Y-90981538D01*
X151201981Y-91440000D01*
X137610000Y-91440000D01*
X137610000Y-88900000D01*
X138451001Y-88900000D01*
X138546075Y-89377971D01*
X138816824Y-89783176D01*
X139222029Y-90053925D01*
X139579348Y-90125000D01*
X139820652Y-90125000D01*
X140177971Y-90053925D01*
X140583176Y-89783176D01*
X140853925Y-89377971D01*
X140948999Y-88900000D01*
X143581981Y-88900000D01*
X143673175Y-89358462D01*
X143932873Y-89747127D01*
X144321538Y-90006825D01*
X144664276Y-90075000D01*
X144895724Y-90075000D01*
X145238462Y-90006825D01*
X145627127Y-89747127D01*
X145886825Y-89358462D01*
X145978019Y-88900000D01*
X151201981Y-88900000D01*
X151293175Y-89358462D01*
X151552873Y-89747127D01*
X151941538Y-90006825D01*
X152284276Y-90075000D01*
X152515724Y-90075000D01*
X152858462Y-90006825D01*
X153247127Y-89747127D01*
X153506825Y-89358462D01*
X153598019Y-88900000D01*
X156281981Y-88900000D01*
X156373175Y-89358462D01*
X156632873Y-89747127D01*
X157021538Y-90006825D01*
X157364276Y-90075000D01*
X157595724Y-90075000D01*
X157938462Y-90006825D01*
X158327127Y-89747127D01*
X158586825Y-89358462D01*
X158678019Y-88900000D01*
X158586825Y-88441538D01*
X158327127Y-88052873D01*
X157938462Y-87793175D01*
X157595724Y-87725000D01*
X157364276Y-87725000D01*
X157021538Y-87793175D01*
X156632873Y-88052873D01*
X156373175Y-88441538D01*
X156281981Y-88900000D01*
X153598019Y-88900000D01*
X153506825Y-88441538D01*
X153247127Y-88052873D01*
X152858462Y-87793175D01*
X152515724Y-87725000D01*
X152284276Y-87725000D01*
X151941538Y-87793175D01*
X151552873Y-88052873D01*
X151293175Y-88441538D01*
X151201981Y-88900000D01*
X145978019Y-88900000D01*
X145886825Y-88441538D01*
X145627127Y-88052873D01*
X145238462Y-87793175D01*
X144895724Y-87725000D01*
X144664276Y-87725000D01*
X144321538Y-87793175D01*
X143932873Y-88052873D01*
X143673175Y-88441538D01*
X143581981Y-88900000D01*
X140948999Y-88900000D01*
X140853925Y-88422029D01*
X140583176Y-88016824D01*
X140177971Y-87746075D01*
X139820652Y-87675000D01*
X139579348Y-87675000D01*
X139222029Y-87746075D01*
X138816824Y-88016824D01*
X138546075Y-88422029D01*
X138451001Y-88900000D01*
X137610000Y-88900000D01*
X137610000Y-86360000D01*
X143581981Y-86360000D01*
X143673175Y-86818462D01*
X143932873Y-87207127D01*
X144321538Y-87466825D01*
X144664276Y-87535000D01*
X144895724Y-87535000D01*
X145193125Y-87475843D01*
X145783000Y-87475843D01*
X145783000Y-87784157D01*
X145900987Y-88069002D01*
X146118998Y-88287013D01*
X146403843Y-88405000D01*
X146712157Y-88405000D01*
X146997002Y-88287013D01*
X147154015Y-88130000D01*
X149009985Y-88130000D01*
X149166998Y-88287013D01*
X149451843Y-88405000D01*
X149760157Y-88405000D01*
X150045002Y-88287013D01*
X150263013Y-88069002D01*
X150381000Y-87784157D01*
X150381000Y-87475843D01*
X150263013Y-87190998D01*
X150045002Y-86972987D01*
X149760157Y-86855000D01*
X149451843Y-86855000D01*
X149166998Y-86972987D01*
X149009985Y-87130000D01*
X147154015Y-87130000D01*
X146997002Y-86972987D01*
X146712157Y-86855000D01*
X146403843Y-86855000D01*
X146118998Y-86972987D01*
X145900987Y-87190998D01*
X145783000Y-87475843D01*
X145193125Y-87475843D01*
X145238462Y-87466825D01*
X145627127Y-87207127D01*
X145886825Y-86818462D01*
X145978019Y-86360000D01*
X145886825Y-85901538D01*
X145627127Y-85512873D01*
X145238462Y-85253175D01*
X144920072Y-85189843D01*
X145782998Y-85189843D01*
X145782998Y-85498157D01*
X145900985Y-85783002D01*
X146118996Y-86001013D01*
X146403841Y-86119000D01*
X146712155Y-86119000D01*
X146997000Y-86001013D01*
X147183241Y-85814772D01*
X147411996Y-85814772D01*
X147569009Y-85971785D01*
X147853854Y-86089772D01*
X148162168Y-86089772D01*
X148447013Y-85971785D01*
X148665024Y-85753774D01*
X148783011Y-85468929D01*
X148783011Y-85160615D01*
X148665024Y-84875770D01*
X148447013Y-84657759D01*
X148162168Y-84539772D01*
X147853854Y-84539772D01*
X147569009Y-84657759D01*
X147411996Y-84814772D01*
X147124785Y-84814772D01*
X146997000Y-84686987D01*
X146712155Y-84569000D01*
X146403841Y-84569000D01*
X146118996Y-84686987D01*
X145900985Y-84904998D01*
X145782998Y-85189843D01*
X144920072Y-85189843D01*
X144895724Y-85185000D01*
X144664276Y-85185000D01*
X144321538Y-85253175D01*
X143932873Y-85512873D01*
X143673175Y-85901538D01*
X143581981Y-86360000D01*
X137610000Y-86360000D01*
X137610000Y-83820000D01*
X143581981Y-83820000D01*
X143673175Y-84278462D01*
X143932873Y-84667127D01*
X144321538Y-84926825D01*
X144664276Y-84995000D01*
X144895724Y-84995000D01*
X145238462Y-84926825D01*
X145627127Y-84667127D01*
X145886825Y-84278462D01*
X145978019Y-83820000D01*
X145947356Y-83665843D01*
X148323000Y-83665843D01*
X148323000Y-83974157D01*
X148440987Y-84259002D01*
X148658998Y-84477013D01*
X148943843Y-84595000D01*
X149085000Y-84595000D01*
X149085000Y-84736157D01*
X149202987Y-85021002D01*
X149420998Y-85239013D01*
X149705843Y-85357000D01*
X149847006Y-85357000D01*
X149847006Y-85498157D01*
X149964993Y-85783002D01*
X150183004Y-86001013D01*
X150467849Y-86119000D01*
X150776163Y-86119000D01*
X151061008Y-86001013D01*
X151213325Y-85848696D01*
X151236932Y-85844000D01*
X151236934Y-85844000D01*
X151346135Y-85822278D01*
X151293175Y-85901538D01*
X151201981Y-86360000D01*
X151293175Y-86818462D01*
X151552873Y-87207127D01*
X151941538Y-87466825D01*
X152284276Y-87535000D01*
X152515724Y-87535000D01*
X152858462Y-87466825D01*
X153247127Y-87207127D01*
X153506825Y-86818462D01*
X153598019Y-86360000D01*
X153558713Y-86162394D01*
X156400574Y-83320533D01*
X156373175Y-83361538D01*
X156281981Y-83820000D01*
X156363429Y-84229464D01*
X154495241Y-86097653D01*
X154273190Y-86097653D01*
X153988345Y-86215640D01*
X153770334Y-86433651D01*
X153652347Y-86718496D01*
X153652347Y-87026810D01*
X153770334Y-87311655D01*
X153988345Y-87529666D01*
X154273190Y-87647653D01*
X154581504Y-87647653D01*
X154729755Y-87586245D01*
X154668347Y-87734496D01*
X154668347Y-88042810D01*
X154786334Y-88327655D01*
X155004345Y-88545666D01*
X155289190Y-88663653D01*
X155597504Y-88663653D01*
X155882349Y-88545666D01*
X156100360Y-88327655D01*
X156218347Y-88042810D01*
X156218347Y-87820759D01*
X156752229Y-87286878D01*
X157021538Y-87466825D01*
X157364276Y-87535000D01*
X157595724Y-87535000D01*
X157938462Y-87466825D01*
X158327127Y-87207127D01*
X158586825Y-86818462D01*
X158678019Y-86360000D01*
X171521981Y-86360000D01*
X171613175Y-86818462D01*
X171872873Y-87207127D01*
X172261538Y-87466825D01*
X172604276Y-87535000D01*
X172835724Y-87535000D01*
X173027040Y-87496945D01*
X172798985Y-87725000D01*
X172604276Y-87725000D01*
X172261538Y-87793175D01*
X171872873Y-88052873D01*
X171613175Y-88441538D01*
X171521981Y-88900000D01*
X171613175Y-89358462D01*
X171872873Y-89747127D01*
X172261538Y-90006825D01*
X172604276Y-90075000D01*
X172835724Y-90075000D01*
X173178462Y-90006825D01*
X173567127Y-89747127D01*
X173826825Y-89358462D01*
X173918019Y-88900000D01*
X173901095Y-88814920D01*
X174049737Y-88666278D01*
X175355000Y-88666278D01*
X175355000Y-89133722D01*
X175533883Y-89565584D01*
X175864416Y-89896117D01*
X176296278Y-90075000D01*
X176763722Y-90075000D01*
X177195584Y-89896117D01*
X177526117Y-89565584D01*
X177705000Y-89133722D01*
X177705000Y-88900000D01*
X182951981Y-88900000D01*
X183043175Y-89358462D01*
X183302873Y-89747127D01*
X183691538Y-90006825D01*
X184034276Y-90075000D01*
X184265724Y-90075000D01*
X184608462Y-90006825D01*
X184997127Y-89747127D01*
X185256825Y-89358462D01*
X185348019Y-88900000D01*
X186711001Y-88900000D01*
X186806075Y-89377971D01*
X187076824Y-89783176D01*
X187482029Y-90053925D01*
X187839348Y-90125000D01*
X188080652Y-90125000D01*
X188437971Y-90053925D01*
X188843176Y-89783176D01*
X189113925Y-89377971D01*
X189208999Y-88900000D01*
X189113925Y-88422029D01*
X188843176Y-88016824D01*
X188437971Y-87746075D01*
X188080652Y-87675000D01*
X187839348Y-87675000D01*
X187482029Y-87746075D01*
X187076824Y-88016824D01*
X186806075Y-88422029D01*
X186711001Y-88900000D01*
X185348019Y-88900000D01*
X185256825Y-88441538D01*
X184997127Y-88052873D01*
X184608462Y-87793175D01*
X184265724Y-87725000D01*
X184034276Y-87725000D01*
X183691538Y-87793175D01*
X183302873Y-88052873D01*
X183043175Y-88441538D01*
X182951981Y-88900000D01*
X177705000Y-88900000D01*
X177705000Y-88666278D01*
X177526117Y-88234416D01*
X177195584Y-87903883D01*
X176763722Y-87725000D01*
X176296278Y-87725000D01*
X175864416Y-87903883D01*
X175533883Y-88234416D01*
X175355000Y-88666278D01*
X174049737Y-88666278D01*
X176115981Y-86600035D01*
X176115983Y-86600032D01*
X176451015Y-86265000D01*
X176763722Y-86265000D01*
X177195584Y-86086117D01*
X177526117Y-85755584D01*
X177705000Y-85323722D01*
X177705000Y-84856278D01*
X177526117Y-84424416D01*
X177195584Y-84093883D01*
X176763722Y-83915000D01*
X176296278Y-83915000D01*
X175864416Y-84093883D01*
X175533883Y-84424416D01*
X175355000Y-84856278D01*
X175355000Y-85168985D01*
X175019968Y-85504017D01*
X175019965Y-85504019D01*
X173856945Y-86667040D01*
X173918019Y-86360000D01*
X173826825Y-85901538D01*
X173567127Y-85512873D01*
X173178462Y-85253175D01*
X172835724Y-85185000D01*
X172604276Y-85185000D01*
X172261538Y-85253175D01*
X171872873Y-85512873D01*
X171613175Y-85901538D01*
X171521981Y-86360000D01*
X158678019Y-86360000D01*
X158586825Y-85901538D01*
X158327127Y-85512873D01*
X157938462Y-85253175D01*
X157595724Y-85185000D01*
X157364276Y-85185000D01*
X157021538Y-85253175D01*
X156632873Y-85512873D01*
X156373175Y-85901538D01*
X156286224Y-86338669D01*
X155511241Y-87113653D01*
X155289190Y-87113653D01*
X155140939Y-87175061D01*
X155202347Y-87026810D01*
X155202347Y-86804759D01*
X157070536Y-84936571D01*
X157364276Y-84995000D01*
X157595724Y-84995000D01*
X157938462Y-84926825D01*
X158327127Y-84667127D01*
X158586825Y-84278462D01*
X158678019Y-83820000D01*
X171521981Y-83820000D01*
X171613175Y-84278462D01*
X171872873Y-84667127D01*
X172261538Y-84926825D01*
X172604276Y-84995000D01*
X172835724Y-84995000D01*
X173178462Y-84926825D01*
X173567127Y-84667127D01*
X173826825Y-84278462D01*
X173918019Y-83820000D01*
X173826825Y-83361538D01*
X173690721Y-83157843D01*
X179565000Y-83157843D01*
X179565000Y-83466157D01*
X179682987Y-83751002D01*
X179900998Y-83969013D01*
X180185843Y-84087000D01*
X180494157Y-84087000D01*
X180779002Y-83969013D01*
X180848000Y-83900015D01*
X180916998Y-83969013D01*
X181201843Y-84087000D01*
X181510157Y-84087000D01*
X181618001Y-84042329D01*
X181618001Y-84278754D01*
X181608205Y-84328000D01*
X181640036Y-84488019D01*
X181647012Y-84523090D01*
X181757521Y-84688480D01*
X181799268Y-84716374D01*
X182359000Y-85276107D01*
X182359000Y-85498157D01*
X182476987Y-85783002D01*
X182694998Y-86001013D01*
X182979843Y-86119000D01*
X183288157Y-86119000D01*
X183573002Y-86001013D01*
X183665662Y-85908353D01*
X183692866Y-85935557D01*
X183977711Y-86053544D01*
X184286025Y-86053544D01*
X184570870Y-85935557D01*
X184788881Y-85717546D01*
X184906868Y-85432701D01*
X184906868Y-85124387D01*
X184788881Y-84839542D01*
X184570870Y-84621531D01*
X184286025Y-84503544D01*
X184063975Y-84503544D01*
X183634000Y-84073570D01*
X183634000Y-83892015D01*
X183710998Y-83969013D01*
X183995843Y-84087000D01*
X184304157Y-84087000D01*
X184547991Y-83986000D01*
X186727654Y-83986000D01*
X186727654Y-85686000D01*
X186756758Y-85832317D01*
X186839641Y-85956359D01*
X186963683Y-86039242D01*
X187110000Y-86068346D01*
X188810000Y-86068346D01*
X188956317Y-86039242D01*
X189080359Y-85956359D01*
X189163242Y-85832317D01*
X189192346Y-85686000D01*
X189192346Y-83986000D01*
X189163242Y-83839683D01*
X189080359Y-83715641D01*
X188956317Y-83632758D01*
X188810000Y-83603654D01*
X187110000Y-83603654D01*
X186963683Y-83632758D01*
X186839641Y-83715641D01*
X186756758Y-83839683D01*
X186727654Y-83986000D01*
X184547991Y-83986000D01*
X184589002Y-83969013D01*
X184807013Y-83751002D01*
X184925000Y-83466157D01*
X184925000Y-83157843D01*
X184807013Y-82872998D01*
X184650000Y-82715985D01*
X184650000Y-82296000D01*
X186711001Y-82296000D01*
X186806075Y-82773971D01*
X187076824Y-83179176D01*
X187482029Y-83449925D01*
X187839348Y-83521000D01*
X188080652Y-83521000D01*
X188437971Y-83449925D01*
X188843176Y-83179176D01*
X189113925Y-82773971D01*
X189208999Y-82296000D01*
X189113925Y-81818029D01*
X188843176Y-81412824D01*
X188437971Y-81142075D01*
X188080652Y-81071000D01*
X187839348Y-81071000D01*
X187482029Y-81142075D01*
X187076824Y-81412824D01*
X186806075Y-81818029D01*
X186711001Y-82296000D01*
X184650000Y-82296000D01*
X184650000Y-81876015D01*
X184807013Y-81719002D01*
X184925000Y-81434157D01*
X184925000Y-81125843D01*
X184807013Y-80840998D01*
X184589002Y-80622987D01*
X184304157Y-80505000D01*
X183995843Y-80505000D01*
X183710998Y-80622987D01*
X183642000Y-80691985D01*
X183573002Y-80622987D01*
X183288157Y-80505000D01*
X182979843Y-80505000D01*
X182694998Y-80622987D01*
X182626000Y-80691985D01*
X182557002Y-80622987D01*
X182272157Y-80505000D01*
X181963843Y-80505000D01*
X181678998Y-80622987D01*
X181610000Y-80691985D01*
X181541002Y-80622987D01*
X181256157Y-80505000D01*
X180947843Y-80505000D01*
X180840000Y-80549670D01*
X180840000Y-80217106D01*
X181301106Y-79756000D01*
X186711001Y-79756000D01*
X186806075Y-80233971D01*
X187076824Y-80639176D01*
X187482029Y-80909925D01*
X187839348Y-80981000D01*
X188080652Y-80981000D01*
X188437971Y-80909925D01*
X188843176Y-80639176D01*
X189113925Y-80233971D01*
X189208999Y-79756000D01*
X189113925Y-79278029D01*
X188843176Y-78872824D01*
X188437971Y-78602075D01*
X188080652Y-78531000D01*
X187839348Y-78531000D01*
X187482029Y-78602075D01*
X187076824Y-78872824D01*
X186806075Y-79278029D01*
X186711001Y-79756000D01*
X181301106Y-79756000D01*
X183674761Y-77382346D01*
X184950000Y-77382346D01*
X185096317Y-77353242D01*
X185220359Y-77270359D01*
X185256680Y-77216000D01*
X186711001Y-77216000D01*
X186806075Y-77693971D01*
X187076824Y-78099176D01*
X187482029Y-78369925D01*
X187839348Y-78441000D01*
X188080652Y-78441000D01*
X188437971Y-78369925D01*
X188843176Y-78099176D01*
X189113925Y-77693971D01*
X189208999Y-77216000D01*
X189113925Y-76738029D01*
X188843176Y-76332824D01*
X188437971Y-76062075D01*
X188080652Y-75991000D01*
X187839348Y-75991000D01*
X187482029Y-76062075D01*
X187076824Y-76332824D01*
X186806075Y-76738029D01*
X186711001Y-77216000D01*
X185256680Y-77216000D01*
X185303242Y-77146317D01*
X185332346Y-77000000D01*
X185332346Y-75400000D01*
X185303242Y-75253683D01*
X185220359Y-75129641D01*
X185096317Y-75046758D01*
X184950000Y-75017654D01*
X183350000Y-75017654D01*
X183203683Y-75046758D01*
X183079641Y-75129641D01*
X182996758Y-75253683D01*
X182967654Y-75400000D01*
X182967654Y-76675239D01*
X180021271Y-79621623D01*
X179979520Y-79649520D01*
X179869011Y-79814911D01*
X179853294Y-79893925D01*
X179830205Y-80010000D01*
X179840000Y-80059241D01*
X179840001Y-82697068D01*
X179840000Y-82697073D01*
X179840000Y-82715985D01*
X179682987Y-82872998D01*
X179565000Y-83157843D01*
X173690721Y-83157843D01*
X173567127Y-82972873D01*
X173178462Y-82713175D01*
X172835724Y-82645000D01*
X172604276Y-82645000D01*
X172261538Y-82713175D01*
X171872873Y-82972873D01*
X171613175Y-83361538D01*
X171521981Y-83820000D01*
X158678019Y-83820000D01*
X158586825Y-83361538D01*
X158327127Y-82972873D01*
X157938462Y-82713175D01*
X157595724Y-82645000D01*
X157364276Y-82645000D01*
X157021538Y-82713175D01*
X156980533Y-82740573D01*
X157282394Y-82438713D01*
X157364276Y-82455000D01*
X157595724Y-82455000D01*
X157938462Y-82386825D01*
X158327127Y-82127127D01*
X158586825Y-81738462D01*
X158678019Y-81280000D01*
X171521981Y-81280000D01*
X171613175Y-81738462D01*
X171872873Y-82127127D01*
X172261538Y-82386825D01*
X172604276Y-82455000D01*
X172835724Y-82455000D01*
X173178462Y-82386825D01*
X173567127Y-82127127D01*
X173826825Y-81738462D01*
X173918019Y-81280000D01*
X173826825Y-80821538D01*
X173567127Y-80432873D01*
X173178462Y-80173175D01*
X172835724Y-80105000D01*
X172604276Y-80105000D01*
X172261538Y-80173175D01*
X171872873Y-80432873D01*
X171613175Y-80821538D01*
X171521981Y-81280000D01*
X158678019Y-81280000D01*
X158586825Y-80821538D01*
X158327127Y-80432873D01*
X157938462Y-80173175D01*
X157595724Y-80105000D01*
X157364276Y-80105000D01*
X157021538Y-80173175D01*
X156632873Y-80432873D01*
X156373175Y-80821538D01*
X156281981Y-81280000D01*
X156373175Y-81738462D01*
X156451384Y-81855509D01*
X156202000Y-82104893D01*
X156202000Y-80725106D01*
X157070535Y-79856571D01*
X157364276Y-79915000D01*
X157595724Y-79915000D01*
X157938462Y-79846825D01*
X158327127Y-79587127D01*
X158586825Y-79198462D01*
X158678019Y-78740000D01*
X171521981Y-78740000D01*
X171613175Y-79198462D01*
X171872873Y-79587127D01*
X172261538Y-79846825D01*
X172604276Y-79915000D01*
X172835724Y-79915000D01*
X173178462Y-79846825D01*
X173284042Y-79776278D01*
X175355000Y-79776278D01*
X175355000Y-80243722D01*
X175533883Y-80675584D01*
X175864416Y-81006117D01*
X176296278Y-81185000D01*
X176763722Y-81185000D01*
X177195584Y-81006117D01*
X177526117Y-80675584D01*
X177705000Y-80243722D01*
X177705000Y-79776278D01*
X177526117Y-79344416D01*
X177195584Y-79013883D01*
X176763722Y-78835000D01*
X176296278Y-78835000D01*
X175864416Y-79013883D01*
X175533883Y-79344416D01*
X175355000Y-79776278D01*
X173284042Y-79776278D01*
X173567127Y-79587127D01*
X173826825Y-79198462D01*
X173918019Y-78740000D01*
X173826825Y-78281538D01*
X173567127Y-77892873D01*
X173178462Y-77633175D01*
X172835724Y-77565000D01*
X172604276Y-77565000D01*
X172261538Y-77633175D01*
X171872873Y-77892873D01*
X171613175Y-78281538D01*
X171521981Y-78740000D01*
X158678019Y-78740000D01*
X158586825Y-78281538D01*
X158327127Y-77892873D01*
X157938462Y-77633175D01*
X157595724Y-77565000D01*
X157364276Y-77565000D01*
X157021538Y-77633175D01*
X156632873Y-77892873D01*
X156373175Y-78281538D01*
X156281981Y-78740000D01*
X156363429Y-79149465D01*
X155694000Y-79818894D01*
X155694000Y-78693106D01*
X157070535Y-77316571D01*
X157364276Y-77375000D01*
X157595724Y-77375000D01*
X157938462Y-77306825D01*
X158327127Y-77047127D01*
X158586825Y-76658462D01*
X158678019Y-76200000D01*
X171521981Y-76200000D01*
X171613175Y-76658462D01*
X171872873Y-77047127D01*
X172261538Y-77306825D01*
X172604276Y-77375000D01*
X172835724Y-77375000D01*
X173178462Y-77306825D01*
X173567127Y-77047127D01*
X173826825Y-76658462D01*
X173918019Y-76200000D01*
X175331981Y-76200000D01*
X175423175Y-76658462D01*
X175682873Y-77047127D01*
X176071538Y-77306825D01*
X176414276Y-77375000D01*
X176645724Y-77375000D01*
X176988462Y-77306825D01*
X177377127Y-77047127D01*
X177636825Y-76658462D01*
X177728019Y-76200000D01*
X177636825Y-75741538D01*
X177377127Y-75352873D01*
X176988462Y-75093175D01*
X176645724Y-75025000D01*
X176414276Y-75025000D01*
X176071538Y-75093175D01*
X175682873Y-75352873D01*
X175423175Y-75741538D01*
X175331981Y-76200000D01*
X173918019Y-76200000D01*
X173826825Y-75741538D01*
X173567127Y-75352873D01*
X173178462Y-75093175D01*
X172835724Y-75025000D01*
X172604276Y-75025000D01*
X172261538Y-75093175D01*
X171872873Y-75352873D01*
X171613175Y-75741538D01*
X171521981Y-76200000D01*
X158678019Y-76200000D01*
X158586825Y-75741538D01*
X158327127Y-75352873D01*
X157938462Y-75093175D01*
X157595724Y-75025000D01*
X157364276Y-75025000D01*
X157021538Y-75093175D01*
X156632873Y-75352873D01*
X156456000Y-75617582D01*
X156456000Y-75391106D01*
X157068374Y-74778733D01*
X157068376Y-74778730D01*
X157070535Y-74776571D01*
X157364276Y-74835000D01*
X157595724Y-74835000D01*
X157938462Y-74766825D01*
X158327127Y-74507127D01*
X158586825Y-74118462D01*
X158678019Y-73660000D01*
X171521981Y-73660000D01*
X171613175Y-74118462D01*
X171872873Y-74507127D01*
X172261538Y-74766825D01*
X172604276Y-74835000D01*
X172835724Y-74835000D01*
X173178462Y-74766825D01*
X173567127Y-74507127D01*
X173826825Y-74118462D01*
X173918019Y-73660000D01*
X175331981Y-73660000D01*
X175423175Y-74118462D01*
X175682873Y-74507127D01*
X176071538Y-74766825D01*
X176414276Y-74835000D01*
X176645724Y-74835000D01*
X176988462Y-74766825D01*
X177377127Y-74507127D01*
X177636825Y-74118462D01*
X177728019Y-73660000D01*
X182951981Y-73660000D01*
X183043175Y-74118462D01*
X183302873Y-74507127D01*
X183691538Y-74766825D01*
X184034276Y-74835000D01*
X184265724Y-74835000D01*
X184608462Y-74766825D01*
X184744391Y-74676000D01*
X186711001Y-74676000D01*
X186806075Y-75153971D01*
X187076824Y-75559176D01*
X187482029Y-75829925D01*
X187839348Y-75901000D01*
X188080652Y-75901000D01*
X188437971Y-75829925D01*
X188843176Y-75559176D01*
X189113925Y-75153971D01*
X189208999Y-74676000D01*
X189113925Y-74198029D01*
X188843176Y-73792824D01*
X188437971Y-73522075D01*
X188080652Y-73451000D01*
X187839348Y-73451000D01*
X187482029Y-73522075D01*
X187076824Y-73792824D01*
X186806075Y-74198029D01*
X186711001Y-74676000D01*
X184744391Y-74676000D01*
X184997127Y-74507127D01*
X185256825Y-74118462D01*
X185348019Y-73660000D01*
X185256825Y-73201538D01*
X184997127Y-72812873D01*
X184608462Y-72553175D01*
X184265724Y-72485000D01*
X184034276Y-72485000D01*
X183691538Y-72553175D01*
X183302873Y-72812873D01*
X183043175Y-73201538D01*
X182951981Y-73660000D01*
X177728019Y-73660000D01*
X177636825Y-73201538D01*
X177377127Y-72812873D01*
X176988462Y-72553175D01*
X176645724Y-72485000D01*
X176414276Y-72485000D01*
X176071538Y-72553175D01*
X175682873Y-72812873D01*
X175423175Y-73201538D01*
X175331981Y-73660000D01*
X173918019Y-73660000D01*
X173826825Y-73201538D01*
X173567127Y-72812873D01*
X173178462Y-72553175D01*
X172835724Y-72485000D01*
X172604276Y-72485000D01*
X172261538Y-72553175D01*
X171872873Y-72812873D01*
X171613175Y-73201538D01*
X171521981Y-73660000D01*
X158678019Y-73660000D01*
X158586825Y-73201538D01*
X158327127Y-72812873D01*
X157938462Y-72553175D01*
X157595724Y-72485000D01*
X157364276Y-72485000D01*
X157021538Y-72553175D01*
X156632873Y-72812873D01*
X156373175Y-73201538D01*
X156281981Y-73660000D01*
X156363429Y-74069465D01*
X156361270Y-74071624D01*
X156361267Y-74071626D01*
X155694000Y-74738894D01*
X155694000Y-73613106D01*
X157068374Y-72238733D01*
X157068376Y-72238730D01*
X157070535Y-72236571D01*
X157364276Y-72295000D01*
X157595724Y-72295000D01*
X157938462Y-72226825D01*
X158327127Y-71967127D01*
X158586825Y-71578462D01*
X158678019Y-71120000D01*
X171521981Y-71120000D01*
X171613175Y-71578462D01*
X171872873Y-71967127D01*
X172261538Y-72226825D01*
X172604276Y-72295000D01*
X172835724Y-72295000D01*
X173178462Y-72226825D01*
X173567127Y-71967127D01*
X173826825Y-71578462D01*
X173918019Y-71120000D01*
X175331981Y-71120000D01*
X175423175Y-71578462D01*
X175682873Y-71967127D01*
X176071538Y-72226825D01*
X176414276Y-72295000D01*
X176645724Y-72295000D01*
X176988462Y-72226825D01*
X177377127Y-71967127D01*
X177636825Y-71578462D01*
X177657635Y-71473843D01*
X178041000Y-71473843D01*
X178041000Y-71782157D01*
X178158987Y-72067002D01*
X178376998Y-72285013D01*
X178661843Y-72403000D01*
X178970157Y-72403000D01*
X179255002Y-72285013D01*
X179412015Y-72128000D01*
X179743985Y-72128000D01*
X179900998Y-72285013D01*
X180185843Y-72403000D01*
X180494157Y-72403000D01*
X180779002Y-72285013D01*
X180997013Y-72067002D01*
X181115000Y-71782157D01*
X181115000Y-71473843D01*
X180997013Y-71188998D01*
X180928015Y-71120000D01*
X182951981Y-71120000D01*
X183043175Y-71578462D01*
X183302873Y-71967127D01*
X183691538Y-72226825D01*
X184034276Y-72295000D01*
X184265724Y-72295000D01*
X184608462Y-72226825D01*
X184744391Y-72136000D01*
X186711001Y-72136000D01*
X186806075Y-72613971D01*
X187076824Y-73019176D01*
X187482029Y-73289925D01*
X187839348Y-73361000D01*
X188080652Y-73361000D01*
X188437971Y-73289925D01*
X188843176Y-73019176D01*
X189113925Y-72613971D01*
X189208999Y-72136000D01*
X189113925Y-71658029D01*
X188843176Y-71252824D01*
X188437971Y-70982075D01*
X188080652Y-70911000D01*
X187839348Y-70911000D01*
X187482029Y-70982075D01*
X187076824Y-71252824D01*
X186806075Y-71658029D01*
X186711001Y-72136000D01*
X184744391Y-72136000D01*
X184997127Y-71967127D01*
X185256825Y-71578462D01*
X185348019Y-71120000D01*
X185256825Y-70661538D01*
X184997127Y-70272873D01*
X184608462Y-70013175D01*
X184265724Y-69945000D01*
X184034276Y-69945000D01*
X183691538Y-70013175D01*
X183302873Y-70272873D01*
X183043175Y-70661538D01*
X182951981Y-71120000D01*
X180928015Y-71120000D01*
X180779002Y-70970987D01*
X180494157Y-70853000D01*
X180185843Y-70853000D01*
X179900998Y-70970987D01*
X179743985Y-71128000D01*
X179412015Y-71128000D01*
X179255002Y-70970987D01*
X178970157Y-70853000D01*
X178661843Y-70853000D01*
X178376998Y-70970987D01*
X178158987Y-71188998D01*
X178041000Y-71473843D01*
X177657635Y-71473843D01*
X177728019Y-71120000D01*
X177636825Y-70661538D01*
X177377127Y-70272873D01*
X176988462Y-70013175D01*
X176645724Y-69945000D01*
X176414276Y-69945000D01*
X176071538Y-70013175D01*
X175682873Y-70272873D01*
X175423175Y-70661538D01*
X175331981Y-71120000D01*
X173918019Y-71120000D01*
X173826825Y-70661538D01*
X173567127Y-70272873D01*
X173178462Y-70013175D01*
X172835724Y-69945000D01*
X172604276Y-69945000D01*
X172261538Y-70013175D01*
X171872873Y-70272873D01*
X171613175Y-70661538D01*
X171521981Y-71120000D01*
X158678019Y-71120000D01*
X158586825Y-70661538D01*
X158327127Y-70272873D01*
X157938462Y-70013175D01*
X157595724Y-69945000D01*
X157364276Y-69945000D01*
X157021538Y-70013175D01*
X156632873Y-70272873D01*
X156456000Y-70537582D01*
X156456000Y-70311106D01*
X157068374Y-69698733D01*
X157068376Y-69698730D01*
X157070535Y-69696571D01*
X157364276Y-69755000D01*
X157595724Y-69755000D01*
X157938462Y-69686825D01*
X158327127Y-69427127D01*
X158586825Y-69038462D01*
X158678019Y-68580000D01*
X171521981Y-68580000D01*
X171613175Y-69038462D01*
X171872873Y-69427127D01*
X172261538Y-69686825D01*
X172604276Y-69755000D01*
X172835724Y-69755000D01*
X173178462Y-69686825D01*
X173567127Y-69427127D01*
X173826825Y-69038462D01*
X173918019Y-68580000D01*
X175331981Y-68580000D01*
X175423175Y-69038462D01*
X175682873Y-69427127D01*
X176071538Y-69686825D01*
X176414276Y-69755000D01*
X176645724Y-69755000D01*
X176988462Y-69686825D01*
X177377127Y-69427127D01*
X177636825Y-69038462D01*
X177728019Y-68580000D01*
X177636825Y-68121538D01*
X177377127Y-67732873D01*
X176988462Y-67473175D01*
X176645724Y-67405000D01*
X176414276Y-67405000D01*
X176071538Y-67473175D01*
X175682873Y-67732873D01*
X175423175Y-68121538D01*
X175331981Y-68580000D01*
X173918019Y-68580000D01*
X173826825Y-68121538D01*
X173567127Y-67732873D01*
X173178462Y-67473175D01*
X172835724Y-67405000D01*
X172604276Y-67405000D01*
X172261538Y-67473175D01*
X171872873Y-67732873D01*
X171613175Y-68121538D01*
X171521981Y-68580000D01*
X158678019Y-68580000D01*
X158586825Y-68121538D01*
X158378662Y-67810000D01*
X158446759Y-67810000D01*
X158496000Y-67819795D01*
X158545241Y-67810000D01*
X158545243Y-67810000D01*
X158691090Y-67780989D01*
X158856480Y-67670480D01*
X158884376Y-67628730D01*
X159444107Y-67069000D01*
X159666157Y-67069000D01*
X159951002Y-66951013D01*
X160169013Y-66733002D01*
X160287000Y-66448157D01*
X160287000Y-66139843D01*
X160245644Y-66040000D01*
X171521981Y-66040000D01*
X171613175Y-66498462D01*
X171872873Y-66887127D01*
X172261538Y-67146825D01*
X172604276Y-67215000D01*
X172835724Y-67215000D01*
X173178462Y-67146825D01*
X173567127Y-66887127D01*
X173826825Y-66498462D01*
X173918019Y-66040000D01*
X175331981Y-66040000D01*
X175423175Y-66498462D01*
X175682873Y-66887127D01*
X176071538Y-67146825D01*
X176414276Y-67215000D01*
X176645724Y-67215000D01*
X176988462Y-67146825D01*
X177377127Y-66887127D01*
X177636825Y-66498462D01*
X177728019Y-66040000D01*
X177636825Y-65581538D01*
X177377127Y-65192873D01*
X176988462Y-64933175D01*
X176645724Y-64865000D01*
X176414276Y-64865000D01*
X176071538Y-64933175D01*
X175682873Y-65192873D01*
X175423175Y-65581538D01*
X175331981Y-66040000D01*
X173918019Y-66040000D01*
X173826825Y-65581538D01*
X173567127Y-65192873D01*
X173178462Y-64933175D01*
X172835724Y-64865000D01*
X172604276Y-64865000D01*
X172261538Y-64933175D01*
X171872873Y-65192873D01*
X171613175Y-65581538D01*
X171521981Y-66040000D01*
X160245644Y-66040000D01*
X160169013Y-65854998D01*
X159951002Y-65636987D01*
X159666157Y-65519000D01*
X159357843Y-65519000D01*
X159072998Y-65636987D01*
X158854987Y-65854998D01*
X158737000Y-66139843D01*
X158737000Y-66361893D01*
X158559426Y-66539468D01*
X158586825Y-66498462D01*
X158678019Y-66040000D01*
X158586825Y-65581538D01*
X158327127Y-65192873D01*
X157938462Y-64933175D01*
X157595724Y-64865000D01*
X157364276Y-64865000D01*
X157021538Y-64933175D01*
X156632873Y-65192873D01*
X156373175Y-65581538D01*
X156281981Y-66040000D01*
X156373175Y-66498462D01*
X156581338Y-66810000D01*
X156513246Y-66810000D01*
X156464000Y-66800204D01*
X156304834Y-66831865D01*
X156268910Y-66839011D01*
X156103520Y-66949520D01*
X156075623Y-66991271D01*
X156000270Y-67066624D01*
X156000267Y-67066626D01*
X154621268Y-68445626D01*
X154579521Y-68473520D01*
X154551627Y-68515267D01*
X154469012Y-68638910D01*
X154430205Y-68834000D01*
X154440001Y-68883246D01*
X154440000Y-70912893D01*
X152809465Y-72543429D01*
X152515724Y-72485000D01*
X152284276Y-72485000D01*
X151941538Y-72553175D01*
X151552873Y-72812873D01*
X151293175Y-73201538D01*
X151201981Y-73660000D01*
X151293175Y-74118462D01*
X151552873Y-74507127D01*
X151941538Y-74766825D01*
X152284276Y-74835000D01*
X152515724Y-74835000D01*
X152858462Y-74766825D01*
X153247127Y-74507127D01*
X153506825Y-74118462D01*
X153598019Y-73660000D01*
X153516571Y-73250535D01*
X155258733Y-71508374D01*
X155300480Y-71480480D01*
X155410989Y-71315090D01*
X155440000Y-71169243D01*
X155440000Y-71169242D01*
X155449795Y-71120001D01*
X155440000Y-71070760D01*
X155440000Y-69041106D01*
X156400574Y-68080533D01*
X156373175Y-68121538D01*
X156281981Y-68580000D01*
X156363429Y-68989465D01*
X156361270Y-68991624D01*
X156361267Y-68991626D01*
X155637268Y-69715626D01*
X155595521Y-69743520D01*
X155567627Y-69785267D01*
X155485012Y-69908910D01*
X155446205Y-70104000D01*
X155456001Y-70153246D01*
X155456000Y-71420893D01*
X154113268Y-72763626D01*
X154071521Y-72791520D01*
X154043627Y-72833267D01*
X153961012Y-72956910D01*
X153922205Y-73152000D01*
X153932001Y-73201246D01*
X153932000Y-76500893D01*
X152809465Y-77623429D01*
X152515724Y-77565000D01*
X152284276Y-77565000D01*
X151941538Y-77633175D01*
X151552873Y-77892873D01*
X151293175Y-78281538D01*
X151201981Y-78740000D01*
X151293175Y-79198462D01*
X151552873Y-79587127D01*
X151941538Y-79846825D01*
X152284276Y-79915000D01*
X152515724Y-79915000D01*
X152858462Y-79846825D01*
X153247127Y-79587127D01*
X153506825Y-79198462D01*
X153598019Y-78740000D01*
X153516571Y-78330535D01*
X153620012Y-78227095D01*
X153620011Y-79352882D01*
X152809465Y-80163429D01*
X152515724Y-80105000D01*
X152284276Y-80105000D01*
X151941538Y-80173175D01*
X151552873Y-80432873D01*
X151293175Y-80821538D01*
X151201981Y-81280000D01*
X151293175Y-81738462D01*
X151501338Y-82050000D01*
X150417240Y-82050000D01*
X150367999Y-82040205D01*
X150318758Y-82050000D01*
X150318757Y-82050000D01*
X150172910Y-82079011D01*
X150007520Y-82189520D01*
X149979626Y-82231267D01*
X149165894Y-83045000D01*
X148943843Y-83045000D01*
X148658998Y-83162987D01*
X148440987Y-83380998D01*
X148323000Y-83665843D01*
X145947356Y-83665843D01*
X145886825Y-83361538D01*
X145627127Y-82972873D01*
X145238462Y-82713175D01*
X144895724Y-82645000D01*
X144664276Y-82645000D01*
X144321538Y-82713175D01*
X143932873Y-82972873D01*
X143673175Y-83361538D01*
X143581981Y-83820000D01*
X137610000Y-83820000D01*
X137610000Y-81280000D01*
X138451001Y-81280000D01*
X138546075Y-81757971D01*
X138816824Y-82163176D01*
X139222029Y-82433925D01*
X139579348Y-82505000D01*
X139820652Y-82505000D01*
X140177971Y-82433925D01*
X140583176Y-82163176D01*
X140853925Y-81757971D01*
X140948999Y-81280000D01*
X143581981Y-81280000D01*
X143673175Y-81738462D01*
X143932873Y-82127127D01*
X144321538Y-82386825D01*
X144664276Y-82455000D01*
X144895724Y-82455000D01*
X145238462Y-82386825D01*
X145627127Y-82127127D01*
X145886825Y-81738462D01*
X145978019Y-81280000D01*
X145886825Y-80821538D01*
X145627127Y-80432873D01*
X145238462Y-80173175D01*
X144895724Y-80105000D01*
X144664276Y-80105000D01*
X144321538Y-80173175D01*
X143932873Y-80432873D01*
X143673175Y-80821538D01*
X143581981Y-81280000D01*
X140948999Y-81280000D01*
X140853925Y-80802029D01*
X140583176Y-80396824D01*
X140177971Y-80126075D01*
X139820652Y-80055000D01*
X139579348Y-80055000D01*
X139222029Y-80126075D01*
X138816824Y-80396824D01*
X138546075Y-80802029D01*
X138451001Y-81280000D01*
X137610000Y-81280000D01*
X137610000Y-78740000D01*
X138451001Y-78740000D01*
X138546075Y-79217971D01*
X138816824Y-79623176D01*
X139222029Y-79893925D01*
X139579348Y-79965000D01*
X139820652Y-79965000D01*
X140177971Y-79893925D01*
X140583176Y-79623176D01*
X140853925Y-79217971D01*
X140948999Y-78740000D01*
X140853925Y-78262029D01*
X140583176Y-77856824D01*
X140177971Y-77586075D01*
X139820652Y-77515000D01*
X139579348Y-77515000D01*
X139222029Y-77586075D01*
X138816824Y-77856824D01*
X138546075Y-78262029D01*
X138451001Y-78740000D01*
X137610000Y-78740000D01*
X137610000Y-76200000D01*
X138451001Y-76200000D01*
X138546075Y-76677971D01*
X138816824Y-77083176D01*
X139222029Y-77353925D01*
X139579348Y-77425000D01*
X139820652Y-77425000D01*
X140151987Y-77359093D01*
X141740000Y-78947107D01*
X141740001Y-79649068D01*
X141740000Y-79649073D01*
X141740000Y-79667985D01*
X141582987Y-79824998D01*
X141465000Y-80109843D01*
X141465000Y-80418157D01*
X141582987Y-80703002D01*
X141800998Y-80921013D01*
X142085843Y-81039000D01*
X142394157Y-81039000D01*
X142679002Y-80921013D01*
X142897013Y-80703002D01*
X143015000Y-80418157D01*
X143015000Y-80109843D01*
X142897013Y-79824998D01*
X142740000Y-79667985D01*
X142740000Y-78789240D01*
X142749794Y-78740000D01*
X143581981Y-78740000D01*
X143673175Y-79198462D01*
X143932873Y-79587127D01*
X144321538Y-79846825D01*
X144664276Y-79915000D01*
X144895724Y-79915000D01*
X145238462Y-79846825D01*
X145627127Y-79587127D01*
X145886825Y-79198462D01*
X145978019Y-78740000D01*
X145886825Y-78281538D01*
X145627127Y-77892873D01*
X145238462Y-77633175D01*
X144895724Y-77565000D01*
X144664276Y-77565000D01*
X144321538Y-77633175D01*
X143932873Y-77892873D01*
X143673175Y-78281538D01*
X143581981Y-78740000D01*
X142749794Y-78740000D01*
X142749795Y-78739999D01*
X142738077Y-78681090D01*
X142710989Y-78544910D01*
X142600480Y-78379520D01*
X142558733Y-78351626D01*
X140859093Y-76651987D01*
X140948999Y-76200000D01*
X143581981Y-76200000D01*
X143673175Y-76658462D01*
X143932873Y-77047127D01*
X144321538Y-77306825D01*
X144664276Y-77375000D01*
X144895724Y-77375000D01*
X145238462Y-77306825D01*
X145627127Y-77047127D01*
X145886825Y-76658462D01*
X145978019Y-76200000D01*
X151201981Y-76200000D01*
X151293175Y-76658462D01*
X151552873Y-77047127D01*
X151941538Y-77306825D01*
X152284276Y-77375000D01*
X152515724Y-77375000D01*
X152858462Y-77306825D01*
X153247127Y-77047127D01*
X153506825Y-76658462D01*
X153598019Y-76200000D01*
X153506825Y-75741538D01*
X153247127Y-75352873D01*
X152858462Y-75093175D01*
X152515724Y-75025000D01*
X152284276Y-75025000D01*
X151941538Y-75093175D01*
X151552873Y-75352873D01*
X151293175Y-75741538D01*
X151201981Y-76200000D01*
X145978019Y-76200000D01*
X145886825Y-75741538D01*
X145627127Y-75352873D01*
X145238462Y-75093175D01*
X144895724Y-75025000D01*
X144664276Y-75025000D01*
X144321538Y-75093175D01*
X143932873Y-75352873D01*
X143673175Y-75741538D01*
X143581981Y-76200000D01*
X140948999Y-76200000D01*
X140853925Y-75722029D01*
X140583176Y-75316824D01*
X140177971Y-75046075D01*
X139820652Y-74975000D01*
X139579348Y-74975000D01*
X139222029Y-75046075D01*
X138816824Y-75316824D01*
X138546075Y-75722029D01*
X138451001Y-76200000D01*
X137610000Y-76200000D01*
X137610000Y-73660000D01*
X138451001Y-73660000D01*
X138546075Y-74137971D01*
X138816824Y-74543176D01*
X139222029Y-74813925D01*
X139579348Y-74885000D01*
X139820652Y-74885000D01*
X140177971Y-74813925D01*
X140583176Y-74543176D01*
X140853925Y-74137971D01*
X140948999Y-73660000D01*
X143581981Y-73660000D01*
X143673175Y-74118462D01*
X143932873Y-74507127D01*
X144321538Y-74766825D01*
X144664276Y-74835000D01*
X144895724Y-74835000D01*
X145238462Y-74766825D01*
X145627127Y-74507127D01*
X145886825Y-74118462D01*
X145978019Y-73660000D01*
X145886825Y-73201538D01*
X145627127Y-72812873D01*
X145238462Y-72553175D01*
X144895724Y-72485000D01*
X144664276Y-72485000D01*
X144321538Y-72553175D01*
X143932873Y-72812873D01*
X143673175Y-73201538D01*
X143581981Y-73660000D01*
X140948999Y-73660000D01*
X140853925Y-73182029D01*
X140583176Y-72776824D01*
X140177971Y-72506075D01*
X139820652Y-72435000D01*
X139579348Y-72435000D01*
X139222029Y-72506075D01*
X138816824Y-72776824D01*
X138546075Y-73182029D01*
X138451001Y-73660000D01*
X137610000Y-73660000D01*
X137610000Y-70270000D01*
X138467654Y-70270000D01*
X138467654Y-71970000D01*
X138496758Y-72116317D01*
X138579641Y-72240359D01*
X138703683Y-72323242D01*
X138850000Y-72352346D01*
X140550000Y-72352346D01*
X140696317Y-72323242D01*
X140820359Y-72240359D01*
X140903242Y-72116317D01*
X140932346Y-71970000D01*
X140932346Y-71120000D01*
X143581981Y-71120000D01*
X143673175Y-71578462D01*
X143932873Y-71967127D01*
X144321538Y-72226825D01*
X144664276Y-72295000D01*
X144895724Y-72295000D01*
X145238462Y-72226825D01*
X145627127Y-71967127D01*
X145886825Y-71578462D01*
X145978019Y-71120000D01*
X151201981Y-71120000D01*
X151293175Y-71578462D01*
X151552873Y-71967127D01*
X151941538Y-72226825D01*
X152284276Y-72295000D01*
X152515724Y-72295000D01*
X152858462Y-72226825D01*
X153247127Y-71967127D01*
X153506825Y-71578462D01*
X153598019Y-71120000D01*
X153506825Y-70661538D01*
X153247127Y-70272873D01*
X152858462Y-70013175D01*
X152515724Y-69945000D01*
X152284276Y-69945000D01*
X151941538Y-70013175D01*
X151552873Y-70272873D01*
X151293175Y-70661538D01*
X151201981Y-71120000D01*
X145978019Y-71120000D01*
X145886825Y-70661538D01*
X145627127Y-70272873D01*
X145238462Y-70013175D01*
X144895724Y-69945000D01*
X144664276Y-69945000D01*
X144321538Y-70013175D01*
X143932873Y-70272873D01*
X143673175Y-70661538D01*
X143581981Y-71120000D01*
X140932346Y-71120000D01*
X140932346Y-70270000D01*
X140903242Y-70123683D01*
X140820359Y-69999641D01*
X140696317Y-69916758D01*
X140550000Y-69887654D01*
X138850000Y-69887654D01*
X138703683Y-69916758D01*
X138579641Y-69999641D01*
X138496758Y-70123683D01*
X138467654Y-70270000D01*
X137610000Y-70270000D01*
X137610000Y-68580000D01*
X143581981Y-68580000D01*
X143673175Y-69038462D01*
X143932873Y-69427127D01*
X144321538Y-69686825D01*
X144664276Y-69755000D01*
X144895724Y-69755000D01*
X145238462Y-69686825D01*
X145627127Y-69427127D01*
X145886825Y-69038462D01*
X145978019Y-68580000D01*
X151201981Y-68580000D01*
X151293175Y-69038462D01*
X151552873Y-69427127D01*
X151941538Y-69686825D01*
X152284276Y-69755000D01*
X152515724Y-69755000D01*
X152858462Y-69686825D01*
X153247127Y-69427127D01*
X153506825Y-69038462D01*
X153598019Y-68580000D01*
X153506825Y-68121538D01*
X153247127Y-67732873D01*
X152858462Y-67473175D01*
X152515724Y-67405000D01*
X152284276Y-67405000D01*
X151941538Y-67473175D01*
X151552873Y-67732873D01*
X151293175Y-68121538D01*
X151201981Y-68580000D01*
X145978019Y-68580000D01*
X145886825Y-68121538D01*
X145627127Y-67732873D01*
X145238462Y-67473175D01*
X144895724Y-67405000D01*
X144664276Y-67405000D01*
X144321538Y-67473175D01*
X143932873Y-67732873D01*
X143673175Y-68121538D01*
X143581981Y-68580000D01*
X137610000Y-68580000D01*
X137610000Y-66040000D01*
X143581981Y-66040000D01*
X143673175Y-66498462D01*
X143932873Y-66887127D01*
X144321538Y-67146825D01*
X144664276Y-67215000D01*
X144895724Y-67215000D01*
X145238462Y-67146825D01*
X145627127Y-66887127D01*
X145886825Y-66498462D01*
X145978019Y-66040000D01*
X151201981Y-66040000D01*
X151293175Y-66498462D01*
X151552873Y-66887127D01*
X151941538Y-67146825D01*
X152284276Y-67215000D01*
X152515724Y-67215000D01*
X152858462Y-67146825D01*
X153247127Y-66887127D01*
X153506825Y-66498462D01*
X153598019Y-66040000D01*
X153506825Y-65581538D01*
X153247127Y-65192873D01*
X152858462Y-64933175D01*
X152515724Y-64865000D01*
X152284276Y-64865000D01*
X151941538Y-64933175D01*
X151552873Y-65192873D01*
X151293175Y-65581538D01*
X151201981Y-66040000D01*
X145978019Y-66040000D01*
X145886825Y-65581538D01*
X145627127Y-65192873D01*
X145238462Y-64933175D01*
X144895724Y-64865000D01*
X144664276Y-64865000D01*
X144321538Y-64933175D01*
X143932873Y-65192873D01*
X143673175Y-65581538D01*
X143581981Y-66040000D01*
X137610000Y-66040000D01*
X137610000Y-63266278D01*
X138525000Y-63266278D01*
X138525000Y-63733722D01*
X138703883Y-64165584D01*
X139034416Y-64496117D01*
X139466278Y-64675000D01*
X139933722Y-64675000D01*
X140365584Y-64496117D01*
X140696117Y-64165584D01*
X140875000Y-63733722D01*
X140875000Y-63500000D01*
X143581981Y-63500000D01*
X143673175Y-63958462D01*
X143932873Y-64347127D01*
X144321538Y-64606825D01*
X144664276Y-64675000D01*
X144895724Y-64675000D01*
X145238462Y-64606825D01*
X145627127Y-64347127D01*
X145886825Y-63958462D01*
X145978019Y-63500000D01*
X151201981Y-63500000D01*
X151293175Y-63958462D01*
X151552873Y-64347127D01*
X151941538Y-64606825D01*
X152284276Y-64675000D01*
X152515724Y-64675000D01*
X152858462Y-64606825D01*
X153247127Y-64347127D01*
X153506825Y-63958462D01*
X153598019Y-63500000D01*
X153506825Y-63041538D01*
X153247127Y-62652873D01*
X152858462Y-62393175D01*
X152515724Y-62325000D01*
X152284276Y-62325000D01*
X151941538Y-62393175D01*
X151552873Y-62652873D01*
X151293175Y-63041538D01*
X151201981Y-63500000D01*
X145978019Y-63500000D01*
X145886825Y-63041538D01*
X145627127Y-62652873D01*
X145238462Y-62393175D01*
X144895724Y-62325000D01*
X144664276Y-62325000D01*
X144321538Y-62393175D01*
X143932873Y-62652873D01*
X143673175Y-63041538D01*
X143581981Y-63500000D01*
X140875000Y-63500000D01*
X140875000Y-63266278D01*
X140696117Y-62834416D01*
X140365584Y-62503883D01*
X139933722Y-62325000D01*
X139466278Y-62325000D01*
X139034416Y-62503883D01*
X138703883Y-62834416D01*
X138525000Y-63266278D01*
X137610000Y-63266278D01*
X137610000Y-60960000D01*
X143581981Y-60960000D01*
X143673175Y-61418462D01*
X143932873Y-61807127D01*
X144321538Y-62066825D01*
X144664276Y-62135000D01*
X144895724Y-62135000D01*
X145238462Y-62066825D01*
X145627127Y-61807127D01*
X145886825Y-61418462D01*
X145978019Y-60960000D01*
X151201981Y-60960000D01*
X151293175Y-61418462D01*
X151552873Y-61807127D01*
X151941538Y-62066825D01*
X152284276Y-62135000D01*
X152515724Y-62135000D01*
X152858462Y-62066825D01*
X153247127Y-61807127D01*
X153506825Y-61418462D01*
X153598019Y-60960000D01*
X153566430Y-60801190D01*
X154414347Y-60801190D01*
X154414347Y-61109504D01*
X154532334Y-61394349D01*
X154750345Y-61612360D01*
X155035190Y-61730347D01*
X155257241Y-61730347D01*
X156075625Y-62548732D01*
X156103520Y-62590480D01*
X156196899Y-62652873D01*
X156268910Y-62700989D01*
X156464000Y-62739796D01*
X156513246Y-62730000D01*
X156581338Y-62730000D01*
X156373175Y-63041538D01*
X156281981Y-63500000D01*
X156373175Y-63958462D01*
X156632873Y-64347127D01*
X157021538Y-64606825D01*
X157364276Y-64675000D01*
X157595724Y-64675000D01*
X157938462Y-64606825D01*
X158327127Y-64347127D01*
X158586825Y-63958462D01*
X158678019Y-63500000D01*
X158586825Y-63041538D01*
X158559438Y-63000550D01*
X158990994Y-63432107D01*
X158990994Y-63654157D01*
X159108981Y-63939002D01*
X159326992Y-64157013D01*
X159611837Y-64275000D01*
X159920151Y-64275000D01*
X160204996Y-64157013D01*
X160423007Y-63939002D01*
X160540994Y-63654157D01*
X160540994Y-63500000D01*
X171521981Y-63500000D01*
X171613175Y-63958462D01*
X171872873Y-64347127D01*
X172261538Y-64606825D01*
X172604276Y-64675000D01*
X172835724Y-64675000D01*
X173178462Y-64606825D01*
X173567127Y-64347127D01*
X173826825Y-63958462D01*
X173918019Y-63500000D01*
X175331981Y-63500000D01*
X175423175Y-63958462D01*
X175682873Y-64347127D01*
X176071538Y-64606825D01*
X176414276Y-64675000D01*
X176645724Y-64675000D01*
X176988462Y-64606825D01*
X177377127Y-64347127D01*
X177636825Y-63958462D01*
X177708158Y-63599843D01*
X181343000Y-63599843D01*
X181343000Y-63908157D01*
X181460987Y-64193002D01*
X181678998Y-64411013D01*
X181872001Y-64490958D01*
X181872000Y-66752759D01*
X181862205Y-66802000D01*
X181872000Y-66851241D01*
X181872000Y-66851242D01*
X181901011Y-66997089D01*
X182011520Y-67162480D01*
X182053270Y-67190376D01*
X182105000Y-67242106D01*
X182105000Y-67464157D01*
X182222987Y-67749002D01*
X182440998Y-67967013D01*
X182725843Y-68085000D01*
X183034157Y-68085000D01*
X183080383Y-68065853D01*
X183043175Y-68121538D01*
X182951981Y-68580000D01*
X183043175Y-69038462D01*
X183302873Y-69427127D01*
X183691538Y-69686825D01*
X184034276Y-69755000D01*
X184265724Y-69755000D01*
X184608462Y-69686825D01*
X184997127Y-69427127D01*
X185256825Y-69038462D01*
X185348019Y-68580000D01*
X185256825Y-68121538D01*
X184997127Y-67732873D01*
X184608462Y-67473175D01*
X184265724Y-67405000D01*
X184034276Y-67405000D01*
X183691538Y-67473175D01*
X183635853Y-67510383D01*
X183655000Y-67464157D01*
X183655000Y-67155843D01*
X183635853Y-67109617D01*
X183691538Y-67146825D01*
X184034276Y-67215000D01*
X184265724Y-67215000D01*
X184608462Y-67146825D01*
X184744391Y-67056000D01*
X186711001Y-67056000D01*
X186806075Y-67533971D01*
X187076824Y-67939176D01*
X187482029Y-68209925D01*
X187839348Y-68281000D01*
X188080652Y-68281000D01*
X188437971Y-68209925D01*
X188843176Y-67939176D01*
X189113925Y-67533971D01*
X189208999Y-67056000D01*
X189113925Y-66578029D01*
X188843176Y-66172824D01*
X188437971Y-65902075D01*
X188080652Y-65831000D01*
X187839348Y-65831000D01*
X187482029Y-65902075D01*
X187076824Y-66172824D01*
X186806075Y-66578029D01*
X186711001Y-67056000D01*
X184744391Y-67056000D01*
X184997127Y-66887127D01*
X185256825Y-66498462D01*
X185348019Y-66040000D01*
X185256825Y-65581538D01*
X184997127Y-65192873D01*
X184608462Y-64933175D01*
X184265724Y-64865000D01*
X184034276Y-64865000D01*
X183691538Y-64933175D01*
X183302873Y-65192873D01*
X183043175Y-65581538D01*
X182951981Y-66040000D01*
X183043175Y-66498462D01*
X183080383Y-66554147D01*
X183034157Y-66535000D01*
X182872000Y-66535000D01*
X182872000Y-64057240D01*
X182881795Y-64007999D01*
X182872013Y-63958824D01*
X182893000Y-63908157D01*
X182893000Y-63599843D01*
X182851644Y-63500000D01*
X182951981Y-63500000D01*
X183043175Y-63958462D01*
X183302873Y-64347127D01*
X183691538Y-64606825D01*
X184034276Y-64675000D01*
X184265724Y-64675000D01*
X184608462Y-64606825D01*
X184744391Y-64516000D01*
X186711001Y-64516000D01*
X186806075Y-64993971D01*
X187076824Y-65399176D01*
X187482029Y-65669925D01*
X187839348Y-65741000D01*
X188080652Y-65741000D01*
X188437971Y-65669925D01*
X188843176Y-65399176D01*
X189113925Y-64993971D01*
X189208999Y-64516000D01*
X189113925Y-64038029D01*
X188843176Y-63632824D01*
X188437971Y-63362075D01*
X188080652Y-63291000D01*
X187839348Y-63291000D01*
X187482029Y-63362075D01*
X187076824Y-63632824D01*
X186806075Y-64038029D01*
X186711001Y-64516000D01*
X184744391Y-64516000D01*
X184997127Y-64347127D01*
X185256825Y-63958462D01*
X185348019Y-63500000D01*
X185256825Y-63041538D01*
X184997127Y-62652873D01*
X184608462Y-62393175D01*
X184265724Y-62325000D01*
X184034276Y-62325000D01*
X183691538Y-62393175D01*
X183302873Y-62652873D01*
X183043175Y-63041538D01*
X182951981Y-63500000D01*
X182851644Y-63500000D01*
X182775013Y-63314998D01*
X182557002Y-63096987D01*
X182272157Y-62979000D01*
X181963843Y-62979000D01*
X181678998Y-63096987D01*
X181460987Y-63314998D01*
X181343000Y-63599843D01*
X177708158Y-63599843D01*
X177728019Y-63500000D01*
X177636825Y-63041538D01*
X177377127Y-62652873D01*
X176988462Y-62393175D01*
X176645724Y-62325000D01*
X176414276Y-62325000D01*
X176071538Y-62393175D01*
X175682873Y-62652873D01*
X175423175Y-63041538D01*
X175331981Y-63500000D01*
X173918019Y-63500000D01*
X173826825Y-63041538D01*
X173567127Y-62652873D01*
X173178462Y-62393175D01*
X172835724Y-62325000D01*
X172604276Y-62325000D01*
X172261538Y-62393175D01*
X171872873Y-62652873D01*
X171613175Y-63041538D01*
X171521981Y-63500000D01*
X160540994Y-63500000D01*
X160540994Y-63345843D01*
X160423007Y-63060998D01*
X160204996Y-62842987D01*
X159920151Y-62725000D01*
X159698101Y-62725000D01*
X158884370Y-61911270D01*
X158856474Y-61869520D01*
X158691084Y-61759011D01*
X158545237Y-61730000D01*
X158545235Y-61730000D01*
X158495994Y-61720205D01*
X158446753Y-61730000D01*
X158378662Y-61730000D01*
X158586825Y-61418462D01*
X158678019Y-60960000D01*
X171521981Y-60960000D01*
X171613175Y-61418462D01*
X171872873Y-61807127D01*
X172261538Y-62066825D01*
X172604276Y-62135000D01*
X172835724Y-62135000D01*
X173178462Y-62066825D01*
X173567127Y-61807127D01*
X173826825Y-61418462D01*
X173918019Y-60960000D01*
X175331981Y-60960000D01*
X175423175Y-61418462D01*
X175682873Y-61807127D01*
X176071538Y-62066825D01*
X176414276Y-62135000D01*
X176645724Y-62135000D01*
X176988462Y-62066825D01*
X177124391Y-61976000D01*
X186711001Y-61976000D01*
X186806075Y-62453971D01*
X187076824Y-62859176D01*
X187482029Y-63129925D01*
X187839348Y-63201000D01*
X188080652Y-63201000D01*
X188437971Y-63129925D01*
X188843176Y-62859176D01*
X189113925Y-62453971D01*
X189208999Y-61976000D01*
X189113925Y-61498029D01*
X188843176Y-61092824D01*
X188437971Y-60822075D01*
X188080652Y-60751000D01*
X187839348Y-60751000D01*
X187482029Y-60822075D01*
X187076824Y-61092824D01*
X186806075Y-61498029D01*
X186711001Y-61976000D01*
X177124391Y-61976000D01*
X177377127Y-61807127D01*
X177636825Y-61418462D01*
X177728019Y-60960000D01*
X177636825Y-60501538D01*
X177377127Y-60112873D01*
X176988462Y-59853175D01*
X176645724Y-59785000D01*
X176414276Y-59785000D01*
X176071538Y-59853175D01*
X175682873Y-60112873D01*
X175423175Y-60501538D01*
X175331981Y-60960000D01*
X173918019Y-60960000D01*
X173826825Y-60501538D01*
X173567127Y-60112873D01*
X173178462Y-59853175D01*
X172835724Y-59785000D01*
X172604276Y-59785000D01*
X172261538Y-59853175D01*
X171872873Y-60112873D01*
X171613175Y-60501538D01*
X171521981Y-60960000D01*
X158678019Y-60960000D01*
X158586825Y-60501538D01*
X158327127Y-60112873D01*
X157938462Y-59853175D01*
X157595724Y-59785000D01*
X157364276Y-59785000D01*
X157021538Y-59853175D01*
X156632873Y-60112873D01*
X156373175Y-60501538D01*
X156281981Y-60960000D01*
X156373175Y-61418462D01*
X156400574Y-61459467D01*
X155964347Y-61023241D01*
X155964347Y-60801190D01*
X155846360Y-60516345D01*
X155628349Y-60298334D01*
X155343504Y-60180347D01*
X155035190Y-60180347D01*
X154750345Y-60298334D01*
X154532334Y-60516345D01*
X154414347Y-60801190D01*
X153566430Y-60801190D01*
X153506825Y-60501538D01*
X153247127Y-60112873D01*
X152858462Y-59853175D01*
X152515724Y-59785000D01*
X152284276Y-59785000D01*
X151941538Y-59853175D01*
X151552873Y-60112873D01*
X151293175Y-60501538D01*
X151201981Y-60960000D01*
X145978019Y-60960000D01*
X145886825Y-60501538D01*
X145627127Y-60112873D01*
X145238462Y-59853175D01*
X144895724Y-59785000D01*
X144664276Y-59785000D01*
X144321538Y-59853175D01*
X143932873Y-60112873D01*
X143673175Y-60501538D01*
X143581981Y-60960000D01*
X137610000Y-60960000D01*
X137610000Y-58186278D01*
X138525000Y-58186278D01*
X138525000Y-58653722D01*
X138703883Y-59085584D01*
X139034416Y-59416117D01*
X139466278Y-59595000D01*
X139933722Y-59595000D01*
X140365584Y-59416117D01*
X140696117Y-59085584D01*
X140875000Y-58653722D01*
X140875000Y-58186278D01*
X140696117Y-57754416D01*
X140561701Y-57620000D01*
X143597654Y-57620000D01*
X143597654Y-59220000D01*
X143626758Y-59366317D01*
X143709641Y-59490359D01*
X143833683Y-59573242D01*
X143980000Y-59602346D01*
X145580000Y-59602346D01*
X145726317Y-59573242D01*
X145850359Y-59490359D01*
X145933242Y-59366317D01*
X145962346Y-59220000D01*
X145962346Y-58420000D01*
X151201981Y-58420000D01*
X151293175Y-58878462D01*
X151552873Y-59267127D01*
X151941538Y-59526825D01*
X152284276Y-59595000D01*
X152515724Y-59595000D01*
X152858462Y-59526825D01*
X153247127Y-59267127D01*
X153506825Y-58878462D01*
X153598019Y-58420000D01*
X171521981Y-58420000D01*
X171613175Y-58878462D01*
X171872873Y-59267127D01*
X172261538Y-59526825D01*
X172604276Y-59595000D01*
X172835724Y-59595000D01*
X173178462Y-59526825D01*
X173567127Y-59267127D01*
X173826825Y-58878462D01*
X173918019Y-58420000D01*
X173826825Y-57961538D01*
X173567127Y-57572873D01*
X173178462Y-57313175D01*
X172835724Y-57245000D01*
X172604276Y-57245000D01*
X172261538Y-57313175D01*
X171872873Y-57572873D01*
X171613175Y-57961538D01*
X171521981Y-58420000D01*
X153598019Y-58420000D01*
X153506825Y-57961538D01*
X153247127Y-57572873D01*
X152858462Y-57313175D01*
X152515724Y-57245000D01*
X152284276Y-57245000D01*
X151941538Y-57313175D01*
X151552873Y-57572873D01*
X151293175Y-57961538D01*
X151201981Y-58420000D01*
X145962346Y-58420000D01*
X145962346Y-57620000D01*
X145933242Y-57473683D01*
X145850359Y-57349641D01*
X145726317Y-57266758D01*
X145580000Y-57237654D01*
X143980000Y-57237654D01*
X143833683Y-57266758D01*
X143709641Y-57349641D01*
X143626758Y-57473683D01*
X143597654Y-57620000D01*
X140561701Y-57620000D01*
X140365584Y-57423883D01*
X139933722Y-57245000D01*
X139466278Y-57245000D01*
X139034416Y-57423883D01*
X138703883Y-57754416D01*
X138525000Y-58186278D01*
X137610000Y-58186278D01*
X137610000Y-56330000D01*
X190050000Y-56330000D01*
X190050001Y-58375675D01*
G04 #@! TD*
M02*
