G04 #@! TF.GenerationSoftware,KiCad,Pcbnew,(5.0.0)*
G04 #@! TF.CreationDate,2019-09-20T13:44:08+02:00*
G04 #@! TF.ProjectId,6502ino,36353032696E6F2E6B696361645F7063,rev?*
G04 #@! TF.SameCoordinates,Original*
G04 #@! TF.FileFunction,Soldermask,Bot*
G04 #@! TF.FilePolarity,Negative*
%FSLAX46Y46*%
G04 Gerber Fmt 4.6, Leading zero omitted, Abs format (unit mm)*
G04 Created by KiCad (PCBNEW (5.0.0)) date 09/20/19 13:44:08*
%MOMM*%
%LPD*%
G01*
G04 APERTURE LIST*
%ADD10R,2.000000X2.000000*%
%ADD11O,2.000000X2.000000*%
%ADD12R,2.100000X2.100000*%
%ADD13O,2.100000X2.100000*%
%ADD14C,2.000000*%
G04 APERTURE END LIST*
D10*
G04 #@! TO.C,U3*
X184150000Y-76200000D03*
D11*
X176530000Y-60960000D03*
X184150000Y-73660000D03*
X176530000Y-63500000D03*
X184150000Y-71120000D03*
X176530000Y-66040000D03*
X184150000Y-68580000D03*
X176530000Y-68580000D03*
X184150000Y-66040000D03*
X176530000Y-71120000D03*
X184150000Y-63500000D03*
X176530000Y-73660000D03*
X184150000Y-60960000D03*
X176530000Y-76200000D03*
G04 #@! TD*
D10*
G04 #@! TO.C,U1*
X172720000Y-106680000D03*
D11*
X157480000Y-58420000D03*
X172720000Y-104140000D03*
X157480000Y-60960000D03*
X172720000Y-101600000D03*
X157480000Y-63500000D03*
X172720000Y-99060000D03*
X157480000Y-66040000D03*
X172720000Y-96520000D03*
X157480000Y-68580000D03*
X172720000Y-93980000D03*
X157480000Y-71120000D03*
X172720000Y-91440000D03*
X157480000Y-73660000D03*
X172720000Y-88900000D03*
X157480000Y-76200000D03*
X172720000Y-86360000D03*
X157480000Y-78740000D03*
X172720000Y-83820000D03*
X157480000Y-81280000D03*
X172720000Y-81280000D03*
X157480000Y-83820000D03*
X172720000Y-78740000D03*
X157480000Y-86360000D03*
X172720000Y-76200000D03*
X157480000Y-88900000D03*
X172720000Y-73660000D03*
X157480000Y-91440000D03*
X172720000Y-71120000D03*
X157480000Y-93980000D03*
X172720000Y-68580000D03*
X157480000Y-96520000D03*
X172720000Y-66040000D03*
X157480000Y-99060000D03*
X172720000Y-63500000D03*
X157480000Y-101600000D03*
X172720000Y-60960000D03*
X157480000Y-104140000D03*
X172720000Y-58420000D03*
X157480000Y-106680000D03*
G04 #@! TD*
D10*
G04 #@! TO.C,U2*
X144780000Y-58420000D03*
D11*
X152400000Y-91440000D03*
X144780000Y-60960000D03*
X152400000Y-88900000D03*
X144780000Y-63500000D03*
X152400000Y-86360000D03*
X144780000Y-66040000D03*
X152400000Y-83820000D03*
X144780000Y-68580000D03*
X152400000Y-81280000D03*
X144780000Y-71120000D03*
X152400000Y-78740000D03*
X144780000Y-73660000D03*
X152400000Y-76200000D03*
X144780000Y-76200000D03*
X152400000Y-73660000D03*
X144780000Y-78740000D03*
X152400000Y-71120000D03*
X144780000Y-81280000D03*
X152400000Y-68580000D03*
X144780000Y-83820000D03*
X152400000Y-66040000D03*
X144780000Y-86360000D03*
X152400000Y-63500000D03*
X144780000Y-88900000D03*
X152400000Y-60960000D03*
X144780000Y-91440000D03*
X152400000Y-58420000D03*
G04 #@! TD*
D12*
G04 #@! TO.C,JANALOG1*
X139700000Y-93980000D03*
D13*
X139700000Y-96520000D03*
X139700000Y-99060000D03*
X139700000Y-101600000D03*
X139700000Y-104140000D03*
X139700000Y-106680000D03*
G04 #@! TD*
G04 #@! TO.C,JDIGITAL1*
X187960000Y-88900000D03*
X187960000Y-91440000D03*
X187960000Y-93980000D03*
X187960000Y-96520000D03*
X187960000Y-99060000D03*
X187960000Y-101600000D03*
X187960000Y-104140000D03*
D12*
X187960000Y-106680000D03*
G04 #@! TD*
G04 #@! TO.C,JDIGITAL2*
X187960000Y-84836000D03*
D13*
X187960000Y-82296000D03*
X187960000Y-79756000D03*
X187960000Y-77216000D03*
X187960000Y-74676000D03*
X187960000Y-72136000D03*
X187960000Y-69596000D03*
X187960000Y-67056000D03*
X187960000Y-64516000D03*
X187960000Y-61976000D03*
G04 #@! TD*
D12*
G04 #@! TO.C,JPOWER1*
X139700000Y-71120000D03*
D13*
X139700000Y-73660000D03*
X139700000Y-76200000D03*
X139700000Y-78740000D03*
X139700000Y-81280000D03*
X139700000Y-83820000D03*
X139700000Y-86360000D03*
X139700000Y-88900000D03*
G04 #@! TD*
D14*
G04 #@! TO.C,C1*
X179030000Y-85090000D03*
X176530000Y-85090000D03*
G04 #@! TD*
G04 #@! TO.C,C2*
X139700000Y-58420000D03*
X139700000Y-60920000D03*
G04 #@! TD*
G04 #@! TO.C,C3*
X179030000Y-80010000D03*
X176530000Y-80010000D03*
G04 #@! TD*
D11*
G04 #@! TO.C,R1*
X143510000Y-93980000D03*
D14*
X151130000Y-93980000D03*
G04 #@! TD*
G04 #@! TO.C,R2*
X151130000Y-96520000D03*
D11*
X143510000Y-96520000D03*
G04 #@! TD*
D14*
G04 #@! TO.C,R11*
X176530000Y-88900000D03*
D11*
X184150000Y-88900000D03*
G04 #@! TD*
D14*
G04 #@! TO.C,R3*
X151130000Y-99060000D03*
D11*
X143510000Y-99060000D03*
G04 #@! TD*
G04 #@! TO.C,R4*
X143510000Y-101600000D03*
D14*
X151130000Y-101600000D03*
G04 #@! TD*
G04 #@! TO.C,R5*
X151130000Y-104140000D03*
D11*
X143510000Y-104140000D03*
G04 #@! TD*
G04 #@! TO.C,R6*
X143510000Y-106680000D03*
D14*
X151130000Y-106680000D03*
G04 #@! TD*
D11*
G04 #@! TO.C,R7*
X184150000Y-91440000D03*
D14*
X176530000Y-91440000D03*
G04 #@! TD*
G04 #@! TO.C,R8*
X176530000Y-93980000D03*
D11*
X184150000Y-93980000D03*
G04 #@! TD*
D14*
G04 #@! TO.C,R9*
X176530000Y-96520000D03*
D11*
X184150000Y-96520000D03*
G04 #@! TD*
G04 #@! TO.C,R10*
X184150000Y-99060000D03*
D14*
X176530000Y-99060000D03*
G04 #@! TD*
G04 #@! TO.C,R12*
X176530000Y-104140000D03*
D11*
X184150000Y-104140000D03*
G04 #@! TD*
D14*
G04 #@! TO.C,C4*
X139700000Y-63500000D03*
X139700000Y-68500000D03*
G04 #@! TD*
M02*
