G04 #@! TF.GenerationSoftware,KiCad,Pcbnew,(5.0.0)*
G04 #@! TF.CreationDate,2019-10-03T22:01:28+02:00*
G04 #@! TF.ProjectId,6502ino,36353032696E6F2E6B696361645F7063,rev?*
G04 #@! TF.SameCoordinates,Original*
G04 #@! TF.FileFunction,Copper,L1,Top,Signal*
G04 #@! TF.FilePolarity,Positive*
%FSLAX46Y46*%
G04 Gerber Fmt 4.6, Leading zero omitted, Abs format (unit mm)*
G04 Created by KiCad (PCBNEW (5.0.0)) date 10/03/19 22:01:28*
%MOMM*%
%LPD*%
G01*
G04 APERTURE LIST*
G04 #@! TA.AperFunction,ComponentPad*
%ADD10R,1.600000X1.600000*%
G04 #@! TD*
G04 #@! TA.AperFunction,ComponentPad*
%ADD11O,1.600000X1.600000*%
G04 #@! TD*
G04 #@! TA.AperFunction,ComponentPad*
%ADD12R,1.700000X1.700000*%
G04 #@! TD*
G04 #@! TA.AperFunction,ComponentPad*
%ADD13O,1.700000X1.700000*%
G04 #@! TD*
G04 #@! TA.AperFunction,ComponentPad*
%ADD14C,1.600000*%
G04 #@! TD*
G04 #@! TA.AperFunction,ViaPad*
%ADD15C,0.800000*%
G04 #@! TD*
G04 #@! TA.AperFunction,Conductor*
%ADD16C,0.800000*%
G04 #@! TD*
G04 #@! TA.AperFunction,Conductor*
%ADD17C,0.500000*%
G04 #@! TD*
G04 #@! TA.AperFunction,Conductor*
%ADD18C,0.250000*%
G04 #@! TD*
G04 APERTURE END LIST*
D10*
G04 #@! TO.P,U3,1*
G04 #@! TO.N,/RWB*
X184150000Y-76200000D03*
D11*
G04 #@! TO.P,U3,8*
G04 #@! TO.N,Net-(U2-Pad27)*
X176530000Y-60960000D03*
G04 #@! TO.P,U3,2*
G04 #@! TO.N,/RWB*
X184150000Y-73660000D03*
G04 #@! TO.P,U3,9*
G04 #@! TO.N,Net-(U3-Pad3)*
X176530000Y-63500000D03*
G04 #@! TO.P,U3,3*
X184150000Y-71120000D03*
G04 #@! TO.P,U3,10*
G04 #@! TO.N,/PHI2*
X176530000Y-66040000D03*
G04 #@! TO.P,U3,4*
X184150000Y-68580000D03*
G04 #@! TO.P,U3,11*
G04 #@! TO.N,Net-(R12-Pad2)*
X176530000Y-68580000D03*
G04 #@! TO.P,U3,5*
G04 #@! TO.N,/PHI2*
X184150000Y-66040000D03*
G04 #@! TO.P,U3,12*
G04 #@! TO.N,/IOBUSY*
X176530000Y-71120000D03*
G04 #@! TO.P,U3,6*
G04 #@! TO.N,Net-(U2-Pad22)*
X184150000Y-63500000D03*
G04 #@! TO.P,U3,13*
G04 #@! TO.N,/IOSELECT*
X176530000Y-73660000D03*
G04 #@! TO.P,U3,7*
G04 #@! TO.N,GND*
X184150000Y-60960000D03*
G04 #@! TO.P,U3,14*
G04 #@! TO.N,+5V*
X176530000Y-76200000D03*
G04 #@! TD*
D10*
G04 #@! TO.P,U1,1*
G04 #@! TO.N,Net-(U1-Pad1)*
X172720000Y-106680000D03*
D11*
G04 #@! TO.P,U1,21*
G04 #@! TO.N,GND*
X157480000Y-58420000D03*
G04 #@! TO.P,U1,2*
G04 #@! TO.N,Net-(R12-Pad1)*
X172720000Y-104140000D03*
G04 #@! TO.P,U1,22*
G04 #@! TO.N,/A12*
X157480000Y-60960000D03*
G04 #@! TO.P,U1,3*
G04 #@! TO.N,Net-(U1-Pad3)*
X172720000Y-101600000D03*
G04 #@! TO.P,U1,23*
G04 #@! TO.N,/A13*
X157480000Y-63500000D03*
G04 #@! TO.P,U1,4*
G04 #@! TO.N,+5V*
X172720000Y-99060000D03*
G04 #@! TO.P,U1,24*
G04 #@! TO.N,/A14*
X157480000Y-66040000D03*
G04 #@! TO.P,U1,5*
G04 #@! TO.N,Net-(U1-Pad5)*
X172720000Y-96520000D03*
G04 #@! TO.P,U1,25*
G04 #@! TO.N,/IOSELECT*
X157480000Y-68580000D03*
G04 #@! TO.P,U1,6*
G04 #@! TO.N,+5V*
X172720000Y-93980000D03*
G04 #@! TO.P,U1,26*
G04 #@! TO.N,/D7*
X157480000Y-71120000D03*
G04 #@! TO.P,U1,7*
G04 #@! TO.N,Net-(U1-Pad7)*
X172720000Y-91440000D03*
G04 #@! TO.P,U1,27*
G04 #@! TO.N,/D6*
X157480000Y-73660000D03*
G04 #@! TO.P,U1,8*
G04 #@! TO.N,+5V*
X172720000Y-88900000D03*
G04 #@! TO.P,U1,28*
G04 #@! TO.N,/D5*
X157480000Y-76200000D03*
G04 #@! TO.P,U1,9*
G04 #@! TO.N,/A0*
X172720000Y-86360000D03*
G04 #@! TO.P,U1,29*
G04 #@! TO.N,/D4*
X157480000Y-78740000D03*
G04 #@! TO.P,U1,10*
G04 #@! TO.N,/A1*
X172720000Y-83820000D03*
G04 #@! TO.P,U1,30*
G04 #@! TO.N,/D3*
X157480000Y-81280000D03*
G04 #@! TO.P,U1,11*
G04 #@! TO.N,/A2*
X172720000Y-81280000D03*
G04 #@! TO.P,U1,31*
G04 #@! TO.N,/D2*
X157480000Y-83820000D03*
G04 #@! TO.P,U1,12*
G04 #@! TO.N,/A3*
X172720000Y-78740000D03*
G04 #@! TO.P,U1,32*
G04 #@! TO.N,/D1*
X157480000Y-86360000D03*
G04 #@! TO.P,U1,13*
G04 #@! TO.N,/A4*
X172720000Y-76200000D03*
G04 #@! TO.P,U1,33*
G04 #@! TO.N,/D0*
X157480000Y-88900000D03*
G04 #@! TO.P,U1,14*
G04 #@! TO.N,/A5*
X172720000Y-73660000D03*
G04 #@! TO.P,U1,34*
G04 #@! TO.N,/RWB*
X157480000Y-91440000D03*
G04 #@! TO.P,U1,15*
G04 #@! TO.N,/A6*
X172720000Y-71120000D03*
G04 #@! TO.P,U1,35*
G04 #@! TO.N,Net-(U1-Pad35)*
X157480000Y-93980000D03*
G04 #@! TO.P,U1,16*
G04 #@! TO.N,/A7*
X172720000Y-68580000D03*
G04 #@! TO.P,U1,36*
G04 #@! TO.N,+5V*
X157480000Y-96520000D03*
G04 #@! TO.P,U1,17*
G04 #@! TO.N,/A8*
X172720000Y-66040000D03*
G04 #@! TO.P,U1,37*
G04 #@! TO.N,/PHI2*
X157480000Y-99060000D03*
G04 #@! TO.P,U1,18*
G04 #@! TO.N,/A9*
X172720000Y-63500000D03*
G04 #@! TO.P,U1,38*
G04 #@! TO.N,GND*
X157480000Y-101600000D03*
G04 #@! TO.P,U1,19*
G04 #@! TO.N,/A10*
X172720000Y-60960000D03*
G04 #@! TO.P,U1,39*
G04 #@! TO.N,Net-(U1-Pad39)*
X157480000Y-104140000D03*
G04 #@! TO.P,U1,20*
G04 #@! TO.N,/A11*
X172720000Y-58420000D03*
G04 #@! TO.P,U1,40*
G04 #@! TO.N,/_RESET*
X157480000Y-106680000D03*
G04 #@! TD*
D10*
G04 #@! TO.P,U2,1*
G04 #@! TO.N,/A11*
X144780000Y-58420000D03*
D11*
G04 #@! TO.P,U2,15*
G04 #@! TO.N,/D0*
X152400000Y-91440000D03*
G04 #@! TO.P,U2,2*
G04 #@! TO.N,/A12*
X144780000Y-60960000D03*
G04 #@! TO.P,U2,16*
G04 #@! TO.N,/D1*
X152400000Y-88900000D03*
G04 #@! TO.P,U2,3*
G04 #@! TO.N,/A13*
X144780000Y-63500000D03*
G04 #@! TO.P,U2,17*
G04 #@! TO.N,/D3*
X152400000Y-86360000D03*
G04 #@! TO.P,U2,4*
G04 #@! TO.N,/A14*
X144780000Y-66040000D03*
G04 #@! TO.P,U2,18*
G04 #@! TO.N,/D5*
X152400000Y-83820000D03*
G04 #@! TO.P,U2,5*
G04 #@! TO.N,/A7*
X144780000Y-68580000D03*
G04 #@! TO.P,U2,19*
G04 #@! TO.N,/D7*
X152400000Y-81280000D03*
G04 #@! TO.P,U2,6*
G04 #@! TO.N,/A5*
X144780000Y-71120000D03*
G04 #@! TO.P,U2,20*
G04 #@! TO.N,/IOSELECT*
X152400000Y-78740000D03*
G04 #@! TO.P,U2,7*
G04 #@! TO.N,/A4*
X144780000Y-73660000D03*
G04 #@! TO.P,U2,21*
G04 #@! TO.N,/A3*
X152400000Y-76200000D03*
G04 #@! TO.P,U2,8*
G04 #@! TO.N,/A2*
X144780000Y-76200000D03*
G04 #@! TO.P,U2,22*
G04 #@! TO.N,Net-(U2-Pad22)*
X152400000Y-73660000D03*
G04 #@! TO.P,U2,9*
G04 #@! TO.N,/A1*
X144780000Y-78740000D03*
G04 #@! TO.P,U2,23*
G04 #@! TO.N,/A6*
X152400000Y-71120000D03*
G04 #@! TO.P,U2,10*
G04 #@! TO.N,/A0*
X144780000Y-81280000D03*
G04 #@! TO.P,U2,24*
G04 #@! TO.N,/A8*
X152400000Y-68580000D03*
G04 #@! TO.P,U2,11*
G04 #@! TO.N,/D6*
X144780000Y-83820000D03*
G04 #@! TO.P,U2,25*
G04 #@! TO.N,/A9*
X152400000Y-66040000D03*
G04 #@! TO.P,U2,12*
G04 #@! TO.N,/D4*
X144780000Y-86360000D03*
G04 #@! TO.P,U2,26*
G04 #@! TO.N,/A10*
X152400000Y-63500000D03*
G04 #@! TO.P,U2,13*
G04 #@! TO.N,/D2*
X144780000Y-88900000D03*
G04 #@! TO.P,U2,27*
G04 #@! TO.N,Net-(U2-Pad27)*
X152400000Y-60960000D03*
G04 #@! TO.P,U2,14*
G04 #@! TO.N,GND*
X144780000Y-91440000D03*
G04 #@! TO.P,U2,28*
G04 #@! TO.N,+5V*
X152400000Y-58420000D03*
G04 #@! TD*
D12*
G04 #@! TO.P,JANALOG1,1*
G04 #@! TO.N,Net-(JANALOG1-Pad1)*
X139700000Y-93980000D03*
D13*
G04 #@! TO.P,JANALOG1,2*
G04 #@! TO.N,Net-(JANALOG1-Pad2)*
X139700000Y-96520000D03*
G04 #@! TO.P,JANALOG1,3*
G04 #@! TO.N,Net-(JANALOG1-Pad3)*
X139700000Y-99060000D03*
G04 #@! TO.P,JANALOG1,4*
G04 #@! TO.N,Net-(JANALOG1-Pad4)*
X139700000Y-101600000D03*
G04 #@! TO.P,JANALOG1,5*
G04 #@! TO.N,Net-(JANALOG1-Pad5)*
X139700000Y-104140000D03*
G04 #@! TO.P,JANALOG1,6*
G04 #@! TO.N,Net-(JANALOG1-Pad6)*
X139700000Y-106680000D03*
G04 #@! TD*
G04 #@! TO.P,JDIGITAL1,8*
G04 #@! TO.N,/IOBUSY*
X187960000Y-88900000D03*
G04 #@! TO.P,JDIGITAL1,7*
G04 #@! TO.N,Net-(JDIGITAL1-Pad7)*
X187960000Y-91440000D03*
G04 #@! TO.P,JDIGITAL1,6*
G04 #@! TO.N,Net-(JDIGITAL1-Pad6)*
X187960000Y-93980000D03*
G04 #@! TO.P,JDIGITAL1,5*
G04 #@! TO.N,Net-(JDIGITAL1-Pad5)*
X187960000Y-96520000D03*
G04 #@! TO.P,JDIGITAL1,4*
G04 #@! TO.N,Net-(JDIGITAL1-Pad4)*
X187960000Y-99060000D03*
G04 #@! TO.P,JDIGITAL1,3*
G04 #@! TO.N,Net-(JDIGITAL1-Pad3)*
X187960000Y-101600000D03*
G04 #@! TO.P,JDIGITAL1,2*
G04 #@! TO.N,Net-(JDIGITAL1-Pad2)*
X187960000Y-104140000D03*
D12*
G04 #@! TO.P,JDIGITAL1,1*
G04 #@! TO.N,Net-(JDIGITAL1-Pad1)*
X187960000Y-106680000D03*
G04 #@! TD*
G04 #@! TO.P,JDIGITAL2,1*
G04 #@! TO.N,/PHI2*
X187960000Y-84836000D03*
D13*
G04 #@! TO.P,JDIGITAL2,2*
G04 #@! TO.N,Net-(JDIGITAL2-Pad2)*
X187960000Y-82296000D03*
G04 #@! TO.P,JDIGITAL2,3*
G04 #@! TO.N,Net-(JDIGITAL2-Pad3)*
X187960000Y-79756000D03*
G04 #@! TO.P,JDIGITAL2,4*
G04 #@! TO.N,Net-(JDIGITAL2-Pad4)*
X187960000Y-77216000D03*
G04 #@! TO.P,JDIGITAL2,5*
G04 #@! TO.N,Net-(JDIGITAL2-Pad5)*
X187960000Y-74676000D03*
G04 #@! TO.P,JDIGITAL2,6*
G04 #@! TO.N,Net-(JDIGITAL2-Pad6)*
X187960000Y-72136000D03*
G04 #@! TO.P,JDIGITAL2,7*
G04 #@! TO.N,GND*
X187960000Y-69596000D03*
G04 #@! TO.P,JDIGITAL2,8*
G04 #@! TO.N,Net-(JDIGITAL2-Pad8)*
X187960000Y-67056000D03*
G04 #@! TO.P,JDIGITAL2,9*
G04 #@! TO.N,Net-(JDIGITAL2-Pad9)*
X187960000Y-64516000D03*
G04 #@! TO.P,JDIGITAL2,10*
G04 #@! TO.N,Net-(JDIGITAL2-Pad10)*
X187960000Y-61976000D03*
G04 #@! TD*
D12*
G04 #@! TO.P,JPOWER1,1*
G04 #@! TO.N,Net-(JPOWER1-Pad1)*
X139700000Y-71120000D03*
D13*
G04 #@! TO.P,JPOWER1,2*
G04 #@! TO.N,Net-(JPOWER1-Pad2)*
X139700000Y-73660000D03*
G04 #@! TO.P,JPOWER1,3*
G04 #@! TO.N,/_RESET*
X139700000Y-76200000D03*
G04 #@! TO.P,JPOWER1,4*
G04 #@! TO.N,Net-(JPOWER1-Pad4)*
X139700000Y-78740000D03*
G04 #@! TO.P,JPOWER1,5*
G04 #@! TO.N,+5V*
X139700000Y-81280000D03*
G04 #@! TO.P,JPOWER1,6*
G04 #@! TO.N,GND*
X139700000Y-83820000D03*
G04 #@! TO.P,JPOWER1,7*
X139700000Y-86360000D03*
G04 #@! TO.P,JPOWER1,8*
G04 #@! TO.N,Net-(JPOWER1-Pad8)*
X139700000Y-88900000D03*
G04 #@! TD*
D14*
G04 #@! TO.P,C1,2*
G04 #@! TO.N,GND*
X179030000Y-85090000D03*
G04 #@! TO.P,C1,1*
G04 #@! TO.N,+5V*
X176530000Y-85090000D03*
G04 #@! TD*
G04 #@! TO.P,C2,1*
G04 #@! TO.N,+5V*
X139700000Y-58420000D03*
G04 #@! TO.P,C2,2*
G04 #@! TO.N,GND*
X139700000Y-60920000D03*
G04 #@! TD*
G04 #@! TO.P,C3,2*
G04 #@! TO.N,GND*
X179030000Y-80010000D03*
G04 #@! TO.P,C3,1*
G04 #@! TO.N,+5V*
X176530000Y-80010000D03*
G04 #@! TD*
D11*
G04 #@! TO.P,R1,2*
G04 #@! TO.N,Net-(JANALOG1-Pad1)*
X143510000Y-93980000D03*
D14*
G04 #@! TO.P,R1,1*
G04 #@! TO.N,/D0*
X151130000Y-93980000D03*
G04 #@! TD*
G04 #@! TO.P,R2,1*
G04 #@! TO.N,/D1*
X151130000Y-96520000D03*
D11*
G04 #@! TO.P,R2,2*
G04 #@! TO.N,Net-(JANALOG1-Pad2)*
X143510000Y-96520000D03*
G04 #@! TD*
D14*
G04 #@! TO.P,R11,1*
G04 #@! TO.N,+5V*
X176530000Y-88900000D03*
D11*
G04 #@! TO.P,R11,2*
G04 #@! TO.N,/IOBUSY*
X184150000Y-88900000D03*
G04 #@! TD*
D14*
G04 #@! TO.P,R3,1*
G04 #@! TO.N,/D2*
X151130000Y-99060000D03*
D11*
G04 #@! TO.P,R3,2*
G04 #@! TO.N,Net-(JANALOG1-Pad3)*
X143510000Y-99060000D03*
G04 #@! TD*
G04 #@! TO.P,R4,2*
G04 #@! TO.N,Net-(JANALOG1-Pad4)*
X143510000Y-101600000D03*
D14*
G04 #@! TO.P,R4,1*
G04 #@! TO.N,/D3*
X151130000Y-101600000D03*
G04 #@! TD*
G04 #@! TO.P,R5,1*
G04 #@! TO.N,/D4*
X151130000Y-104140000D03*
D11*
G04 #@! TO.P,R5,2*
G04 #@! TO.N,Net-(JANALOG1-Pad5)*
X143510000Y-104140000D03*
G04 #@! TD*
G04 #@! TO.P,R6,2*
G04 #@! TO.N,Net-(JANALOG1-Pad6)*
X143510000Y-106680000D03*
D14*
G04 #@! TO.P,R6,1*
G04 #@! TO.N,/D5*
X151130000Y-106680000D03*
G04 #@! TD*
D11*
G04 #@! TO.P,R7,2*
G04 #@! TO.N,Net-(JDIGITAL1-Pad7)*
X184150000Y-91440000D03*
D14*
G04 #@! TO.P,R7,1*
G04 #@! TO.N,/RWB*
X176530000Y-91440000D03*
G04 #@! TD*
G04 #@! TO.P,R8,1*
G04 #@! TO.N,/IOSELECT*
X176530000Y-93980000D03*
D11*
G04 #@! TO.P,R8,2*
G04 #@! TO.N,Net-(JDIGITAL1-Pad6)*
X184150000Y-93980000D03*
G04 #@! TD*
D14*
G04 #@! TO.P,R9,1*
G04 #@! TO.N,/D7*
X176530000Y-96520000D03*
D11*
G04 #@! TO.P,R9,2*
G04 #@! TO.N,Net-(JDIGITAL1-Pad5)*
X184150000Y-96520000D03*
G04 #@! TD*
G04 #@! TO.P,R10,2*
G04 #@! TO.N,Net-(JDIGITAL1-Pad4)*
X184150000Y-99060000D03*
D14*
G04 #@! TO.P,R10,1*
G04 #@! TO.N,/D6*
X176530000Y-99060000D03*
G04 #@! TD*
G04 #@! TO.P,R12,1*
G04 #@! TO.N,Net-(R12-Pad1)*
X176530000Y-104140000D03*
D11*
G04 #@! TO.P,R12,2*
G04 #@! TO.N,Net-(R12-Pad2)*
X184150000Y-104140000D03*
G04 #@! TD*
D14*
G04 #@! TO.P,C4,1*
G04 #@! TO.N,+5V*
X139700000Y-63500000D03*
G04 #@! TO.P,C4,2*
G04 #@! TO.N,GND*
X139700000Y-68500000D03*
G04 #@! TD*
D15*
G04 #@! TO.N,/D1*
X155443347Y-87888653D03*
G04 #@! TO.N,/D2*
X154427347Y-86872653D03*
X146558000Y-87630000D03*
X149606000Y-87630000D03*
G04 #@! TO.N,/D4*
X150622006Y-85344000D03*
X146557998Y-85344000D03*
X148008011Y-85314772D03*
G04 #@! TO.N,/D5*
X149860000Y-84582000D03*
G04 #@! TO.N,/D6*
X149098000Y-83820000D03*
G04 #@! TO.N,/RWB*
X180340000Y-83312000D03*
X170179998Y-92710000D03*
G04 #@! TO.N,/PHI2*
X184150000Y-81280000D03*
X184150000Y-83312000D03*
G04 #@! TO.N,/IOBUSY*
X180340000Y-71628000D03*
X178816000Y-71628000D03*
X183134000Y-81280000D03*
X184131868Y-85278544D03*
G04 #@! TO.N,/_RESET*
X142240000Y-80264000D03*
G04 #@! TO.N,/IOSELECT*
X181102000Y-81280000D03*
X181356000Y-83312000D03*
G04 #@! TO.N,Net-(U2-Pad27)*
X155189347Y-60955347D03*
X159765994Y-63500000D03*
G04 #@! TO.N,Net-(U2-Pad22)*
X159512000Y-66294000D03*
G04 #@! TO.N,Net-(R12-Pad2)*
X182118000Y-81280000D03*
X183134000Y-85344000D03*
G04 #@! TO.N,Net-(U3-Pad3)*
X182880000Y-67310000D03*
X182118000Y-63754000D03*
G04 #@! TD*
D16*
G04 #@! TO.N,+5V*
X141732000Y-63500000D02*
X139700000Y-63500000D01*
X142240000Y-64008000D02*
X141732000Y-63500000D01*
X143088990Y-56555010D02*
X151805010Y-56555010D01*
X142240000Y-57404000D02*
X143088990Y-56555010D01*
X141732000Y-63500000D02*
X142240000Y-62992000D01*
X139700000Y-58420000D02*
X142240000Y-58420000D01*
X142240000Y-62992000D02*
X142240000Y-58420000D01*
X142240000Y-58420000D02*
X142240000Y-57404000D01*
X152400000Y-58420000D02*
X152400000Y-56557397D01*
X152400000Y-56557397D02*
X151805010Y-56555010D01*
X142240000Y-64008000D02*
X142240000Y-62992000D01*
X173228000Y-88900000D02*
X172720000Y-88900000D01*
X142240000Y-78740000D02*
X142240000Y-64008000D01*
X139700000Y-81280000D02*
X142240000Y-78740000D01*
X176530000Y-80010000D02*
X176530000Y-76200000D01*
X176530000Y-80010000D02*
X176530000Y-82296000D01*
X176530000Y-82296000D02*
X176530000Y-85090000D01*
X185420000Y-82296000D02*
X176530000Y-82296000D01*
X186182000Y-81534000D02*
X185420000Y-82296000D01*
X173482000Y-56642000D02*
X176022000Y-56642000D01*
X152400000Y-56557397D02*
X173482000Y-56642000D01*
X176022000Y-56642000D02*
X177292000Y-57912000D01*
X177292000Y-57912000D02*
X185420000Y-57912000D01*
X185420000Y-57912000D02*
X186182000Y-58674000D01*
X186182000Y-58674000D02*
X186182000Y-81534000D01*
D17*
X176530000Y-88900000D02*
X176530000Y-85090000D01*
D18*
X171588630Y-88900000D02*
X170942000Y-89546630D01*
X172720000Y-88900000D02*
X171588630Y-88900000D01*
X170942000Y-97282000D02*
X172720000Y-99060000D01*
X172720000Y-93980000D02*
X170942000Y-93980000D01*
X170942000Y-89546630D02*
X170942000Y-93980000D01*
X157480000Y-96520000D02*
X170942000Y-96520000D01*
X170942000Y-93980000D02*
X170942000Y-96520000D01*
X170942000Y-96520000D02*
X170942000Y-97282000D01*
D17*
G04 #@! TO.N,Net-(JANALOG1-Pad1)*
X139700000Y-93980000D02*
X143510000Y-93980000D01*
G04 #@! TO.N,Net-(JANALOG1-Pad2)*
X139700000Y-96520000D02*
X143510000Y-96520000D01*
G04 #@! TO.N,Net-(JANALOG1-Pad3)*
X139700000Y-99060000D02*
X143510000Y-99060000D01*
G04 #@! TO.N,Net-(JANALOG1-Pad4)*
X139700000Y-101600000D02*
X143510000Y-101600000D01*
G04 #@! TO.N,Net-(JANALOG1-Pad5)*
X139700000Y-104140000D02*
X143510000Y-104140000D01*
G04 #@! TO.N,Net-(JANALOG1-Pad6)*
X139700000Y-106680000D02*
X143510000Y-106680000D01*
D18*
G04 #@! TO.N,/D0*
X152400000Y-91440000D02*
X154178000Y-91440000D01*
X156718000Y-88900000D02*
X157480000Y-88900000D01*
X154178000Y-91440000D02*
X156718000Y-88900000D01*
X151130000Y-92710000D02*
X151130000Y-93980000D01*
X152400000Y-91440000D02*
X151130000Y-92710000D01*
G04 #@! TO.N,/D1*
X152400000Y-88900000D02*
X153531370Y-88900000D01*
X153531370Y-88900000D02*
X154432000Y-88900000D01*
X154432000Y-88900000D02*
X155443347Y-87888653D01*
X149606000Y-91694000D02*
X152400000Y-88900000D01*
X149606000Y-96127370D02*
X149606000Y-91694000D01*
X151130000Y-96520000D02*
X149998630Y-96520000D01*
X149998630Y-96520000D02*
X149606000Y-96127370D01*
G04 #@! TO.N,/D2*
X146050000Y-87630000D02*
X144780000Y-88900000D01*
X153670000Y-87630000D02*
X154427347Y-86872653D01*
X149098000Y-87630000D02*
X153670000Y-87630000D01*
X151130000Y-99060000D02*
X149098000Y-97028000D01*
X149098000Y-97028000D02*
X149098000Y-87630000D01*
X146050000Y-87630000D02*
X146558000Y-87630000D01*
G04 #@! TO.N,/D3*
X151130000Y-101600000D02*
X148532011Y-99002011D01*
X148532011Y-99002011D02*
X148532011Y-87122993D01*
X151268630Y-86360000D02*
X152400000Y-86360000D01*
X149295004Y-86360000D02*
X151268630Y-86360000D01*
X148532011Y-87122993D02*
X149295004Y-86360000D01*
G04 #@! TO.N,/D4*
X144780000Y-86360000D02*
X145796000Y-85344000D01*
X145796000Y-85344000D02*
X145992313Y-85344000D01*
X145992313Y-85344000D02*
X146557998Y-85344000D01*
X150622006Y-85344000D02*
X148037239Y-85344000D01*
X148037239Y-85344000D02*
X148008011Y-85314772D01*
X148008011Y-85880457D02*
X148008011Y-85314772D01*
X147828000Y-86060468D02*
X148008011Y-85880457D01*
X151130000Y-104140000D02*
X147828000Y-100838000D01*
X147828000Y-100838000D02*
X147828000Y-86060468D01*
G04 #@! TO.N,/D5*
X149294315Y-84582000D02*
X149860000Y-84582000D01*
X147283004Y-102833004D02*
X147283004Y-84995998D01*
X151130000Y-106680000D02*
X147283004Y-102833004D01*
X147283004Y-84995998D02*
X147697002Y-84582000D01*
X147697002Y-84582000D02*
X149294315Y-84582000D01*
G04 #@! TO.N,/D6*
X149098000Y-83820000D02*
X144780000Y-83820000D01*
X174752000Y-99060000D02*
X176530000Y-99060000D01*
X166370000Y-73660000D02*
X167640000Y-72390000D01*
X157480000Y-73660000D02*
X166370000Y-73660000D01*
X167640000Y-72390000D02*
X173482000Y-72390000D01*
X173482000Y-72390000D02*
X174244000Y-73152000D01*
X174244000Y-73152000D02*
X174244000Y-98552000D01*
X174244000Y-98552000D02*
X174752000Y-99060000D01*
G04 #@! TO.N,/D7*
X175260000Y-96520000D02*
X176530000Y-96520000D01*
X174752000Y-96012000D02*
X175260000Y-96520000D01*
X166116000Y-71120000D02*
X167386000Y-69850000D01*
X174752000Y-72390000D02*
X174752000Y-96012000D01*
X157480000Y-71120000D02*
X166116000Y-71120000D01*
X167386000Y-69850000D02*
X173482000Y-69850000D01*
X173482000Y-69850000D02*
X173990000Y-70358000D01*
X173990000Y-70358000D02*
X173990000Y-71628000D01*
X173990000Y-71628000D02*
X174752000Y-72390000D01*
G04 #@! TO.N,/RWB*
X184150000Y-76200000D02*
X184150000Y-73660000D01*
X180340000Y-83877685D02*
X180340000Y-83312000D01*
X180340000Y-88646000D02*
X180340000Y-83877685D01*
X176530000Y-91440000D02*
X177546000Y-91440000D01*
X177546000Y-91440000D02*
X180340000Y-88646000D01*
X169614313Y-92710000D02*
X170179998Y-92710000D01*
X157480000Y-91440000D02*
X158750000Y-92710000D01*
X158750000Y-92710000D02*
X169614313Y-92710000D01*
G04 #@! TO.N,/A0*
X165100000Y-86360000D02*
X172720000Y-86360000D01*
X147885002Y-81280000D02*
X151695002Y-85090000D01*
X144780000Y-81280000D02*
X147885002Y-81280000D01*
X151695002Y-85090000D02*
X153670000Y-85090000D01*
X153670000Y-85090000D02*
X156210000Y-87630000D01*
X156210000Y-87630000D02*
X163830000Y-87630000D01*
X163830000Y-87630000D02*
X165100000Y-86360000D01*
G04 #@! TO.N,/A1*
X165100000Y-83820000D02*
X172720000Y-83820000D01*
X147828000Y-78740000D02*
X151638000Y-82550000D01*
X144780000Y-78740000D02*
X147828000Y-78740000D01*
X151638000Y-82550000D02*
X154178000Y-82550000D01*
X154178000Y-82550000D02*
X156862999Y-85234999D01*
X156862999Y-85234999D02*
X163685001Y-85234999D01*
X163685001Y-85234999D02*
X165100000Y-83820000D01*
G04 #@! TO.N,/A2*
X164338000Y-81280000D02*
X172720000Y-81280000D01*
X147574000Y-76200000D02*
X151384000Y-80010000D01*
X151384000Y-80010000D02*
X153670000Y-80010000D01*
X153670000Y-80010000D02*
X156210000Y-82550000D01*
X156210000Y-82550000D02*
X163068000Y-82550000D01*
X144780000Y-76200000D02*
X147574000Y-76200000D01*
X163068000Y-82550000D02*
X164338000Y-81280000D01*
G04 #@! TO.N,/A3*
X164338000Y-78740000D02*
X172720000Y-78740000D01*
X163068000Y-80010000D02*
X164338000Y-78740000D01*
X152400000Y-76200000D02*
X156210000Y-80010000D01*
X156210000Y-80010000D02*
X163068000Y-80010000D01*
G04 #@! TO.N,/A4*
X164592000Y-76200000D02*
X172720000Y-76200000D01*
X144780000Y-73660000D02*
X148082000Y-73660000D01*
X148082000Y-73660000D02*
X149352000Y-74930000D01*
X149352000Y-74930000D02*
X154178000Y-74930000D01*
X154178000Y-74930000D02*
X156718000Y-77470000D01*
X156718000Y-77470000D02*
X163322000Y-77470000D01*
X163322000Y-77470000D02*
X164592000Y-76200000D01*
G04 #@! TO.N,/A5*
X167894000Y-73660000D02*
X172720000Y-73660000D01*
X147066000Y-71120000D02*
X148336000Y-72390000D01*
X144780000Y-71120000D02*
X147066000Y-71120000D01*
X148336000Y-72390000D02*
X153670000Y-72390000D01*
X153670000Y-72390000D02*
X156210000Y-74930000D01*
X156210000Y-74930000D02*
X166624000Y-74930000D01*
X166624000Y-74930000D02*
X167894000Y-73660000D01*
G04 #@! TO.N,/A6*
X167386000Y-71120000D02*
X172720000Y-71120000D01*
X166116000Y-72390000D02*
X167386000Y-71120000D01*
X155702000Y-72390000D02*
X166116000Y-72390000D01*
X152400000Y-71120000D02*
X154432000Y-71120000D01*
X154432000Y-71120000D02*
X155702000Y-72390000D01*
G04 #@! TO.N,/A7*
X167132000Y-68580000D02*
X172720000Y-68580000D01*
X165862000Y-69850000D02*
X167132000Y-68580000D01*
X149098000Y-69850000D02*
X165862000Y-69850000D01*
X144780000Y-68580000D02*
X147828000Y-68580000D01*
X147828000Y-68580000D02*
X149098000Y-69850000D01*
G04 #@! TO.N,/A8*
X166370000Y-66040000D02*
X172720000Y-66040000D01*
X165100000Y-67310000D02*
X166370000Y-66040000D01*
X155702000Y-67310000D02*
X165100000Y-67310000D01*
X152400000Y-68580000D02*
X154432000Y-68580000D01*
X154432000Y-68580000D02*
X155702000Y-67310000D01*
G04 #@! TO.N,/A9*
X165608000Y-63500000D02*
X172720000Y-63500000D01*
X164338000Y-64770000D02*
X165608000Y-63500000D01*
X155702000Y-64770000D02*
X164338000Y-64770000D01*
X152400000Y-66040000D02*
X154432000Y-66040000D01*
X154432000Y-66040000D02*
X155702000Y-64770000D01*
G04 #@! TO.N,/A10*
X165100000Y-60960000D02*
X172720000Y-60960000D01*
X163830000Y-62230000D02*
X165100000Y-60960000D01*
X155956000Y-62230000D02*
X163830000Y-62230000D01*
X152400000Y-63500000D02*
X154686000Y-63500000D01*
X154686000Y-63500000D02*
X155956000Y-62230000D01*
G04 #@! TO.N,/A11*
X165608000Y-58420000D02*
X172720000Y-58420000D01*
X164338000Y-59690000D02*
X165608000Y-58420000D01*
X147100000Y-59690000D02*
X164338000Y-59690000D01*
X144780000Y-58420000D02*
X145830000Y-58420000D01*
X145830000Y-58420000D02*
X147100000Y-59690000D01*
G04 #@! TO.N,/A12*
X156210000Y-60960000D02*
X157480000Y-60960000D01*
X154940000Y-62230000D02*
X156210000Y-60960000D01*
X144780000Y-60960000D02*
X146050000Y-62230000D01*
X146050000Y-62230000D02*
X154940000Y-62230000D01*
G04 #@! TO.N,/A13*
X155956000Y-63500000D02*
X157480000Y-63500000D01*
X154686000Y-64770000D02*
X155956000Y-63500000D01*
X144780000Y-63500000D02*
X146050000Y-64770000D01*
X146050000Y-64770000D02*
X154686000Y-64770000D01*
G04 #@! TO.N,/A14*
X144780000Y-66040000D02*
X149098000Y-66040000D01*
X149098000Y-66040000D02*
X150368000Y-67310000D01*
X150368000Y-67310000D02*
X154432000Y-67310000D01*
X154432000Y-67310000D02*
X155702000Y-66040000D01*
X155702000Y-66040000D02*
X157480000Y-66040000D01*
G04 #@! TO.N,/PHI2*
X184150000Y-66040000D02*
X184150000Y-68580000D01*
X176530000Y-66040000D02*
X182118000Y-66040000D01*
X182118000Y-66040000D02*
X184150000Y-66040000D01*
X187960000Y-84836000D02*
X185166000Y-84836000D01*
X184658000Y-84328000D02*
X185166000Y-84836000D01*
X184150000Y-84328000D02*
X184658000Y-84328000D01*
X184150000Y-79248000D02*
X184150000Y-81280000D01*
X181864000Y-66040000D02*
X181864000Y-76962000D01*
X181864000Y-76962000D02*
X184150000Y-79248000D01*
X184150000Y-84328000D02*
X184150000Y-83312000D01*
X184150000Y-83820000D02*
X184150000Y-83312000D01*
X158279999Y-99859999D02*
X157480000Y-99060000D01*
X158750000Y-100330000D02*
X158279999Y-99859999D01*
X178816000Y-100330000D02*
X158750000Y-100330000D01*
X182118000Y-85090000D02*
X182118000Y-90678000D01*
X182118000Y-90678000D02*
X179832000Y-92964000D01*
X179832000Y-92964000D02*
X179832000Y-99314000D01*
X182880000Y-84328000D02*
X182118000Y-85090000D01*
X184150000Y-84328000D02*
X182880000Y-84328000D01*
X179832000Y-99314000D02*
X178816000Y-100330000D01*
D17*
G04 #@! TO.N,/IOBUSY*
X184150000Y-88900000D02*
X187960000Y-88900000D01*
D18*
X177038000Y-71628000D02*
X176530000Y-71120000D01*
X178816000Y-71628000D02*
X177038000Y-71628000D01*
X183134000Y-79248000D02*
X183134000Y-81280000D01*
X180340000Y-71628000D02*
X180340000Y-76454000D01*
X180340000Y-76454000D02*
X183134000Y-79248000D01*
X184150000Y-88900000D02*
X184150000Y-85296676D01*
X184150000Y-85296676D02*
X184131868Y-85278544D01*
D17*
G04 #@! TO.N,Net-(JDIGITAL1-Pad4)*
X184150000Y-99060000D02*
X187960000Y-99060000D01*
D18*
G04 #@! TO.N,/_RESET*
X142240000Y-80829685D02*
X142240000Y-80264000D01*
X142240000Y-88646000D02*
X142240000Y-80829685D01*
X155956000Y-108204000D02*
X150368000Y-108204000D01*
X157480000Y-106680000D02*
X155956000Y-108204000D01*
X143764000Y-90170000D02*
X142240000Y-88646000D01*
X150368000Y-108204000D02*
X146304000Y-104140000D01*
X146304000Y-104140000D02*
X146304000Y-91009000D01*
X146304000Y-91009000D02*
X145465000Y-90170000D01*
X145465000Y-90170000D02*
X143764000Y-90170000D01*
G04 #@! TO.N,/IOSELECT*
X175514000Y-72136000D02*
X175514000Y-72644000D01*
X165608000Y-68580000D02*
X166878000Y-67310000D01*
X157480000Y-68580000D02*
X165608000Y-68580000D01*
X166878000Y-67310000D02*
X173482000Y-67310000D01*
X173482000Y-67310000D02*
X174752000Y-68580000D01*
X175514000Y-72644000D02*
X176530000Y-73660000D01*
X174752000Y-68580000D02*
X174752000Y-71374000D01*
X174752000Y-71374000D02*
X175514000Y-72136000D01*
X176530000Y-73660000D02*
X178308000Y-75438000D01*
X178308000Y-75438000D02*
X178308000Y-77216000D01*
X178308000Y-77216000D02*
X181102000Y-80010000D01*
X181102000Y-80010000D02*
X181102000Y-81280000D01*
X181356000Y-83877685D02*
X181356000Y-83312000D01*
X181356000Y-89154000D02*
X181356000Y-83877685D01*
X176530000Y-93980000D02*
X181356000Y-89154000D01*
G04 #@! TO.N,Net-(U2-Pad27)*
X152400000Y-60960000D02*
X155184694Y-60960000D01*
X155184694Y-60960000D02*
X155189347Y-60955347D01*
X175260000Y-62230000D02*
X176530000Y-60960000D01*
X165354000Y-62230000D02*
X175260000Y-62230000D01*
X159765994Y-63500000D02*
X164084000Y-63500000D01*
X164084000Y-63500000D02*
X165354000Y-62230000D01*
D17*
G04 #@! TO.N,Net-(JDIGITAL1-Pad7)*
X184150000Y-91440000D02*
X187960000Y-91440000D01*
G04 #@! TO.N,Net-(JDIGITAL1-Pad6)*
X184150000Y-93980000D02*
X187960000Y-93980000D01*
G04 #@! TO.N,Net-(JDIGITAL1-Pad5)*
X184150000Y-96520000D02*
X187960000Y-96520000D01*
G04 #@! TO.N,Net-(R12-Pad1)*
X176530000Y-104140000D02*
X172720000Y-104140000D01*
D18*
G04 #@! TO.N,Net-(U2-Pad22)*
X182880000Y-64770000D02*
X184150000Y-63500000D01*
X165862000Y-64770000D02*
X182880000Y-64770000D01*
X159512000Y-66294000D02*
X164338000Y-66294000D01*
X164338000Y-66294000D02*
X165862000Y-64770000D01*
G04 #@! TO.N,Net-(R12-Pad2)*
X182118000Y-79248000D02*
X182118000Y-81280000D01*
X179578000Y-76708000D02*
X182118000Y-79248000D01*
X179578000Y-70496630D02*
X179578000Y-76708000D01*
X176530000Y-68580000D02*
X177661370Y-68580000D01*
X177661370Y-68580000D02*
X179578000Y-70496630D01*
X182734001Y-85743999D02*
X183134000Y-85344000D01*
X184150000Y-104140000D02*
X182734001Y-102724001D01*
X182734001Y-102724001D02*
X182734001Y-85743999D01*
G04 #@! TO.N,Net-(U3-Pad3)*
X181864000Y-63500000D02*
X176530000Y-63500000D01*
X182118000Y-63754000D02*
X181864000Y-63500000D01*
X182626000Y-67564000D02*
X182880000Y-67310000D01*
X184150000Y-71120000D02*
X182626000Y-69596000D01*
X182626000Y-69596000D02*
X182626000Y-67564000D01*
G04 #@! TD*
M02*
