M48
;DRILL file {KiCad (5.0.0)} date 09/20/19 13:43:49
;FORMAT={-:-/ absolute / inch / decimal}
FMAT,2
INCH,TZ
T1C0.0157
T2C0.0315
T3C0.0394
%
G90
G05
M72
T1
X5.6Y-3.16
X5.77Y-3.36
X5.77Y-3.45
X5.8271Y-3.3588
X5.87Y-3.3
X5.89Y-3.45
X5.9Y-3.33
X5.93Y-3.36
X6.0798Y-3.4202
X6.1098Y-2.3998
X6.1198Y-3.4602
X6.28Y-2.61
X6.29Y-2.5
X6.7Y-3.65
X7.04Y-2.82
X7.1Y-2.82
X7.1Y-3.28
X7.13Y-3.2
X7.14Y-3.28
X7.17Y-2.51
X7.17Y-3.2
X7.2Y-2.65
X7.21Y-3.2
X7.21Y-3.36
X7.2493Y-3.3574
X7.25Y-3.2
X7.25Y-3.28
T2
X6.95Y-4.1
X7.25Y-4.1
X6.95Y-3.35
X7.0484Y-3.35
X5.5Y-2.3
X5.5Y-2.3984
X6.2Y-2.3
X6.2Y-2.4
X6.2Y-2.5
X6.2Y-2.6
X6.2Y-2.7
X6.2Y-2.8
X6.2Y-2.9
X6.2Y-3.
X6.2Y-3.1
X6.2Y-3.2
X6.2Y-3.3
X6.2Y-3.4
X6.2Y-3.5
X6.2Y-3.6
X6.2Y-3.7
X6.2Y-3.8
X6.2Y-3.9
X6.2Y-4.
X6.2Y-4.1
X6.2Y-4.2
X6.8Y-2.3
X6.8Y-2.4
X6.8Y-2.5
X6.8Y-2.6
X6.8Y-2.7
X6.8Y-2.8
X6.8Y-2.9
X6.8Y-3.
X6.8Y-3.1
X6.8Y-3.2
X6.8Y-3.3
X6.8Y-3.4
X6.8Y-3.5
X6.8Y-3.6
X6.8Y-3.7
X6.8Y-3.8
X6.8Y-3.9
X6.8Y-4.
X6.8Y-4.1
X6.8Y-4.2
X6.95Y-3.5
X7.25Y-3.5
X6.95Y-2.4
X6.95Y-2.5
X6.95Y-2.6
X6.95Y-2.7
X6.95Y-2.8
X6.95Y-2.9
X6.95Y-3.
X7.25Y-2.4
X7.25Y-2.5
X7.25Y-2.6
X7.25Y-2.7
X7.25Y-2.8
X7.25Y-2.9
X7.25Y-3.
X5.65Y-4.2
X5.95Y-4.2
X5.65Y-3.8
X5.95Y-3.8
X6.95Y-3.9
X7.25Y-3.9
X5.5Y-2.5
X5.5Y-2.6969
X5.65Y-4.1
X5.95Y-4.1
X5.65Y-3.7
X5.95Y-3.7
X6.95Y-3.6
X7.25Y-3.6
X6.95Y-3.8
X7.25Y-3.8
X5.65Y-4.
X5.95Y-4.
X6.95Y-3.7
X7.25Y-3.7
X6.95Y-3.15
X7.0484Y-3.15
X5.65Y-3.9
X5.95Y-3.9
X5.7Y-2.3
X5.7Y-2.4
X5.7Y-2.5
X5.7Y-2.6
X5.7Y-2.7
X5.7Y-2.8
X5.7Y-2.9
X5.7Y-3.
X5.7Y-3.1
X5.7Y-3.2
X5.7Y-3.3
X5.7Y-3.4
X5.7Y-3.5
X5.7Y-3.6
X6.Y-2.3
X6.Y-2.4
X6.Y-2.5
X6.Y-2.6
X6.Y-2.7
X6.Y-2.8
X6.Y-2.9
X6.Y-3.
X6.Y-3.1
X6.Y-3.2
X6.Y-3.3
X6.Y-3.4
X6.Y-3.5
X6.Y-3.6
T3
X5.5Y-2.8
X5.5Y-2.9
X5.5Y-3.
X5.5Y-3.1
X5.5Y-3.2
X5.5Y-3.3
X5.5Y-3.4
X5.5Y-3.5
X7.4Y-2.44
X7.4Y-2.54
X7.4Y-2.64
X7.4Y-2.74
X7.4Y-2.84
X7.4Y-2.94
X7.4Y-3.04
X7.4Y-3.14
X7.4Y-3.24
X7.4Y-3.34
X7.4Y-3.5
X7.4Y-3.6
X7.4Y-3.7
X7.4Y-3.8
X7.4Y-3.9
X7.4Y-4.
X7.4Y-4.1
X7.4Y-4.2
X5.5Y-3.7
X5.5Y-3.8
X5.5Y-3.9
X5.5Y-4.
X5.5Y-4.1
X5.5Y-4.2
T0
M30
